G04 #@! TF.GenerationSoftware,KiCad,Pcbnew,(5.0.1)-3*
G04 #@! TF.CreationDate,2020-05-05T20:51:12+03:00*
G04 #@! TF.ProjectId,VienaTranPastiprinatajs,5669656E615472616E50617374697072,rev?*
G04 #@! TF.SameCoordinates,Original*
G04 #@! TF.FileFunction,Copper,L2,Bot,Signal*
G04 #@! TF.FilePolarity,Positive*
%FSLAX46Y46*%
G04 Gerber Fmt 4.6, Leading zero omitted, Abs format (unit mm)*
G04 Created by KiCad (PCBNEW (5.0.1)-3) date 05-May-20 8:51:12 PM*
%MOMM*%
%LPD*%
G01*
G04 APERTURE LIST*
G04 #@! TA.AperFunction,ComponentPad*
%ADD10R,1.998980X1.998980*%
G04 #@! TD*
G04 #@! TA.AperFunction,ComponentPad*
%ADD11C,1.998980*%
G04 #@! TD*
G04 #@! TA.AperFunction,ComponentPad*
%ADD12C,1.600000*%
G04 #@! TD*
G04 #@! TA.AperFunction,ComponentPad*
%ADD13R,1.600000X1.600000*%
G04 #@! TD*
G04 #@! TA.AperFunction,ComponentPad*
%ADD14C,2.000000*%
G04 #@! TD*
G04 #@! TA.AperFunction,SMDPad,CuDef*
%ADD15R,0.900000X0.800000*%
G04 #@! TD*
G04 #@! TA.AperFunction,Conductor*
%ADD16C,0.100000*%
G04 #@! TD*
G04 #@! TA.AperFunction,SMDPad,CuDef*
%ADD17C,1.425000*%
G04 #@! TD*
G04 #@! TA.AperFunction,Conductor*
%ADD18C,1.000000*%
G04 #@! TD*
G04 #@! TA.AperFunction,Conductor*
%ADD19C,0.254000*%
G04 #@! TD*
G04 #@! TA.AperFunction,NonConductor*
%ADD20C,0.254000*%
G04 #@! TD*
G04 APERTURE END LIST*
D10*
G04 #@! TO.P,out,1*
G04 #@! TO.N,Net-(8_Ohm1-Pad1)*
X105650000Y-51610000D03*
D11*
G04 #@! TO.P,out,2*
G04 #@! TO.N,GNDREF*
X105650000Y-47800000D03*
G04 #@! TD*
D12*
G04 #@! TO.P,C1,2*
G04 #@! TO.N,Net-(C1-Pad2)*
X91210000Y-51620000D03*
D13*
G04 #@! TO.P,C1,1*
G04 #@! TO.N,Net-(C1-Pad1)*
X91210000Y-48120000D03*
G04 #@! TD*
G04 #@! TO.P,C2,1*
G04 #@! TO.N,Net-(8_Ohm1-Pad1)*
X99800000Y-51610000D03*
D12*
G04 #@! TO.P,C2,2*
G04 #@! TO.N,Net-(C2-Pad2)*
X99800000Y-48110000D03*
G04 #@! TD*
D11*
G04 #@! TO.P,in,2*
G04 #@! TO.N,Net-(C1-Pad2)*
X85400000Y-47800000D03*
D10*
G04 #@! TO.P,in,1*
G04 #@! TO.N,GNDREF*
X85400000Y-51610000D03*
G04 #@! TD*
D14*
G04 #@! TO.P,+5V,1*
G04 #@! TO.N,+5V*
X87880000Y-45060000D03*
G04 #@! TD*
G04 #@! TO.P,GND,1*
G04 #@! TO.N,GNDREF*
X87880000Y-54700000D03*
G04 #@! TD*
D15*
G04 #@! TO.P,Q1,2*
G04 #@! TO.N,Net-(C2-Pad2)*
X101220000Y-49500000D03*
G04 #@! TO.P,Q1,3*
G04 #@! TO.N,Net-(Q1-Pad3)*
X103220000Y-50450000D03*
G04 #@! TO.P,Q1,1*
G04 #@! TO.N,Net-(C1-Pad1)*
X103220000Y-48550000D03*
G04 #@! TD*
D16*
G04 #@! TO.N,+5V*
G04 #@! TO.C,R1*
G36*
X95449504Y-50596204D02*
X95473773Y-50599804D01*
X95497571Y-50605765D01*
X95520671Y-50614030D01*
X95542849Y-50624520D01*
X95563893Y-50637133D01*
X95583598Y-50651747D01*
X95601777Y-50668223D01*
X95618253Y-50686402D01*
X95632867Y-50706107D01*
X95645480Y-50727151D01*
X95655970Y-50749329D01*
X95664235Y-50772429D01*
X95670196Y-50796227D01*
X95673796Y-50820496D01*
X95675000Y-50845000D01*
X95675000Y-51770000D01*
X95673796Y-51794504D01*
X95670196Y-51818773D01*
X95664235Y-51842571D01*
X95655970Y-51865671D01*
X95645480Y-51887849D01*
X95632867Y-51908893D01*
X95618253Y-51928598D01*
X95601777Y-51946777D01*
X95583598Y-51963253D01*
X95563893Y-51977867D01*
X95542849Y-51990480D01*
X95520671Y-52000970D01*
X95497571Y-52009235D01*
X95473773Y-52015196D01*
X95449504Y-52018796D01*
X95425000Y-52020000D01*
X94175000Y-52020000D01*
X94150496Y-52018796D01*
X94126227Y-52015196D01*
X94102429Y-52009235D01*
X94079329Y-52000970D01*
X94057151Y-51990480D01*
X94036107Y-51977867D01*
X94016402Y-51963253D01*
X93998223Y-51946777D01*
X93981747Y-51928598D01*
X93967133Y-51908893D01*
X93954520Y-51887849D01*
X93944030Y-51865671D01*
X93935765Y-51842571D01*
X93929804Y-51818773D01*
X93926204Y-51794504D01*
X93925000Y-51770000D01*
X93925000Y-50845000D01*
X93926204Y-50820496D01*
X93929804Y-50796227D01*
X93935765Y-50772429D01*
X93944030Y-50749329D01*
X93954520Y-50727151D01*
X93967133Y-50706107D01*
X93981747Y-50686402D01*
X93998223Y-50668223D01*
X94016402Y-50651747D01*
X94036107Y-50637133D01*
X94057151Y-50624520D01*
X94079329Y-50614030D01*
X94102429Y-50605765D01*
X94126227Y-50599804D01*
X94150496Y-50596204D01*
X94175000Y-50595000D01*
X95425000Y-50595000D01*
X95449504Y-50596204D01*
X95449504Y-50596204D01*
G37*
D17*
G04 #@! TD*
G04 #@! TO.P,R1,1*
G04 #@! TO.N,+5V*
X94800000Y-51307500D03*
D16*
G04 #@! TO.N,Net-(C1-Pad1)*
G04 #@! TO.C,R1*
G36*
X95449504Y-47621204D02*
X95473773Y-47624804D01*
X95497571Y-47630765D01*
X95520671Y-47639030D01*
X95542849Y-47649520D01*
X95563893Y-47662133D01*
X95583598Y-47676747D01*
X95601777Y-47693223D01*
X95618253Y-47711402D01*
X95632867Y-47731107D01*
X95645480Y-47752151D01*
X95655970Y-47774329D01*
X95664235Y-47797429D01*
X95670196Y-47821227D01*
X95673796Y-47845496D01*
X95675000Y-47870000D01*
X95675000Y-48795000D01*
X95673796Y-48819504D01*
X95670196Y-48843773D01*
X95664235Y-48867571D01*
X95655970Y-48890671D01*
X95645480Y-48912849D01*
X95632867Y-48933893D01*
X95618253Y-48953598D01*
X95601777Y-48971777D01*
X95583598Y-48988253D01*
X95563893Y-49002867D01*
X95542849Y-49015480D01*
X95520671Y-49025970D01*
X95497571Y-49034235D01*
X95473773Y-49040196D01*
X95449504Y-49043796D01*
X95425000Y-49045000D01*
X94175000Y-49045000D01*
X94150496Y-49043796D01*
X94126227Y-49040196D01*
X94102429Y-49034235D01*
X94079329Y-49025970D01*
X94057151Y-49015480D01*
X94036107Y-49002867D01*
X94016402Y-48988253D01*
X93998223Y-48971777D01*
X93981747Y-48953598D01*
X93967133Y-48933893D01*
X93954520Y-48912849D01*
X93944030Y-48890671D01*
X93935765Y-48867571D01*
X93929804Y-48843773D01*
X93926204Y-48819504D01*
X93925000Y-48795000D01*
X93925000Y-47870000D01*
X93926204Y-47845496D01*
X93929804Y-47821227D01*
X93935765Y-47797429D01*
X93944030Y-47774329D01*
X93954520Y-47752151D01*
X93967133Y-47731107D01*
X93981747Y-47711402D01*
X93998223Y-47693223D01*
X94016402Y-47676747D01*
X94036107Y-47662133D01*
X94057151Y-47649520D01*
X94079329Y-47639030D01*
X94102429Y-47630765D01*
X94126227Y-47624804D01*
X94150496Y-47621204D01*
X94175000Y-47620000D01*
X95425000Y-47620000D01*
X95449504Y-47621204D01*
X95449504Y-47621204D01*
G37*
D17*
G04 #@! TD*
G04 #@! TO.P,R1,2*
G04 #@! TO.N,Net-(C1-Pad1)*
X94800000Y-48332500D03*
D16*
G04 #@! TO.N,GNDREF*
G04 #@! TO.C,R2*
G36*
X98174504Y-43776204D02*
X98198773Y-43779804D01*
X98222571Y-43785765D01*
X98245671Y-43794030D01*
X98267849Y-43804520D01*
X98288893Y-43817133D01*
X98308598Y-43831747D01*
X98326777Y-43848223D01*
X98343253Y-43866402D01*
X98357867Y-43886107D01*
X98370480Y-43907151D01*
X98380970Y-43929329D01*
X98389235Y-43952429D01*
X98395196Y-43976227D01*
X98398796Y-44000496D01*
X98400000Y-44025000D01*
X98400000Y-45275000D01*
X98398796Y-45299504D01*
X98395196Y-45323773D01*
X98389235Y-45347571D01*
X98380970Y-45370671D01*
X98370480Y-45392849D01*
X98357867Y-45413893D01*
X98343253Y-45433598D01*
X98326777Y-45451777D01*
X98308598Y-45468253D01*
X98288893Y-45482867D01*
X98267849Y-45495480D01*
X98245671Y-45505970D01*
X98222571Y-45514235D01*
X98198773Y-45520196D01*
X98174504Y-45523796D01*
X98150000Y-45525000D01*
X97225000Y-45525000D01*
X97200496Y-45523796D01*
X97176227Y-45520196D01*
X97152429Y-45514235D01*
X97129329Y-45505970D01*
X97107151Y-45495480D01*
X97086107Y-45482867D01*
X97066402Y-45468253D01*
X97048223Y-45451777D01*
X97031747Y-45433598D01*
X97017133Y-45413893D01*
X97004520Y-45392849D01*
X96994030Y-45370671D01*
X96985765Y-45347571D01*
X96979804Y-45323773D01*
X96976204Y-45299504D01*
X96975000Y-45275000D01*
X96975000Y-44025000D01*
X96976204Y-44000496D01*
X96979804Y-43976227D01*
X96985765Y-43952429D01*
X96994030Y-43929329D01*
X97004520Y-43907151D01*
X97017133Y-43886107D01*
X97031747Y-43866402D01*
X97048223Y-43848223D01*
X97066402Y-43831747D01*
X97086107Y-43817133D01*
X97107151Y-43804520D01*
X97129329Y-43794030D01*
X97152429Y-43785765D01*
X97176227Y-43779804D01*
X97200496Y-43776204D01*
X97225000Y-43775000D01*
X98150000Y-43775000D01*
X98174504Y-43776204D01*
X98174504Y-43776204D01*
G37*
D17*
G04 #@! TD*
G04 #@! TO.P,R2,2*
G04 #@! TO.N,GNDREF*
X97687500Y-44650000D03*
D16*
G04 #@! TO.N,Net-(C1-Pad1)*
G04 #@! TO.C,R2*
G36*
X95199504Y-43776204D02*
X95223773Y-43779804D01*
X95247571Y-43785765D01*
X95270671Y-43794030D01*
X95292849Y-43804520D01*
X95313893Y-43817133D01*
X95333598Y-43831747D01*
X95351777Y-43848223D01*
X95368253Y-43866402D01*
X95382867Y-43886107D01*
X95395480Y-43907151D01*
X95405970Y-43929329D01*
X95414235Y-43952429D01*
X95420196Y-43976227D01*
X95423796Y-44000496D01*
X95425000Y-44025000D01*
X95425000Y-45275000D01*
X95423796Y-45299504D01*
X95420196Y-45323773D01*
X95414235Y-45347571D01*
X95405970Y-45370671D01*
X95395480Y-45392849D01*
X95382867Y-45413893D01*
X95368253Y-45433598D01*
X95351777Y-45451777D01*
X95333598Y-45468253D01*
X95313893Y-45482867D01*
X95292849Y-45495480D01*
X95270671Y-45505970D01*
X95247571Y-45514235D01*
X95223773Y-45520196D01*
X95199504Y-45523796D01*
X95175000Y-45525000D01*
X94250000Y-45525000D01*
X94225496Y-45523796D01*
X94201227Y-45520196D01*
X94177429Y-45514235D01*
X94154329Y-45505970D01*
X94132151Y-45495480D01*
X94111107Y-45482867D01*
X94091402Y-45468253D01*
X94073223Y-45451777D01*
X94056747Y-45433598D01*
X94042133Y-45413893D01*
X94029520Y-45392849D01*
X94019030Y-45370671D01*
X94010765Y-45347571D01*
X94004804Y-45323773D01*
X94001204Y-45299504D01*
X94000000Y-45275000D01*
X94000000Y-44025000D01*
X94001204Y-44000496D01*
X94004804Y-43976227D01*
X94010765Y-43952429D01*
X94019030Y-43929329D01*
X94029520Y-43907151D01*
X94042133Y-43886107D01*
X94056747Y-43866402D01*
X94073223Y-43848223D01*
X94091402Y-43831747D01*
X94111107Y-43817133D01*
X94132151Y-43804520D01*
X94154329Y-43794030D01*
X94177429Y-43785765D01*
X94201227Y-43779804D01*
X94225496Y-43776204D01*
X94250000Y-43775000D01*
X95175000Y-43775000D01*
X95199504Y-43776204D01*
X95199504Y-43776204D01*
G37*
D17*
G04 #@! TD*
G04 #@! TO.P,R2,1*
G04 #@! TO.N,Net-(C1-Pad1)*
X94712500Y-44650000D03*
D16*
G04 #@! TO.N,+5V*
G04 #@! TO.C,R3*
G36*
X98079504Y-50596204D02*
X98103773Y-50599804D01*
X98127571Y-50605765D01*
X98150671Y-50614030D01*
X98172849Y-50624520D01*
X98193893Y-50637133D01*
X98213598Y-50651747D01*
X98231777Y-50668223D01*
X98248253Y-50686402D01*
X98262867Y-50706107D01*
X98275480Y-50727151D01*
X98285970Y-50749329D01*
X98294235Y-50772429D01*
X98300196Y-50796227D01*
X98303796Y-50820496D01*
X98305000Y-50845000D01*
X98305000Y-51770000D01*
X98303796Y-51794504D01*
X98300196Y-51818773D01*
X98294235Y-51842571D01*
X98285970Y-51865671D01*
X98275480Y-51887849D01*
X98262867Y-51908893D01*
X98248253Y-51928598D01*
X98231777Y-51946777D01*
X98213598Y-51963253D01*
X98193893Y-51977867D01*
X98172849Y-51990480D01*
X98150671Y-52000970D01*
X98127571Y-52009235D01*
X98103773Y-52015196D01*
X98079504Y-52018796D01*
X98055000Y-52020000D01*
X96805000Y-52020000D01*
X96780496Y-52018796D01*
X96756227Y-52015196D01*
X96732429Y-52009235D01*
X96709329Y-52000970D01*
X96687151Y-51990480D01*
X96666107Y-51977867D01*
X96646402Y-51963253D01*
X96628223Y-51946777D01*
X96611747Y-51928598D01*
X96597133Y-51908893D01*
X96584520Y-51887849D01*
X96574030Y-51865671D01*
X96565765Y-51842571D01*
X96559804Y-51818773D01*
X96556204Y-51794504D01*
X96555000Y-51770000D01*
X96555000Y-50845000D01*
X96556204Y-50820496D01*
X96559804Y-50796227D01*
X96565765Y-50772429D01*
X96574030Y-50749329D01*
X96584520Y-50727151D01*
X96597133Y-50706107D01*
X96611747Y-50686402D01*
X96628223Y-50668223D01*
X96646402Y-50651747D01*
X96666107Y-50637133D01*
X96687151Y-50624520D01*
X96709329Y-50614030D01*
X96732429Y-50605765D01*
X96756227Y-50599804D01*
X96780496Y-50596204D01*
X96805000Y-50595000D01*
X98055000Y-50595000D01*
X98079504Y-50596204D01*
X98079504Y-50596204D01*
G37*
D17*
G04 #@! TD*
G04 #@! TO.P,R3,1*
G04 #@! TO.N,+5V*
X97430000Y-51307500D03*
D16*
G04 #@! TO.N,Net-(C2-Pad2)*
G04 #@! TO.C,R3*
G36*
X98079504Y-47621204D02*
X98103773Y-47624804D01*
X98127571Y-47630765D01*
X98150671Y-47639030D01*
X98172849Y-47649520D01*
X98193893Y-47662133D01*
X98213598Y-47676747D01*
X98231777Y-47693223D01*
X98248253Y-47711402D01*
X98262867Y-47731107D01*
X98275480Y-47752151D01*
X98285970Y-47774329D01*
X98294235Y-47797429D01*
X98300196Y-47821227D01*
X98303796Y-47845496D01*
X98305000Y-47870000D01*
X98305000Y-48795000D01*
X98303796Y-48819504D01*
X98300196Y-48843773D01*
X98294235Y-48867571D01*
X98285970Y-48890671D01*
X98275480Y-48912849D01*
X98262867Y-48933893D01*
X98248253Y-48953598D01*
X98231777Y-48971777D01*
X98213598Y-48988253D01*
X98193893Y-49002867D01*
X98172849Y-49015480D01*
X98150671Y-49025970D01*
X98127571Y-49034235D01*
X98103773Y-49040196D01*
X98079504Y-49043796D01*
X98055000Y-49045000D01*
X96805000Y-49045000D01*
X96780496Y-49043796D01*
X96756227Y-49040196D01*
X96732429Y-49034235D01*
X96709329Y-49025970D01*
X96687151Y-49015480D01*
X96666107Y-49002867D01*
X96646402Y-48988253D01*
X96628223Y-48971777D01*
X96611747Y-48953598D01*
X96597133Y-48933893D01*
X96584520Y-48912849D01*
X96574030Y-48890671D01*
X96565765Y-48867571D01*
X96559804Y-48843773D01*
X96556204Y-48819504D01*
X96555000Y-48795000D01*
X96555000Y-47870000D01*
X96556204Y-47845496D01*
X96559804Y-47821227D01*
X96565765Y-47797429D01*
X96574030Y-47774329D01*
X96584520Y-47752151D01*
X96597133Y-47731107D01*
X96611747Y-47711402D01*
X96628223Y-47693223D01*
X96646402Y-47676747D01*
X96666107Y-47662133D01*
X96687151Y-47649520D01*
X96709329Y-47639030D01*
X96732429Y-47630765D01*
X96756227Y-47624804D01*
X96780496Y-47621204D01*
X96805000Y-47620000D01*
X98055000Y-47620000D01*
X98079504Y-47621204D01*
X98079504Y-47621204D01*
G37*
D17*
G04 #@! TD*
G04 #@! TO.P,R3,2*
G04 #@! TO.N,Net-(C2-Pad2)*
X97430000Y-48332500D03*
D16*
G04 #@! TO.N,Net-(Q1-Pad3)*
G04 #@! TO.C,R4*
G36*
X97194504Y-53246204D02*
X97218773Y-53249804D01*
X97242571Y-53255765D01*
X97265671Y-53264030D01*
X97287849Y-53274520D01*
X97308893Y-53287133D01*
X97328598Y-53301747D01*
X97346777Y-53318223D01*
X97363253Y-53336402D01*
X97377867Y-53356107D01*
X97390480Y-53377151D01*
X97400970Y-53399329D01*
X97409235Y-53422429D01*
X97415196Y-53446227D01*
X97418796Y-53470496D01*
X97420000Y-53495000D01*
X97420000Y-54745000D01*
X97418796Y-54769504D01*
X97415196Y-54793773D01*
X97409235Y-54817571D01*
X97400970Y-54840671D01*
X97390480Y-54862849D01*
X97377867Y-54883893D01*
X97363253Y-54903598D01*
X97346777Y-54921777D01*
X97328598Y-54938253D01*
X97308893Y-54952867D01*
X97287849Y-54965480D01*
X97265671Y-54975970D01*
X97242571Y-54984235D01*
X97218773Y-54990196D01*
X97194504Y-54993796D01*
X97170000Y-54995000D01*
X96245000Y-54995000D01*
X96220496Y-54993796D01*
X96196227Y-54990196D01*
X96172429Y-54984235D01*
X96149329Y-54975970D01*
X96127151Y-54965480D01*
X96106107Y-54952867D01*
X96086402Y-54938253D01*
X96068223Y-54921777D01*
X96051747Y-54903598D01*
X96037133Y-54883893D01*
X96024520Y-54862849D01*
X96014030Y-54840671D01*
X96005765Y-54817571D01*
X95999804Y-54793773D01*
X95996204Y-54769504D01*
X95995000Y-54745000D01*
X95995000Y-53495000D01*
X95996204Y-53470496D01*
X95999804Y-53446227D01*
X96005765Y-53422429D01*
X96014030Y-53399329D01*
X96024520Y-53377151D01*
X96037133Y-53356107D01*
X96051747Y-53336402D01*
X96068223Y-53318223D01*
X96086402Y-53301747D01*
X96106107Y-53287133D01*
X96127151Y-53274520D01*
X96149329Y-53264030D01*
X96172429Y-53255765D01*
X96196227Y-53249804D01*
X96220496Y-53246204D01*
X96245000Y-53245000D01*
X97170000Y-53245000D01*
X97194504Y-53246204D01*
X97194504Y-53246204D01*
G37*
D17*
G04 #@! TD*
G04 #@! TO.P,R4,1*
G04 #@! TO.N,Net-(Q1-Pad3)*
X96707500Y-54120000D03*
D16*
G04 #@! TO.N,GNDREF*
G04 #@! TO.C,R4*
G36*
X94219504Y-53246204D02*
X94243773Y-53249804D01*
X94267571Y-53255765D01*
X94290671Y-53264030D01*
X94312849Y-53274520D01*
X94333893Y-53287133D01*
X94353598Y-53301747D01*
X94371777Y-53318223D01*
X94388253Y-53336402D01*
X94402867Y-53356107D01*
X94415480Y-53377151D01*
X94425970Y-53399329D01*
X94434235Y-53422429D01*
X94440196Y-53446227D01*
X94443796Y-53470496D01*
X94445000Y-53495000D01*
X94445000Y-54745000D01*
X94443796Y-54769504D01*
X94440196Y-54793773D01*
X94434235Y-54817571D01*
X94425970Y-54840671D01*
X94415480Y-54862849D01*
X94402867Y-54883893D01*
X94388253Y-54903598D01*
X94371777Y-54921777D01*
X94353598Y-54938253D01*
X94333893Y-54952867D01*
X94312849Y-54965480D01*
X94290671Y-54975970D01*
X94267571Y-54984235D01*
X94243773Y-54990196D01*
X94219504Y-54993796D01*
X94195000Y-54995000D01*
X93270000Y-54995000D01*
X93245496Y-54993796D01*
X93221227Y-54990196D01*
X93197429Y-54984235D01*
X93174329Y-54975970D01*
X93152151Y-54965480D01*
X93131107Y-54952867D01*
X93111402Y-54938253D01*
X93093223Y-54921777D01*
X93076747Y-54903598D01*
X93062133Y-54883893D01*
X93049520Y-54862849D01*
X93039030Y-54840671D01*
X93030765Y-54817571D01*
X93024804Y-54793773D01*
X93021204Y-54769504D01*
X93020000Y-54745000D01*
X93020000Y-53495000D01*
X93021204Y-53470496D01*
X93024804Y-53446227D01*
X93030765Y-53422429D01*
X93039030Y-53399329D01*
X93049520Y-53377151D01*
X93062133Y-53356107D01*
X93076747Y-53336402D01*
X93093223Y-53318223D01*
X93111402Y-53301747D01*
X93131107Y-53287133D01*
X93152151Y-53274520D01*
X93174329Y-53264030D01*
X93197429Y-53255765D01*
X93221227Y-53249804D01*
X93245496Y-53246204D01*
X93270000Y-53245000D01*
X94195000Y-53245000D01*
X94219504Y-53246204D01*
X94219504Y-53246204D01*
G37*
D17*
G04 #@! TD*
G04 #@! TO.P,R4,2*
G04 #@! TO.N,GNDREF*
X93732500Y-54120000D03*
D18*
G04 #@! TO.N,GNDREF*
X85400000Y-53609490D02*
X86380000Y-54589490D01*
X85400000Y-51610000D02*
X85400000Y-53609490D01*
X86465787Y-54700000D02*
X87880000Y-54700000D01*
X86380000Y-54614213D02*
X86465787Y-54700000D01*
X86380000Y-54589490D02*
X86380000Y-54614213D01*
X102500000Y-44650000D02*
X105650000Y-47800000D01*
X97687500Y-44650000D02*
X102500000Y-44650000D01*
X93732500Y-54120000D02*
X91530000Y-54120000D01*
X90950000Y-54700000D02*
X87880000Y-54700000D01*
X91530000Y-54120000D02*
X90950000Y-54700000D01*
G04 #@! TO.N,Net-(C1-Pad1)*
X103170000Y-48550000D02*
X101129999Y-46509999D01*
X103220000Y-48550000D02*
X103170000Y-48550000D01*
X91402500Y-48312500D02*
X91210000Y-48120000D01*
X94800000Y-48332500D02*
X93122500Y-48332500D01*
X93010000Y-48120000D02*
X91210000Y-48120000D01*
X93122500Y-48232500D02*
X93010000Y-48120000D01*
X93122500Y-48332500D02*
X93122500Y-48232500D01*
X94800000Y-44737500D02*
X94712500Y-44650000D01*
X94860001Y-46509999D02*
X94800000Y-46570000D01*
X101129999Y-46509999D02*
X94860001Y-46509999D01*
X94800000Y-48332500D02*
X94800000Y-46570000D01*
X94800000Y-46570000D02*
X94800000Y-44737500D01*
G04 #@! TO.N,Net-(C2-Pad2)*
X99577500Y-48332500D02*
X99800000Y-48110000D01*
X97430000Y-48332500D02*
X99577500Y-48332500D01*
X101190000Y-49500000D02*
X99800000Y-48110000D01*
X101220000Y-49500000D02*
X101190000Y-49500000D01*
G04 #@! TO.N,Net-(Q1-Pad3)*
X96707500Y-54120000D02*
X101740000Y-54120000D01*
X103220000Y-52640000D02*
X103220000Y-50450000D01*
X101740000Y-54120000D02*
X103220000Y-52640000D01*
G04 #@! TO.N,+5V*
X93265502Y-51307500D02*
X94800000Y-51307500D01*
X91978001Y-50019999D02*
X93265502Y-51307500D01*
X90069997Y-50019999D02*
X91978001Y-50019999D01*
X87880000Y-45060000D02*
X87880000Y-47830002D01*
X87880000Y-47830002D02*
X90069997Y-50019999D01*
X94800000Y-51307500D02*
X97430000Y-51307500D01*
G04 #@! TD*
D19*
G04 #@! TO.N,GNDREF*
G36*
X87061712Y-48648291D02*
X87156479Y-48711613D01*
X89188387Y-50743522D01*
X89251708Y-50838288D01*
X89627142Y-51089145D01*
X89857662Y-51134998D01*
X89775000Y-51334561D01*
X89775000Y-51905439D01*
X89993466Y-52432862D01*
X90397138Y-52836534D01*
X90924561Y-53055000D01*
X91495439Y-53055000D01*
X92022862Y-52836534D01*
X92426534Y-52432862D01*
X92530638Y-52181532D01*
X92822647Y-52376646D01*
X93153719Y-52442500D01*
X93265501Y-52464735D01*
X93377283Y-52442500D01*
X93597157Y-52442500D01*
X93831565Y-52599126D01*
X93996347Y-52631903D01*
X93859500Y-52768750D01*
X93859500Y-53993000D01*
X94921250Y-53993000D01*
X95080000Y-53834250D01*
X95080000Y-53118690D01*
X94983327Y-52885301D01*
X94804698Y-52706673D01*
X94709981Y-52667440D01*
X95425000Y-52667440D01*
X95768435Y-52599126D01*
X96002843Y-52442500D01*
X96227157Y-52442500D01*
X96459221Y-52597560D01*
X96245000Y-52597560D01*
X95901565Y-52665874D01*
X95610414Y-52860414D01*
X95415874Y-53151565D01*
X95347560Y-53495000D01*
X95347560Y-54745000D01*
X95415874Y-55088435D01*
X95610414Y-55379586D01*
X95901565Y-55574126D01*
X96245000Y-55642440D01*
X97170000Y-55642440D01*
X97513435Y-55574126D01*
X97804586Y-55379586D01*
X97887831Y-55255000D01*
X101628217Y-55255000D01*
X101740000Y-55277235D01*
X101851783Y-55255000D01*
X102182855Y-55189146D01*
X102558289Y-54938289D01*
X102621613Y-54843518D01*
X103943521Y-53521611D01*
X104038289Y-53458289D01*
X104266563Y-53116653D01*
X104402745Y-53207647D01*
X104650510Y-53256930D01*
X106649490Y-53256930D01*
X106665001Y-53253845D01*
X106665001Y-55765000D01*
X89124608Y-55765000D01*
X89032534Y-55672926D01*
X89299387Y-55574264D01*
X89525908Y-54964539D01*
X89505232Y-54405750D01*
X92385000Y-54405750D01*
X92385000Y-55121310D01*
X92481673Y-55354699D01*
X92660302Y-55533327D01*
X92893691Y-55630000D01*
X93446750Y-55630000D01*
X93605500Y-55471250D01*
X93605500Y-54247000D01*
X93859500Y-54247000D01*
X93859500Y-55471250D01*
X94018250Y-55630000D01*
X94571309Y-55630000D01*
X94804698Y-55533327D01*
X94983327Y-55354699D01*
X95080000Y-55121310D01*
X95080000Y-54405750D01*
X94921250Y-54247000D01*
X93859500Y-54247000D01*
X93605500Y-54247000D01*
X92543750Y-54247000D01*
X92385000Y-54405750D01*
X89505232Y-54405750D01*
X89501856Y-54314540D01*
X89299387Y-53825736D01*
X89032532Y-53727073D01*
X88059605Y-54700000D01*
X88073748Y-54714143D01*
X87894143Y-54893748D01*
X87880000Y-54879605D01*
X87865858Y-54893748D01*
X87686253Y-54714143D01*
X87700395Y-54700000D01*
X86727468Y-53727073D01*
X86460613Y-53825736D01*
X86234092Y-54435461D01*
X86258144Y-55085460D01*
X86460613Y-55574264D01*
X86727466Y-55672926D01*
X86635392Y-55765000D01*
X84135000Y-55765000D01*
X84135000Y-53547468D01*
X86907073Y-53547468D01*
X87880000Y-54520395D01*
X88852927Y-53547468D01*
X88754264Y-53280613D01*
X88318417Y-53118690D01*
X92385000Y-53118690D01*
X92385000Y-53834250D01*
X92543750Y-53993000D01*
X93605500Y-53993000D01*
X93605500Y-52768750D01*
X93446750Y-52610000D01*
X92893691Y-52610000D01*
X92660302Y-52706673D01*
X92481673Y-52885301D01*
X92385000Y-53118690D01*
X88318417Y-53118690D01*
X88144539Y-53054092D01*
X87494540Y-53078144D01*
X87005736Y-53280613D01*
X86907073Y-53547468D01*
X84135000Y-53547468D01*
X84135000Y-53186831D01*
X84274200Y-53244490D01*
X85114250Y-53244490D01*
X85273000Y-53085740D01*
X85273000Y-51737000D01*
X85527000Y-51737000D01*
X85527000Y-53085740D01*
X85685750Y-53244490D01*
X86525800Y-53244490D01*
X86759189Y-53147817D01*
X86937817Y-52969188D01*
X87034490Y-52735799D01*
X87034490Y-51895750D01*
X86875740Y-51737000D01*
X85527000Y-51737000D01*
X85273000Y-51737000D01*
X85253000Y-51737000D01*
X85253000Y-51483000D01*
X85273000Y-51483000D01*
X85273000Y-50134260D01*
X85527000Y-50134260D01*
X85527000Y-51483000D01*
X86875740Y-51483000D01*
X87034490Y-51324250D01*
X87034490Y-50484201D01*
X86937817Y-50250812D01*
X86759189Y-50072183D01*
X86525800Y-49975510D01*
X85685750Y-49975510D01*
X85527000Y-50134260D01*
X85273000Y-50134260D01*
X85114250Y-49975510D01*
X84274200Y-49975510D01*
X84135000Y-50033169D01*
X84135000Y-48846518D01*
X84474136Y-49185654D01*
X85074880Y-49434490D01*
X85725120Y-49434490D01*
X86325864Y-49185654D01*
X86785654Y-48725864D01*
X86911132Y-48422932D01*
X87061712Y-48648291D01*
X87061712Y-48648291D01*
G37*
X87061712Y-48648291D02*
X87156479Y-48711613D01*
X89188387Y-50743522D01*
X89251708Y-50838288D01*
X89627142Y-51089145D01*
X89857662Y-51134998D01*
X89775000Y-51334561D01*
X89775000Y-51905439D01*
X89993466Y-52432862D01*
X90397138Y-52836534D01*
X90924561Y-53055000D01*
X91495439Y-53055000D01*
X92022862Y-52836534D01*
X92426534Y-52432862D01*
X92530638Y-52181532D01*
X92822647Y-52376646D01*
X93153719Y-52442500D01*
X93265501Y-52464735D01*
X93377283Y-52442500D01*
X93597157Y-52442500D01*
X93831565Y-52599126D01*
X93996347Y-52631903D01*
X93859500Y-52768750D01*
X93859500Y-53993000D01*
X94921250Y-53993000D01*
X95080000Y-53834250D01*
X95080000Y-53118690D01*
X94983327Y-52885301D01*
X94804698Y-52706673D01*
X94709981Y-52667440D01*
X95425000Y-52667440D01*
X95768435Y-52599126D01*
X96002843Y-52442500D01*
X96227157Y-52442500D01*
X96459221Y-52597560D01*
X96245000Y-52597560D01*
X95901565Y-52665874D01*
X95610414Y-52860414D01*
X95415874Y-53151565D01*
X95347560Y-53495000D01*
X95347560Y-54745000D01*
X95415874Y-55088435D01*
X95610414Y-55379586D01*
X95901565Y-55574126D01*
X96245000Y-55642440D01*
X97170000Y-55642440D01*
X97513435Y-55574126D01*
X97804586Y-55379586D01*
X97887831Y-55255000D01*
X101628217Y-55255000D01*
X101740000Y-55277235D01*
X101851783Y-55255000D01*
X102182855Y-55189146D01*
X102558289Y-54938289D01*
X102621613Y-54843518D01*
X103943521Y-53521611D01*
X104038289Y-53458289D01*
X104266563Y-53116653D01*
X104402745Y-53207647D01*
X104650510Y-53256930D01*
X106649490Y-53256930D01*
X106665001Y-53253845D01*
X106665001Y-55765000D01*
X89124608Y-55765000D01*
X89032534Y-55672926D01*
X89299387Y-55574264D01*
X89525908Y-54964539D01*
X89505232Y-54405750D01*
X92385000Y-54405750D01*
X92385000Y-55121310D01*
X92481673Y-55354699D01*
X92660302Y-55533327D01*
X92893691Y-55630000D01*
X93446750Y-55630000D01*
X93605500Y-55471250D01*
X93605500Y-54247000D01*
X93859500Y-54247000D01*
X93859500Y-55471250D01*
X94018250Y-55630000D01*
X94571309Y-55630000D01*
X94804698Y-55533327D01*
X94983327Y-55354699D01*
X95080000Y-55121310D01*
X95080000Y-54405750D01*
X94921250Y-54247000D01*
X93859500Y-54247000D01*
X93605500Y-54247000D01*
X92543750Y-54247000D01*
X92385000Y-54405750D01*
X89505232Y-54405750D01*
X89501856Y-54314540D01*
X89299387Y-53825736D01*
X89032532Y-53727073D01*
X88059605Y-54700000D01*
X88073748Y-54714143D01*
X87894143Y-54893748D01*
X87880000Y-54879605D01*
X87865858Y-54893748D01*
X87686253Y-54714143D01*
X87700395Y-54700000D01*
X86727468Y-53727073D01*
X86460613Y-53825736D01*
X86234092Y-54435461D01*
X86258144Y-55085460D01*
X86460613Y-55574264D01*
X86727466Y-55672926D01*
X86635392Y-55765000D01*
X84135000Y-55765000D01*
X84135000Y-53547468D01*
X86907073Y-53547468D01*
X87880000Y-54520395D01*
X88852927Y-53547468D01*
X88754264Y-53280613D01*
X88318417Y-53118690D01*
X92385000Y-53118690D01*
X92385000Y-53834250D01*
X92543750Y-53993000D01*
X93605500Y-53993000D01*
X93605500Y-52768750D01*
X93446750Y-52610000D01*
X92893691Y-52610000D01*
X92660302Y-52706673D01*
X92481673Y-52885301D01*
X92385000Y-53118690D01*
X88318417Y-53118690D01*
X88144539Y-53054092D01*
X87494540Y-53078144D01*
X87005736Y-53280613D01*
X86907073Y-53547468D01*
X84135000Y-53547468D01*
X84135000Y-53186831D01*
X84274200Y-53244490D01*
X85114250Y-53244490D01*
X85273000Y-53085740D01*
X85273000Y-51737000D01*
X85527000Y-51737000D01*
X85527000Y-53085740D01*
X85685750Y-53244490D01*
X86525800Y-53244490D01*
X86759189Y-53147817D01*
X86937817Y-52969188D01*
X87034490Y-52735799D01*
X87034490Y-51895750D01*
X86875740Y-51737000D01*
X85527000Y-51737000D01*
X85273000Y-51737000D01*
X85253000Y-51737000D01*
X85253000Y-51483000D01*
X85273000Y-51483000D01*
X85273000Y-50134260D01*
X85527000Y-50134260D01*
X85527000Y-51483000D01*
X86875740Y-51483000D01*
X87034490Y-51324250D01*
X87034490Y-50484201D01*
X86937817Y-50250812D01*
X86759189Y-50072183D01*
X86525800Y-49975510D01*
X85685750Y-49975510D01*
X85527000Y-50134260D01*
X85273000Y-50134260D01*
X85114250Y-49975510D01*
X84274200Y-49975510D01*
X84135000Y-50033169D01*
X84135000Y-48846518D01*
X84474136Y-49185654D01*
X85074880Y-49434490D01*
X85725120Y-49434490D01*
X86325864Y-49185654D01*
X86785654Y-48725864D01*
X86911132Y-48422932D01*
X87061712Y-48648291D01*
G36*
X96340000Y-44364250D02*
X96498750Y-44523000D01*
X97560500Y-44523000D01*
X97560500Y-44503000D01*
X97814500Y-44503000D01*
X97814500Y-44523000D01*
X98876250Y-44523000D01*
X99035000Y-44364250D01*
X99035000Y-43935000D01*
X106665000Y-43935000D01*
X106665000Y-46605392D01*
X106622556Y-46647836D01*
X106523958Y-46381035D01*
X105914418Y-46154599D01*
X105264623Y-46178659D01*
X104776042Y-46381035D01*
X104677443Y-46647837D01*
X105650000Y-47620395D01*
X105664142Y-47606252D01*
X105843748Y-47785858D01*
X105829605Y-47800000D01*
X105843748Y-47814143D01*
X105664142Y-47993748D01*
X105650000Y-47979605D01*
X104677443Y-48952163D01*
X104776042Y-49218965D01*
X105385582Y-49445401D01*
X106035377Y-49421341D01*
X106523958Y-49218965D01*
X106622556Y-48952164D01*
X106665000Y-48994608D01*
X106665001Y-49966155D01*
X106649490Y-49963070D01*
X104650510Y-49963070D01*
X104402745Y-50012353D01*
X104317440Y-50069352D01*
X104317440Y-50050000D01*
X104268157Y-49802235D01*
X104127809Y-49592191D01*
X103989836Y-49500000D01*
X104127809Y-49407809D01*
X104268157Y-49197765D01*
X104317440Y-48950000D01*
X104317440Y-48850611D01*
X104344256Y-48715800D01*
X104497837Y-48772557D01*
X105470395Y-47800000D01*
X104497837Y-46827443D01*
X104231035Y-46926042D01*
X104004599Y-47535582D01*
X104007419Y-47611748D01*
X103917765Y-47551843D01*
X103742017Y-47516885D01*
X102011612Y-45786481D01*
X101948288Y-45691710D01*
X101572854Y-45440853D01*
X101241782Y-45374999D01*
X101129999Y-45352764D01*
X101018216Y-45374999D01*
X99035000Y-45374999D01*
X99035000Y-44935750D01*
X98876250Y-44777000D01*
X97814500Y-44777000D01*
X97814500Y-44797000D01*
X97560500Y-44797000D01*
X97560500Y-44777000D01*
X96498750Y-44777000D01*
X96340000Y-44935750D01*
X96340000Y-45374999D01*
X96052549Y-45374999D01*
X96072440Y-45275000D01*
X96072440Y-44025000D01*
X96054538Y-43935000D01*
X96340000Y-43935000D01*
X96340000Y-44364250D01*
X96340000Y-44364250D01*
G37*
X96340000Y-44364250D02*
X96498750Y-44523000D01*
X97560500Y-44523000D01*
X97560500Y-44503000D01*
X97814500Y-44503000D01*
X97814500Y-44523000D01*
X98876250Y-44523000D01*
X99035000Y-44364250D01*
X99035000Y-43935000D01*
X106665000Y-43935000D01*
X106665000Y-46605392D01*
X106622556Y-46647836D01*
X106523958Y-46381035D01*
X105914418Y-46154599D01*
X105264623Y-46178659D01*
X104776042Y-46381035D01*
X104677443Y-46647837D01*
X105650000Y-47620395D01*
X105664142Y-47606252D01*
X105843748Y-47785858D01*
X105829605Y-47800000D01*
X105843748Y-47814143D01*
X105664142Y-47993748D01*
X105650000Y-47979605D01*
X104677443Y-48952163D01*
X104776042Y-49218965D01*
X105385582Y-49445401D01*
X106035377Y-49421341D01*
X106523958Y-49218965D01*
X106622556Y-48952164D01*
X106665000Y-48994608D01*
X106665001Y-49966155D01*
X106649490Y-49963070D01*
X104650510Y-49963070D01*
X104402745Y-50012353D01*
X104317440Y-50069352D01*
X104317440Y-50050000D01*
X104268157Y-49802235D01*
X104127809Y-49592191D01*
X103989836Y-49500000D01*
X104127809Y-49407809D01*
X104268157Y-49197765D01*
X104317440Y-48950000D01*
X104317440Y-48850611D01*
X104344256Y-48715800D01*
X104497837Y-48772557D01*
X105470395Y-47800000D01*
X104497837Y-46827443D01*
X104231035Y-46926042D01*
X104004599Y-47535582D01*
X104007419Y-47611748D01*
X103917765Y-47551843D01*
X103742017Y-47516885D01*
X102011612Y-45786481D01*
X101948288Y-45691710D01*
X101572854Y-45440853D01*
X101241782Y-45374999D01*
X101129999Y-45352764D01*
X101018216Y-45374999D01*
X99035000Y-45374999D01*
X99035000Y-44935750D01*
X98876250Y-44777000D01*
X97814500Y-44777000D01*
X97814500Y-44797000D01*
X97560500Y-44797000D01*
X97560500Y-44777000D01*
X96498750Y-44777000D01*
X96340000Y-44935750D01*
X96340000Y-45374999D01*
X96052549Y-45374999D01*
X96072440Y-45275000D01*
X96072440Y-44025000D01*
X96054538Y-43935000D01*
X96340000Y-43935000D01*
X96340000Y-44364250D01*
D20*
G36*
X96459221Y-52597560D02*
X96245000Y-52597560D01*
X95901565Y-52665874D01*
X95610414Y-52860414D01*
X95415874Y-53151565D01*
X95347560Y-53495000D01*
X95347560Y-54745000D01*
X95415874Y-55088435D01*
X95610414Y-55379586D01*
X95901565Y-55574126D01*
X96245000Y-55642440D01*
X97170000Y-55642440D01*
X97513435Y-55574126D01*
X97804586Y-55379586D01*
X97887831Y-55255000D01*
X101628217Y-55255000D01*
X101740000Y-55277235D01*
X101851783Y-55255000D01*
X102182855Y-55189146D01*
X102558289Y-54938289D01*
X102621613Y-54843518D01*
X103943521Y-53521611D01*
X104038289Y-53458289D01*
X104266563Y-53116653D01*
X104402745Y-53207647D01*
X104650510Y-53256930D01*
X106649490Y-53256930D01*
X106665001Y-53253845D01*
X106665001Y-55765000D01*
X91399060Y-55765000D01*
X91768289Y-55518289D01*
X91831613Y-55423518D01*
X92000131Y-55255000D01*
X92552169Y-55255000D01*
X92635414Y-55379586D01*
X92926565Y-55574126D01*
X93270000Y-55642440D01*
X94195000Y-55642440D01*
X94538435Y-55574126D01*
X94829586Y-55379586D01*
X95024126Y-55088435D01*
X95092440Y-54745000D01*
X95092440Y-53495000D01*
X95024126Y-53151565D01*
X94829586Y-52860414D01*
X94540779Y-52667440D01*
X95425000Y-52667440D01*
X95768435Y-52599126D01*
X96002843Y-52442500D01*
X96227157Y-52442500D01*
X96459221Y-52597560D01*
X96459221Y-52597560D01*
G37*
X96459221Y-52597560D02*
X96245000Y-52597560D01*
X95901565Y-52665874D01*
X95610414Y-52860414D01*
X95415874Y-53151565D01*
X95347560Y-53495000D01*
X95347560Y-54745000D01*
X95415874Y-55088435D01*
X95610414Y-55379586D01*
X95901565Y-55574126D01*
X96245000Y-55642440D01*
X97170000Y-55642440D01*
X97513435Y-55574126D01*
X97804586Y-55379586D01*
X97887831Y-55255000D01*
X101628217Y-55255000D01*
X101740000Y-55277235D01*
X101851783Y-55255000D01*
X102182855Y-55189146D01*
X102558289Y-54938289D01*
X102621613Y-54843518D01*
X103943521Y-53521611D01*
X104038289Y-53458289D01*
X104266563Y-53116653D01*
X104402745Y-53207647D01*
X104650510Y-53256930D01*
X106649490Y-53256930D01*
X106665001Y-53253845D01*
X106665001Y-55765000D01*
X91399060Y-55765000D01*
X91768289Y-55518289D01*
X91831613Y-55423518D01*
X92000131Y-55255000D01*
X92552169Y-55255000D01*
X92635414Y-55379586D01*
X92926565Y-55574126D01*
X93270000Y-55642440D01*
X94195000Y-55642440D01*
X94538435Y-55574126D01*
X94829586Y-55379586D01*
X95024126Y-55088435D01*
X95092440Y-54745000D01*
X95092440Y-53495000D01*
X95024126Y-53151565D01*
X94829586Y-52860414D01*
X94540779Y-52667440D01*
X95425000Y-52667440D01*
X95768435Y-52599126D01*
X96002843Y-52442500D01*
X96227157Y-52442500D01*
X96459221Y-52597560D01*
G36*
X84152745Y-53207647D02*
X84265001Y-53229976D01*
X84265001Y-53497702D01*
X84242765Y-53609490D01*
X84330854Y-54052344D01*
X84330855Y-54052345D01*
X84581712Y-54427779D01*
X84676479Y-54491101D01*
X85448605Y-55263227D01*
X85561711Y-55432502D01*
X85613136Y-55466863D01*
X85647498Y-55518289D01*
X86016727Y-55765000D01*
X84135000Y-55765000D01*
X84135000Y-53195790D01*
X84152745Y-53207647D01*
X84152745Y-53207647D01*
G37*
X84152745Y-53207647D02*
X84265001Y-53229976D01*
X84265001Y-53497702D01*
X84242765Y-53609490D01*
X84330854Y-54052344D01*
X84330855Y-54052345D01*
X84581712Y-54427779D01*
X84676479Y-54491101D01*
X85448605Y-55263227D01*
X85561711Y-55432502D01*
X85613136Y-55466863D01*
X85647498Y-55518289D01*
X86016727Y-55765000D01*
X84135000Y-55765000D01*
X84135000Y-53195790D01*
X84152745Y-53207647D01*
G36*
X87061712Y-48648291D02*
X87156479Y-48711613D01*
X89188387Y-50743522D01*
X89251708Y-50838288D01*
X89627142Y-51089145D01*
X89857662Y-51134998D01*
X89775000Y-51334561D01*
X89775000Y-51905439D01*
X89993466Y-52432862D01*
X90397138Y-52836534D01*
X90924561Y-53055000D01*
X91080940Y-53055000D01*
X90711711Y-53301711D01*
X90648387Y-53396482D01*
X90479869Y-53565000D01*
X89057239Y-53565000D01*
X88806153Y-53313914D01*
X88205222Y-53065000D01*
X87554778Y-53065000D01*
X86953847Y-53313914D01*
X86831701Y-53436060D01*
X86610583Y-53214941D01*
X86647255Y-53207647D01*
X86857299Y-53067299D01*
X86997647Y-52857255D01*
X87046930Y-52609490D01*
X87046930Y-50610510D01*
X86997647Y-50362745D01*
X86857299Y-50152701D01*
X86647255Y-50012353D01*
X86399490Y-49963070D01*
X84400510Y-49963070D01*
X84152745Y-50012353D01*
X84135000Y-50024210D01*
X84135000Y-48846518D01*
X84474136Y-49185654D01*
X85074880Y-49434490D01*
X85725120Y-49434490D01*
X86325864Y-49185654D01*
X86785654Y-48725864D01*
X86911132Y-48422932D01*
X87061712Y-48648291D01*
X87061712Y-48648291D01*
G37*
X87061712Y-48648291D02*
X87156479Y-48711613D01*
X89188387Y-50743522D01*
X89251708Y-50838288D01*
X89627142Y-51089145D01*
X89857662Y-51134998D01*
X89775000Y-51334561D01*
X89775000Y-51905439D01*
X89993466Y-52432862D01*
X90397138Y-52836534D01*
X90924561Y-53055000D01*
X91080940Y-53055000D01*
X90711711Y-53301711D01*
X90648387Y-53396482D01*
X90479869Y-53565000D01*
X89057239Y-53565000D01*
X88806153Y-53313914D01*
X88205222Y-53065000D01*
X87554778Y-53065000D01*
X86953847Y-53313914D01*
X86831701Y-53436060D01*
X86610583Y-53214941D01*
X86647255Y-53207647D01*
X86857299Y-53067299D01*
X86997647Y-52857255D01*
X87046930Y-52609490D01*
X87046930Y-50610510D01*
X86997647Y-50362745D01*
X86857299Y-50152701D01*
X86647255Y-50012353D01*
X86399490Y-49963070D01*
X84400510Y-49963070D01*
X84152745Y-50012353D01*
X84135000Y-50024210D01*
X84135000Y-48846518D01*
X84474136Y-49185654D01*
X85074880Y-49434490D01*
X85725120Y-49434490D01*
X86325864Y-49185654D01*
X86785654Y-48725864D01*
X86911132Y-48422932D01*
X87061712Y-48648291D01*
G36*
X92822647Y-52376646D02*
X93153719Y-52442500D01*
X93265501Y-52464735D01*
X93377283Y-52442500D01*
X93597157Y-52442500D01*
X93829221Y-52597560D01*
X93270000Y-52597560D01*
X92926565Y-52665874D01*
X92635414Y-52860414D01*
X92552169Y-52985000D01*
X91664434Y-52985000D01*
X92022862Y-52836534D01*
X92426534Y-52432862D01*
X92530638Y-52181532D01*
X92822647Y-52376646D01*
X92822647Y-52376646D01*
G37*
X92822647Y-52376646D02*
X93153719Y-52442500D01*
X93265501Y-52464735D01*
X93377283Y-52442500D01*
X93597157Y-52442500D01*
X93829221Y-52597560D01*
X93270000Y-52597560D01*
X92926565Y-52665874D01*
X92635414Y-52860414D01*
X92552169Y-52985000D01*
X91664434Y-52985000D01*
X92022862Y-52836534D01*
X92426534Y-52432862D01*
X92530638Y-52181532D01*
X92822647Y-52376646D01*
G36*
X98401843Y-52657765D02*
X98542191Y-52867809D01*
X98717578Y-52985000D01*
X97887831Y-52985000D01*
X97804586Y-52860414D01*
X97515779Y-52667440D01*
X98055000Y-52667440D01*
X98390493Y-52600706D01*
X98401843Y-52657765D01*
X98401843Y-52657765D01*
G37*
X98401843Y-52657765D02*
X98542191Y-52867809D01*
X98717578Y-52985000D01*
X97887831Y-52985000D01*
X97804586Y-52860414D01*
X97515779Y-52667440D01*
X98055000Y-52667440D01*
X98390493Y-52600706D01*
X98401843Y-52657765D01*
G36*
X102085000Y-52169868D02*
X101269869Y-52985000D01*
X100882422Y-52985000D01*
X101057809Y-52867809D01*
X101198157Y-52657765D01*
X101247440Y-52410000D01*
X101247440Y-50810000D01*
X101216024Y-50652059D01*
X101301783Y-50635000D01*
X101331783Y-50635000D01*
X101662855Y-50569146D01*
X101706081Y-50540263D01*
X101917765Y-50498157D01*
X102085001Y-50386413D01*
X102085000Y-52169868D01*
X102085000Y-52169868D01*
G37*
X102085000Y-52169868D02*
X101269869Y-52985000D01*
X100882422Y-52985000D01*
X101057809Y-52867809D01*
X101198157Y-52657765D01*
X101247440Y-52410000D01*
X101247440Y-50810000D01*
X101216024Y-50652059D01*
X101301783Y-50635000D01*
X101331783Y-50635000D01*
X101662855Y-50569146D01*
X101706081Y-50540263D01*
X101917765Y-50498157D01*
X102085001Y-50386413D01*
X102085000Y-52169868D01*
G36*
X96170414Y-49429586D02*
X96461565Y-49624126D01*
X96805000Y-49692440D01*
X98055000Y-49692440D01*
X98398435Y-49624126D01*
X98632843Y-49467500D01*
X99327460Y-49467500D01*
X99514561Y-49545000D01*
X99629869Y-49545000D01*
X100156749Y-50071881D01*
X100171843Y-50147765D01*
X100181729Y-50162560D01*
X99000000Y-50162560D01*
X98752235Y-50211843D01*
X98709583Y-50240342D01*
X98689586Y-50210414D01*
X98398435Y-50015874D01*
X98055000Y-49947560D01*
X96805000Y-49947560D01*
X96461565Y-50015874D01*
X96227157Y-50172500D01*
X96002843Y-50172500D01*
X95768435Y-50015874D01*
X95425000Y-49947560D01*
X94175000Y-49947560D01*
X93831565Y-50015874D01*
X93680168Y-50117034D01*
X93035579Y-49472445D01*
X93122500Y-49489735D01*
X93234283Y-49467500D01*
X93597157Y-49467500D01*
X93831565Y-49624126D01*
X94175000Y-49692440D01*
X95425000Y-49692440D01*
X95768435Y-49624126D01*
X96059586Y-49429586D01*
X96115000Y-49346653D01*
X96170414Y-49429586D01*
X96170414Y-49429586D01*
G37*
X96170414Y-49429586D02*
X96461565Y-49624126D01*
X96805000Y-49692440D01*
X98055000Y-49692440D01*
X98398435Y-49624126D01*
X98632843Y-49467500D01*
X99327460Y-49467500D01*
X99514561Y-49545000D01*
X99629869Y-49545000D01*
X100156749Y-50071881D01*
X100171843Y-50147765D01*
X100181729Y-50162560D01*
X99000000Y-50162560D01*
X98752235Y-50211843D01*
X98709583Y-50240342D01*
X98689586Y-50210414D01*
X98398435Y-50015874D01*
X98055000Y-49947560D01*
X96805000Y-49947560D01*
X96461565Y-50015874D01*
X96227157Y-50172500D01*
X96002843Y-50172500D01*
X95768435Y-50015874D01*
X95425000Y-49947560D01*
X94175000Y-49947560D01*
X93831565Y-50015874D01*
X93680168Y-50117034D01*
X93035579Y-49472445D01*
X93122500Y-49489735D01*
X93234283Y-49467500D01*
X93597157Y-49467500D01*
X93831565Y-49624126D01*
X94175000Y-49692440D01*
X95425000Y-49692440D01*
X95768435Y-49624126D01*
X96059586Y-49429586D01*
X96115000Y-49346653D01*
X96170414Y-49429586D01*
G36*
X104724136Y-49185654D02*
X105324880Y-49434490D01*
X105975120Y-49434490D01*
X106575864Y-49185654D01*
X106665000Y-49096518D01*
X106665001Y-49966155D01*
X106649490Y-49963070D01*
X104650510Y-49963070D01*
X104402745Y-50012353D01*
X104317440Y-50069352D01*
X104317440Y-50050000D01*
X104268157Y-49802235D01*
X104127809Y-49592191D01*
X103989836Y-49500000D01*
X104127809Y-49407809D01*
X104268157Y-49197765D01*
X104317440Y-48950000D01*
X104317440Y-48850611D01*
X104329328Y-48790846D01*
X104724136Y-49185654D01*
X104724136Y-49185654D01*
G37*
X104724136Y-49185654D02*
X105324880Y-49434490D01*
X105975120Y-49434490D01*
X106575864Y-49185654D01*
X106665000Y-49096518D01*
X106665001Y-49966155D01*
X106649490Y-49963070D01*
X104650510Y-49963070D01*
X104402745Y-50012353D01*
X104317440Y-50069352D01*
X104317440Y-50050000D01*
X104268157Y-49802235D01*
X104127809Y-49592191D01*
X103989836Y-49500000D01*
X104127809Y-49407809D01*
X104268157Y-49197765D01*
X104317440Y-48950000D01*
X104317440Y-48850611D01*
X104329328Y-48790846D01*
X104724136Y-49185654D01*
G36*
X102450164Y-49500000D02*
X102366056Y-49556199D01*
X102377235Y-49500000D01*
X102366056Y-49443801D01*
X102450164Y-49500000D01*
X102450164Y-49500000D01*
G37*
X102450164Y-49500000D02*
X102366056Y-49556199D01*
X102377235Y-49500000D01*
X102366056Y-49443801D01*
X102450164Y-49500000D01*
G36*
X93352560Y-44025000D02*
X93352560Y-45275000D01*
X93420874Y-45618435D01*
X93615414Y-45909586D01*
X93665000Y-45942718D01*
X93665000Y-46458216D01*
X93642765Y-46570000D01*
X93665000Y-46681782D01*
X93665000Y-47152169D01*
X93634741Y-47172387D01*
X93452855Y-47050854D01*
X93121783Y-46985000D01*
X93010000Y-46962765D01*
X92898217Y-46985000D01*
X92549868Y-46985000D01*
X92467809Y-46862191D01*
X92257765Y-46721843D01*
X92010000Y-46672560D01*
X90410000Y-46672560D01*
X90162235Y-46721843D01*
X89952191Y-46862191D01*
X89811843Y-47072235D01*
X89762560Y-47320000D01*
X89762560Y-48107430D01*
X89015000Y-47359871D01*
X89015000Y-46237239D01*
X89266086Y-45986153D01*
X89515000Y-45385222D01*
X89515000Y-44734778D01*
X89266086Y-44133847D01*
X89067239Y-43935000D01*
X93370462Y-43935000D01*
X93352560Y-44025000D01*
X93352560Y-44025000D01*
G37*
X93352560Y-44025000D02*
X93352560Y-45275000D01*
X93420874Y-45618435D01*
X93615414Y-45909586D01*
X93665000Y-45942718D01*
X93665000Y-46458216D01*
X93642765Y-46570000D01*
X93665000Y-46681782D01*
X93665000Y-47152169D01*
X93634741Y-47172387D01*
X93452855Y-47050854D01*
X93121783Y-46985000D01*
X93010000Y-46962765D01*
X92898217Y-46985000D01*
X92549868Y-46985000D01*
X92467809Y-46862191D01*
X92257765Y-46721843D01*
X92010000Y-46672560D01*
X90410000Y-46672560D01*
X90162235Y-46721843D01*
X89952191Y-46862191D01*
X89811843Y-47072235D01*
X89762560Y-47320000D01*
X89762560Y-48107430D01*
X89015000Y-47359871D01*
X89015000Y-46237239D01*
X89266086Y-45986153D01*
X89515000Y-45385222D01*
X89515000Y-44734778D01*
X89266086Y-44133847D01*
X89067239Y-43935000D01*
X93370462Y-43935000D01*
X93352560Y-44025000D01*
G36*
X103766654Y-47521785D02*
X103742017Y-47516885D01*
X102011612Y-45786481D01*
X102010622Y-45785000D01*
X102029869Y-45785000D01*
X103766654Y-47521785D01*
X103766654Y-47521785D01*
G37*
X103766654Y-47521785D02*
X103742017Y-47516885D01*
X102011612Y-45786481D01*
X102010622Y-45785000D01*
X102029869Y-45785000D01*
X103766654Y-47521785D01*
G36*
X86493914Y-44133847D02*
X86245000Y-44734778D01*
X86245000Y-45385222D01*
X86493914Y-45986153D01*
X86745000Y-46237239D01*
X86745001Y-46833483D01*
X86325864Y-46414346D01*
X85725120Y-46165510D01*
X85074880Y-46165510D01*
X84474136Y-46414346D01*
X84135000Y-46753482D01*
X84135000Y-43935000D01*
X86692761Y-43935000D01*
X86493914Y-44133847D01*
X86493914Y-44133847D01*
G37*
X86493914Y-44133847D02*
X86245000Y-44734778D01*
X86245000Y-45385222D01*
X86493914Y-45986153D01*
X86745000Y-46237239D01*
X86745001Y-46833483D01*
X86325864Y-46414346D01*
X85725120Y-46165510D01*
X85074880Y-46165510D01*
X84474136Y-46414346D01*
X84135000Y-46753482D01*
X84135000Y-43935000D01*
X86692761Y-43935000D01*
X86493914Y-44133847D01*
G36*
X106665000Y-46503482D02*
X106575864Y-46414346D01*
X105975120Y-46165510D01*
X105620642Y-46165510D01*
X103390131Y-43935000D01*
X106665000Y-43935000D01*
X106665000Y-46503482D01*
X106665000Y-46503482D01*
G37*
X106665000Y-46503482D02*
X106575864Y-46414346D01*
X105975120Y-46165510D01*
X105620642Y-46165510D01*
X103390131Y-43935000D01*
X106665000Y-43935000D01*
X106665000Y-46503482D01*
G36*
X96327560Y-44025000D02*
X96327560Y-45275000D01*
X96347451Y-45374999D01*
X96052549Y-45374999D01*
X96072440Y-45275000D01*
X96072440Y-44025000D01*
X96054538Y-43935000D01*
X96345462Y-43935000D01*
X96327560Y-44025000D01*
X96327560Y-44025000D01*
G37*
X96327560Y-44025000D02*
X96327560Y-45275000D01*
X96347451Y-45374999D01*
X96052549Y-45374999D01*
X96072440Y-45275000D01*
X96072440Y-44025000D01*
X96054538Y-43935000D01*
X96345462Y-43935000D01*
X96327560Y-44025000D01*
G04 #@! TD*
M02*
