G04 #@! TF.GenerationSoftware,KiCad,Pcbnew,(5.0.1)-3*
G04 #@! TF.CreationDate,2020-05-06T09:10:13+03:00*
G04 #@! TF.ProjectId,VienaTranPastiprinatajs,5669656E615472616E50617374697072,rev?*
G04 #@! TF.SameCoordinates,Original*
G04 #@! TF.FileFunction,Soldermask,Top*
G04 #@! TF.FilePolarity,Negative*
%FSLAX46Y46*%
G04 Gerber Fmt 4.6, Leading zero omitted, Abs format (unit mm)*
G04 Created by KiCad (PCBNEW (5.0.1)-3) date 06-May-20 9:10:13 AM*
%MOMM*%
%LPD*%
G01*
G04 APERTURE LIST*
%ADD10C,0.100000*%
G04 APERTURE END LIST*
D10*
G36*
X88186565Y-53689389D02*
X88377834Y-53768615D01*
X88549976Y-53883637D01*
X88696363Y-54030024D01*
X88811385Y-54202166D01*
X88890611Y-54393435D01*
X88931000Y-54596484D01*
X88931000Y-54803516D01*
X88890611Y-55006565D01*
X88811385Y-55197834D01*
X88696363Y-55369976D01*
X88549976Y-55516363D01*
X88377834Y-55631385D01*
X88186565Y-55710611D01*
X87983516Y-55751000D01*
X87776484Y-55751000D01*
X87573435Y-55710611D01*
X87382166Y-55631385D01*
X87210024Y-55516363D01*
X87063637Y-55369976D01*
X86948615Y-55197834D01*
X86869389Y-55006565D01*
X86829000Y-54803516D01*
X86829000Y-54596484D01*
X86869389Y-54393435D01*
X86948615Y-54202166D01*
X87063637Y-54030024D01*
X87210024Y-53883637D01*
X87382166Y-53768615D01*
X87573435Y-53689389D01*
X87776484Y-53649000D01*
X87983516Y-53649000D01*
X88186565Y-53689389D01*
X88186565Y-53689389D01*
G37*
G36*
X106700490Y-52660490D02*
X104599510Y-52660490D01*
X104599510Y-50559510D01*
X106700490Y-50559510D01*
X106700490Y-52660490D01*
X106700490Y-52660490D01*
G37*
G36*
X86450490Y-52660490D02*
X84349510Y-52660490D01*
X84349510Y-50559510D01*
X86450490Y-50559510D01*
X86450490Y-52660490D01*
X86450490Y-52660490D01*
G37*
G36*
X91458228Y-50801703D02*
X91613100Y-50865853D01*
X91752481Y-50958985D01*
X91871015Y-51077519D01*
X91964147Y-51216900D01*
X92028297Y-51371772D01*
X92061000Y-51536184D01*
X92061000Y-51703816D01*
X92028297Y-51868228D01*
X91964147Y-52023100D01*
X91871015Y-52162481D01*
X91752481Y-52281015D01*
X91613100Y-52374147D01*
X91458228Y-52438297D01*
X91293816Y-52471000D01*
X91126184Y-52471000D01*
X90961772Y-52438297D01*
X90806900Y-52374147D01*
X90667519Y-52281015D01*
X90548985Y-52162481D01*
X90455853Y-52023100D01*
X90391703Y-51868228D01*
X90359000Y-51703816D01*
X90359000Y-51536184D01*
X90391703Y-51371772D01*
X90455853Y-51216900D01*
X90548985Y-51077519D01*
X90667519Y-50958985D01*
X90806900Y-50865853D01*
X90961772Y-50801703D01*
X91126184Y-50769000D01*
X91293816Y-50769000D01*
X91458228Y-50801703D01*
X91458228Y-50801703D01*
G37*
G36*
X100651000Y-52461000D02*
X98949000Y-52461000D01*
X98949000Y-50759000D01*
X100651000Y-50759000D01*
X100651000Y-52461000D01*
X100651000Y-52461000D01*
G37*
G36*
X92061000Y-48971000D02*
X90359000Y-48971000D01*
X90359000Y-47269000D01*
X92061000Y-47269000D01*
X92061000Y-48971000D01*
X92061000Y-48971000D01*
G37*
G36*
X100048228Y-47291703D02*
X100203100Y-47355853D01*
X100342481Y-47448985D01*
X100461015Y-47567519D01*
X100554147Y-47706900D01*
X100618297Y-47861772D01*
X100651000Y-48026184D01*
X100651000Y-48193816D01*
X100618297Y-48358228D01*
X100554147Y-48513100D01*
X100461015Y-48652481D01*
X100342481Y-48771015D01*
X100203100Y-48864147D01*
X100048228Y-48928297D01*
X99883816Y-48961000D01*
X99716184Y-48961000D01*
X99551772Y-48928297D01*
X99396900Y-48864147D01*
X99257519Y-48771015D01*
X99138985Y-48652481D01*
X99045853Y-48513100D01*
X98981703Y-48358228D01*
X98949000Y-48193816D01*
X98949000Y-48026184D01*
X98981703Y-47861772D01*
X99045853Y-47706900D01*
X99138985Y-47567519D01*
X99257519Y-47448985D01*
X99396900Y-47355853D01*
X99551772Y-47291703D01*
X99716184Y-47259000D01*
X99883816Y-47259000D01*
X100048228Y-47291703D01*
X100048228Y-47291703D01*
G37*
G36*
X105956414Y-46789879D02*
X105956416Y-46789880D01*
X105956417Y-46789880D01*
X106147594Y-46869068D01*
X106319651Y-46984033D01*
X106465967Y-47130349D01*
X106580932Y-47302406D01*
X106660121Y-47493586D01*
X106700490Y-47696534D01*
X106700490Y-47903466D01*
X106660121Y-48106414D01*
X106580932Y-48297594D01*
X106465967Y-48469651D01*
X106319651Y-48615967D01*
X106319648Y-48615969D01*
X106147594Y-48730932D01*
X105956417Y-48810120D01*
X105956416Y-48810120D01*
X105956414Y-48810121D01*
X105753466Y-48850490D01*
X105546534Y-48850490D01*
X105343586Y-48810121D01*
X105343584Y-48810120D01*
X105343583Y-48810120D01*
X105152406Y-48730932D01*
X104980352Y-48615969D01*
X104980349Y-48615967D01*
X104834033Y-48469651D01*
X104719068Y-48297594D01*
X104639879Y-48106414D01*
X104599510Y-47903466D01*
X104599510Y-47696534D01*
X104639879Y-47493586D01*
X104719068Y-47302406D01*
X104834033Y-47130349D01*
X104980349Y-46984033D01*
X105152406Y-46869068D01*
X105343583Y-46789880D01*
X105343584Y-46789880D01*
X105343586Y-46789879D01*
X105546534Y-46749510D01*
X105753466Y-46749510D01*
X105956414Y-46789879D01*
X105956414Y-46789879D01*
G37*
G36*
X85706414Y-46789879D02*
X85706416Y-46789880D01*
X85706417Y-46789880D01*
X85897594Y-46869068D01*
X86069651Y-46984033D01*
X86215967Y-47130349D01*
X86330932Y-47302406D01*
X86410121Y-47493586D01*
X86450490Y-47696534D01*
X86450490Y-47903466D01*
X86410121Y-48106414D01*
X86330932Y-48297594D01*
X86215967Y-48469651D01*
X86069651Y-48615967D01*
X86069648Y-48615969D01*
X85897594Y-48730932D01*
X85706417Y-48810120D01*
X85706416Y-48810120D01*
X85706414Y-48810121D01*
X85503466Y-48850490D01*
X85296534Y-48850490D01*
X85093586Y-48810121D01*
X85093584Y-48810120D01*
X85093583Y-48810120D01*
X84902406Y-48730932D01*
X84730352Y-48615969D01*
X84730349Y-48615967D01*
X84584033Y-48469651D01*
X84469068Y-48297594D01*
X84389879Y-48106414D01*
X84349510Y-47903466D01*
X84349510Y-47696534D01*
X84389879Y-47493586D01*
X84469068Y-47302406D01*
X84584033Y-47130349D01*
X84730349Y-46984033D01*
X84902406Y-46869068D01*
X85093583Y-46789880D01*
X85093584Y-46789880D01*
X85093586Y-46789879D01*
X85296534Y-46749510D01*
X85503466Y-46749510D01*
X85706414Y-46789879D01*
X85706414Y-46789879D01*
G37*
G36*
X88186565Y-44049389D02*
X88377834Y-44128615D01*
X88549976Y-44243637D01*
X88696363Y-44390024D01*
X88811385Y-44562166D01*
X88890611Y-44753435D01*
X88931000Y-44956484D01*
X88931000Y-45163516D01*
X88890611Y-45366565D01*
X88811385Y-45557834D01*
X88696363Y-45729976D01*
X88549976Y-45876363D01*
X88377834Y-45991385D01*
X88186565Y-46070611D01*
X87983516Y-46111000D01*
X87776484Y-46111000D01*
X87573435Y-46070611D01*
X87382166Y-45991385D01*
X87210024Y-45876363D01*
X87063637Y-45729976D01*
X86948615Y-45557834D01*
X86869389Y-45366565D01*
X86829000Y-45163516D01*
X86829000Y-44956484D01*
X86869389Y-44753435D01*
X86948615Y-44562166D01*
X87063637Y-44390024D01*
X87210024Y-44243637D01*
X87382166Y-44128615D01*
X87573435Y-44049389D01*
X87776484Y-44009000D01*
X87983516Y-44009000D01*
X88186565Y-44049389D01*
X88186565Y-44049389D01*
G37*
M02*
