<?xml version="1.0" standalone="no"?>
 <!DOCTYPE svg PUBLIC "-//W3C//DTD SVG 1.1//EN" 
 "http://www.w3.org/Graphics/SVG/1.1/DTD/svg11.dtd"> 
<svg xmlns="http://www.w3.org/2000/svg" version="1.1" 
    width="29.7002cm" height="21.0007cm" viewBox="0 0 116930 82680 ">
<title>SVG Picture created as VienaTranPastiprinatajs-B.Cu.svg date 2020/05/13 08:37:59 </title>
  <desc>Picture generated by PCBNEW </desc>
<g style="fill:#000000; fill-opacity:1;stroke:#000000; stroke-opacity:1;
stroke-linecap:round; stroke-linejoin:round; "
 transform="translate(0 0) scale(1 1)">
</g>
<g style="fill:#000000; fill-opacity:0.0; 
stroke:#000000; stroke-width:-0.000393701; stroke-opacity:1; 
stroke-linecap:round; stroke-linejoin:round;">
</g>
<g style="fill:#000000; fill-opacity:0.0; 
stroke:#000000; stroke-width:39.3701; stroke-opacity:1; 
stroke-linecap:round; stroke-linejoin:round;">
</g>
<g style="fill:#000000; fill-opacity:0.0; 
stroke:#000000; stroke-width:59.0551; stroke-opacity:1; 
stroke-linecap:round; stroke-linejoin:round;">
<rect x="69685.9" y="65357.2" width="42519.7" height="12598.4" rx="0" />
</g>
<g style="fill:#000000; fill-opacity:0.0; 
stroke:#000000; stroke-width:39.3701; stroke-opacity:1; 
stroke-linecap:round; stroke-linejoin:round;">
</g>
<g style="fill:#000000; fill-opacity:0.0; 
stroke:#000000; stroke-width:59.0551; stroke-opacity:1; 
stroke-linecap:round; stroke-linejoin:round;">
<rect x="3937.01" y="3937.01" width="109056" height="74806" rx="0" />
</g>
<g style="fill:#000000; fill-opacity:0.0; 
stroke:#000000; stroke-width:39.3701; stroke-opacity:1; 
stroke-linecap:round; stroke-linejoin:round;">
</g>
<g style="fill:#000000; fill-opacity:0.0; 
stroke:#000000; stroke-width:59.0551; stroke-opacity:1; 
stroke-linecap:round; stroke-linejoin:round;">
<rect x="4724.41" y="4724.41" width="107481" height="73231.2" rx="0" />
</g>
<g style="fill:#000000; fill-opacity:0.0; 
stroke:#000000; stroke-width:39.3701; stroke-opacity:1; 
stroke-linecap:round; stroke-linejoin:round;">
</g>
<g style="fill:#000000; fill-opacity:0.0; 
stroke:#000000; stroke-width:59.0551; stroke-opacity:1; 
stroke-linecap:round; stroke-linejoin:round;">
<path d="M23622 4724
L23622 3937
" />
</g>
<g style="fill:#000000; fill-opacity:0.0; 
stroke:#000000; stroke-width:39.3701; stroke-opacity:1; 
stroke-linecap:round; stroke-linejoin:round;">
</g>
<g style="fill:#000000; fill-opacity:0.0; 
stroke:#000000; stroke-width:59.0551; stroke-opacity:1; 
stroke-linecap:round; stroke-linejoin:round;">
<path d="M43307 4724
L43307 3937
" />
</g>
<g style="fill:#000000; fill-opacity:0.0; 
stroke:#000000; stroke-width:39.3701; stroke-opacity:1; 
stroke-linecap:round; stroke-linejoin:round;">
</g>
<g style="fill:#000000; fill-opacity:0.0; 
stroke:#000000; stroke-width:59.0551; stroke-opacity:1; 
stroke-linecap:round; stroke-linejoin:round;">
<path d="M62992 4724
L62992 3937
" />
</g>
<g style="fill:#000000; fill-opacity:0.0; 
stroke:#000000; stroke-width:39.3701; stroke-opacity:1; 
stroke-linecap:round; stroke-linejoin:round;">
</g>
<g style="fill:#000000; fill-opacity:0.0; 
stroke:#000000; stroke-width:59.0551; stroke-opacity:1; 
stroke-linecap:round; stroke-linejoin:round;">
<path d="M82677 4724
L82677 3937
" />
</g>
<g style="fill:#000000; fill-opacity:0.0; 
stroke:#000000; stroke-width:39.3701; stroke-opacity:1; 
stroke-linecap:round; stroke-linejoin:round;">
</g>
<g style="fill:#000000; fill-opacity:0.0; 
stroke:#000000; stroke-width:59.0551; stroke-opacity:1; 
stroke-linecap:round; stroke-linejoin:round;">
<path d="M102362 4724
L102362 3937
" />
</g>
<g style="fill:#000000; fill-opacity:0.0; 
stroke:#000000; stroke-width:39.3701; stroke-opacity:1; 
stroke-linecap:round; stroke-linejoin:round;">
</g>
<g style="fill:#000000; fill-opacity:0.0; 
stroke:#000000; stroke-width:59.0551; stroke-opacity:1; 
stroke-linecap:round; stroke-linejoin:round;">
<path d="M14199 4562
L13906 4562
" />
<path d="M14052 4562
L14052 4050
L14004 4123
L13955 4172
L13906 4196
" />
</g>
<g style="fill:#000000; fill-opacity:0.0; 
stroke:#000000; stroke-width:39.3701; stroke-opacity:1; 
stroke-linecap:round; stroke-linejoin:round;">
</g>
<g style="fill:#000000; fill-opacity:0.0; 
stroke:#000000; stroke-width:59.0551; stroke-opacity:1; 
stroke-linecap:round; stroke-linejoin:round;">
<path d="M33591 4099
L33615 4074
L33664 4050
L33786 4050
L33835 4074
L33859 4099
L33884 4147
L33884 4196
L33859 4269
L33567 4562
L33884 4562
" />
</g>
<g style="fill:#000000; fill-opacity:0.0; 
stroke:#000000; stroke-width:39.3701; stroke-opacity:1; 
stroke-linecap:round; stroke-linejoin:round;">
</g>
<g style="fill:#000000; fill-opacity:0.0; 
stroke:#000000; stroke-width:59.0551; stroke-opacity:1; 
stroke-linecap:round; stroke-linejoin:round;">
<path d="M53252 4050
L53569 4050
L53398 4245
L53471 4245
L53520 4269
L53544 4294
L53569 4342
L53569 4464
L53544 4513
L53520 4537
L53471 4562
L53325 4562
L53276 4537
L53252 4513
" />
</g>
<g style="fill:#000000; fill-opacity:0.0; 
stroke:#000000; stroke-width:39.3701; stroke-opacity:1; 
stroke-linecap:round; stroke-linejoin:round;">
</g>
<g style="fill:#000000; fill-opacity:0.0; 
stroke:#000000; stroke-width:59.0551; stroke-opacity:1; 
stroke-linecap:round; stroke-linejoin:round;">
<path d="M73205 4221
L73205 4562
" />
<path d="M73083 4026
L72961 4391
L73278 4391
" />
</g>
<g style="fill:#000000; fill-opacity:0.0; 
stroke:#000000; stroke-width:39.3701; stroke-opacity:1; 
stroke-linecap:round; stroke-linejoin:round;">
</g>
<g style="fill:#000000; fill-opacity:0.0; 
stroke:#000000; stroke-width:59.0551; stroke-opacity:1; 
stroke-linecap:round; stroke-linejoin:round;">
<path d="M92914 4050
L92671 4050
L92646 4294
L92671 4269
L92719 4245
L92841 4245
L92890 4269
L92914 4294
L92939 4342
L92939 4464
L92914 4513
L92890 4537
L92841 4562
L92719 4562
L92671 4537
L92646 4513
" />
</g>
<g style="fill:#000000; fill-opacity:0.0; 
stroke:#000000; stroke-width:39.3701; stroke-opacity:1; 
stroke-linecap:round; stroke-linejoin:round;">
</g>
<g style="fill:#000000; fill-opacity:0.0; 
stroke:#000000; stroke-width:59.0551; stroke-opacity:1; 
stroke-linecap:round; stroke-linejoin:round;">
<path d="M112575 4050
L112477 4050
L112429 4074
L112404 4099
L112356 4172
L112331 4269
L112331 4464
L112356 4513
L112380 4537
L112429 4562
L112526 4562
L112575 4537
L112599 4513
L112624 4464
L112624 4342
L112599 4294
L112575 4269
L112526 4245
L112429 4245
L112380 4269
L112356 4294
L112331 4342
" />
</g>
<g style="fill:#000000; fill-opacity:0.0; 
stroke:#000000; stroke-width:39.3701; stroke-opacity:1; 
stroke-linecap:round; stroke-linejoin:round;">
</g>
<g style="fill:#000000; fill-opacity:0.0; 
stroke:#000000; stroke-width:59.0551; stroke-opacity:1; 
stroke-linecap:round; stroke-linejoin:round;">
<path d="M23622 77955
L23622 78742
" />
</g>
<g style="fill:#000000; fill-opacity:0.0; 
stroke:#000000; stroke-width:39.3701; stroke-opacity:1; 
stroke-linecap:round; stroke-linejoin:round;">
</g>
<g style="fill:#000000; fill-opacity:0.0; 
stroke:#000000; stroke-width:59.0551; stroke-opacity:1; 
stroke-linecap:round; stroke-linejoin:round;">
<path d="M43307 77955
L43307 78742
" />
</g>
<g style="fill:#000000; fill-opacity:0.0; 
stroke:#000000; stroke-width:39.3701; stroke-opacity:1; 
stroke-linecap:round; stroke-linejoin:round;">
</g>
<g style="fill:#000000; fill-opacity:0.0; 
stroke:#000000; stroke-width:59.0551; stroke-opacity:1; 
stroke-linecap:round; stroke-linejoin:round;">
<path d="M62992 77955
L62992 78742
" />
</g>
<g style="fill:#000000; fill-opacity:0.0; 
stroke:#000000; stroke-width:39.3701; stroke-opacity:1; 
stroke-linecap:round; stroke-linejoin:round;">
</g>
<g style="fill:#000000; fill-opacity:0.0; 
stroke:#000000; stroke-width:59.0551; stroke-opacity:1; 
stroke-linecap:round; stroke-linejoin:round;">
<path d="M82677 77955
L82677 78742
" />
</g>
<g style="fill:#000000; fill-opacity:0.0; 
stroke:#000000; stroke-width:39.3701; stroke-opacity:1; 
stroke-linecap:round; stroke-linejoin:round;">
</g>
<g style="fill:#000000; fill-opacity:0.0; 
stroke:#000000; stroke-width:59.0551; stroke-opacity:1; 
stroke-linecap:round; stroke-linejoin:round;">
<path d="M102362 77955
L102362 78742
" />
</g>
<g style="fill:#000000; fill-opacity:0.0; 
stroke:#000000; stroke-width:39.3701; stroke-opacity:1; 
stroke-linecap:round; stroke-linejoin:round;">
</g>
<g style="fill:#000000; fill-opacity:0.0; 
stroke:#000000; stroke-width:59.0551; stroke-opacity:1; 
stroke-linecap:round; stroke-linejoin:round;">
<path d="M14199 78580
L13906 78580
" />
<path d="M14052 78580
L14052 78069
L14004 78142
L13955 78190
L13906 78215
" />
</g>
<g style="fill:#000000; fill-opacity:0.0; 
stroke:#000000; stroke-width:39.3701; stroke-opacity:1; 
stroke-linecap:round; stroke-linejoin:round;">
</g>
<g style="fill:#000000; fill-opacity:0.0; 
stroke:#000000; stroke-width:59.0551; stroke-opacity:1; 
stroke-linecap:round; stroke-linejoin:round;">
<path d="M33591 78117
L33615 78093
L33664 78069
L33786 78069
L33835 78093
L33859 78117
L33884 78166
L33884 78215
L33859 78288
L33567 78580
L33884 78580
" />
</g>
<g style="fill:#000000; fill-opacity:0.0; 
stroke:#000000; stroke-width:39.3701; stroke-opacity:1; 
stroke-linecap:round; stroke-linejoin:round;">
</g>
<g style="fill:#000000; fill-opacity:0.0; 
stroke:#000000; stroke-width:59.0551; stroke-opacity:1; 
stroke-linecap:round; stroke-linejoin:round;">
<path d="M53252 78069
L53569 78069
L53398 78263
L53471 78263
L53520 78288
L53544 78312
L53569 78361
L53569 78483
L53544 78532
L53520 78556
L53471 78580
L53325 78580
L53276 78556
L53252 78532
" />
</g>
<g style="fill:#000000; fill-opacity:0.0; 
stroke:#000000; stroke-width:39.3701; stroke-opacity:1; 
stroke-linecap:round; stroke-linejoin:round;">
</g>
<g style="fill:#000000; fill-opacity:0.0; 
stroke:#000000; stroke-width:59.0551; stroke-opacity:1; 
stroke-linecap:round; stroke-linejoin:round;">
<path d="M73205 78239
L73205 78580
" />
<path d="M73083 78044
L72961 78410
L73278 78410
" />
</g>
<g style="fill:#000000; fill-opacity:0.0; 
stroke:#000000; stroke-width:39.3701; stroke-opacity:1; 
stroke-linecap:round; stroke-linejoin:round;">
</g>
<g style="fill:#000000; fill-opacity:0.0; 
stroke:#000000; stroke-width:59.0551; stroke-opacity:1; 
stroke-linecap:round; stroke-linejoin:round;">
<path d="M92914 78069
L92671 78069
L92646 78312
L92671 78288
L92719 78263
L92841 78263
L92890 78288
L92914 78312
L92939 78361
L92939 78483
L92914 78532
L92890 78556
L92841 78580
L92719 78580
L92671 78556
L92646 78532
" />
</g>
<g style="fill:#000000; fill-opacity:0.0; 
stroke:#000000; stroke-width:39.3701; stroke-opacity:1; 
stroke-linecap:round; stroke-linejoin:round;">
</g>
<g style="fill:#000000; fill-opacity:0.0; 
stroke:#000000; stroke-width:59.0551; stroke-opacity:1; 
stroke-linecap:round; stroke-linejoin:round;">
<path d="M112575 78069
L112477 78069
L112429 78093
L112404 78117
L112356 78190
L112331 78288
L112331 78483
L112356 78532
L112380 78556
L112429 78580
L112526 78580
L112575 78556
L112599 78532
L112624 78483
L112624 78361
L112599 78312
L112575 78288
L112526 78263
L112429 78263
L112380 78288
L112356 78312
L112331 78361
" />
</g>
<g style="fill:#000000; fill-opacity:0.0; 
stroke:#000000; stroke-width:39.3701; stroke-opacity:1; 
stroke-linecap:round; stroke-linejoin:round;">
</g>
<g style="fill:#000000; fill-opacity:0.0; 
stroke:#000000; stroke-width:59.0551; stroke-opacity:1; 
stroke-linecap:round; stroke-linejoin:round;">
<path d="M3937 23622
L4724 23622
" />
</g>
<g style="fill:#000000; fill-opacity:0.0; 
stroke:#000000; stroke-width:39.3701; stroke-opacity:1; 
stroke-linecap:round; stroke-linejoin:round;">
</g>
<g style="fill:#000000; fill-opacity:0.0; 
stroke:#000000; stroke-width:59.0551; stroke-opacity:1; 
stroke-linecap:round; stroke-linejoin:round;">
<path d="M3937 43307
L4724 43307
" />
</g>
<g style="fill:#000000; fill-opacity:0.0; 
stroke:#000000; stroke-width:39.3701; stroke-opacity:1; 
stroke-linecap:round; stroke-linejoin:round;">
</g>
<g style="fill:#000000; fill-opacity:0.0; 
stroke:#000000; stroke-width:59.0551; stroke-opacity:1; 
stroke-linecap:round; stroke-linejoin:round;">
<path d="M3937 62992
L4724 62992
" />
</g>
<g style="fill:#000000; fill-opacity:0.0; 
stroke:#000000; stroke-width:39.3701; stroke-opacity:1; 
stroke-linecap:round; stroke-linejoin:round;">
</g>
<g style="fill:#000000; fill-opacity:0.0; 
stroke:#000000; stroke-width:59.0551; stroke-opacity:1; 
stroke-linecap:round; stroke-linejoin:round;">
<path d="M4208 13864
L4452 13864
" />
<path d="M4160 14011
L4330 13499
L4501 14011
" />
</g>
<g style="fill:#000000; fill-opacity:0.0; 
stroke:#000000; stroke-width:39.3701; stroke-opacity:1; 
stroke-linecap:round; stroke-linejoin:round;">
</g>
<g style="fill:#000000; fill-opacity:0.0; 
stroke:#000000; stroke-width:59.0551; stroke-opacity:1; 
stroke-linecap:round; stroke-linejoin:round;">
<path d="M4367 33428
L4440 33452
L4464 33476
L4489 33525
L4489 33598
L4464 33647
L4440 33671
L4391 33696
L4196 33696
L4196 33184
L4367 33184
L4416 33208
L4440 33233
L4464 33281
L4464 33330
L4440 33379
L4416 33403
L4367 33428
L4196 33428
" />
</g>
<g style="fill:#000000; fill-opacity:0.0; 
stroke:#000000; stroke-width:39.3701; stroke-opacity:1; 
stroke-linecap:round; stroke-linejoin:round;">
</g>
<g style="fill:#000000; fill-opacity:0.0; 
stroke:#000000; stroke-width:59.0551; stroke-opacity:1; 
stroke-linecap:round; stroke-linejoin:round;">
<path d="M4489 53332
L4464 53356
L4391 53381
L4342 53381
L4269 53356
L4221 53308
L4196 53259
L4172 53161
L4172 53088
L4196 52991
L4221 52942
L4269 52893
L4342 52869
L4391 52869
L4464 52893
L4489 52918
" />
</g>
<g style="fill:#000000; fill-opacity:0.0; 
stroke:#000000; stroke-width:39.3701; stroke-opacity:1; 
stroke-linecap:round; stroke-linejoin:round;">
</g>
<g style="fill:#000000; fill-opacity:0.0; 
stroke:#000000; stroke-width:59.0551; stroke-opacity:1; 
stroke-linecap:round; stroke-linejoin:round;">
<path d="M4196 73066
L4196 72554
L4318 72554
L4391 72578
L4440 72627
L4464 72676
L4489 72773
L4489 72846
L4464 72944
L4440 72993
L4391 73041
L4318 73066
L4196 73066
" />
</g>
<g style="fill:#000000; fill-opacity:0.0; 
stroke:#000000; stroke-width:39.3701; stroke-opacity:1; 
stroke-linecap:round; stroke-linejoin:round;">
</g>
<g style="fill:#000000; fill-opacity:0.0; 
stroke:#000000; stroke-width:59.0551; stroke-opacity:1; 
stroke-linecap:round; stroke-linejoin:round;">
<path d="M112992 23622
L112205 23622
" />
</g>
<g style="fill:#000000; fill-opacity:0.0; 
stroke:#000000; stroke-width:39.3701; stroke-opacity:1; 
stroke-linecap:round; stroke-linejoin:round;">
</g>
<g style="fill:#000000; fill-opacity:0.0; 
stroke:#000000; stroke-width:59.0551; stroke-opacity:1; 
stroke-linecap:round; stroke-linejoin:round;">
<path d="M112992 43307
L112205 43307
" />
</g>
<g style="fill:#000000; fill-opacity:0.0; 
stroke:#000000; stroke-width:39.3701; stroke-opacity:1; 
stroke-linecap:round; stroke-linejoin:round;">
</g>
<g style="fill:#000000; fill-opacity:0.0; 
stroke:#000000; stroke-width:59.0551; stroke-opacity:1; 
stroke-linecap:round; stroke-linejoin:round;">
<path d="M112992 62992
L112205 62992
" />
</g>
<g style="fill:#000000; fill-opacity:0.0; 
stroke:#000000; stroke-width:39.3701; stroke-opacity:1; 
stroke-linecap:round; stroke-linejoin:round;">
</g>
<g style="fill:#000000; fill-opacity:0.0; 
stroke:#000000; stroke-width:59.0551; stroke-opacity:1; 
stroke-linecap:round; stroke-linejoin:round;">
<path d="M112477 13864
L112721 13864
" />
<path d="M112428 14011
L112599 13499
L112769 14011
" />
</g>
<g style="fill:#000000; fill-opacity:0.0; 
stroke:#000000; stroke-width:39.3701; stroke-opacity:1; 
stroke-linecap:round; stroke-linejoin:round;">
</g>
<g style="fill:#000000; fill-opacity:0.0; 
stroke:#000000; stroke-width:59.0551; stroke-opacity:1; 
stroke-linecap:round; stroke-linejoin:round;">
<path d="M112635 33428
L112708 33452
L112733 33476
L112757 33525
L112757 33598
L112733 33647
L112708 33671
L112660 33696
L112465 33696
L112465 33184
L112635 33184
L112684 33208
L112708 33233
L112733 33281
L112733 33330
L112708 33379
L112684 33403
L112635 33428
L112465 33428
" />
</g>
<g style="fill:#000000; fill-opacity:0.0; 
stroke:#000000; stroke-width:39.3701; stroke-opacity:1; 
stroke-linecap:round; stroke-linejoin:round;">
</g>
<g style="fill:#000000; fill-opacity:0.0; 
stroke:#000000; stroke-width:59.0551; stroke-opacity:1; 
stroke-linecap:round; stroke-linejoin:round;">
<path d="M112757 53332
L112733 53356
L112660 53381
L112611 53381
L112538 53356
L112489 53308
L112465 53259
L112440 53161
L112440 53088
L112465 52991
L112489 52942
L112538 52893
L112611 52869
L112660 52869
L112733 52893
L112757 52918
" />
</g>
<g style="fill:#000000; fill-opacity:0.0; 
stroke:#000000; stroke-width:39.3701; stroke-opacity:1; 
stroke-linecap:round; stroke-linejoin:round;">
</g>
<g style="fill:#000000; fill-opacity:0.0; 
stroke:#000000; stroke-width:59.0551; stroke-opacity:1; 
stroke-linecap:round; stroke-linejoin:round;">
<path d="M112465 73066
L112465 72554
L112587 72554
L112660 72578
L112708 72627
L112733 72676
L112757 72773
L112757 72846
L112733 72944
L112708 72993
L112660 73041
L112587 73066
L112465 73066
" />
</g>
<g style="fill:#000000; fill-opacity:0.0; 
stroke:#000000; stroke-width:39.3701; stroke-opacity:1; 
stroke-linecap:round; stroke-linejoin:round;">
</g>
<g style="fill:#000000; fill-opacity:0.0; 
stroke:#000000; stroke-width:59.0551; stroke-opacity:1; 
stroke-linecap:round; stroke-linejoin:round;">
<path d="M78911 76293
L78911 75703
L79051 75703
L79136 75731
L79192 75787
L79220 75843
L79248 75956
L79248 76040
L79220 76153
L79192 76209
L79136 76265
L79051 76293
L78911 76293
" />
<path d="M79754 76293
L79754 75984
L79726 75928
L79670 75899
L79557 75899
L79501 75928
" />
<path d="M79754 76265
L79698 76293
L79557 76293
L79501 76265
L79473 76209
L79473 76153
L79501 76096
L79557 76068
L79698 76068
L79754 76040
" />
<path d="M79951 75899
L80176 75899
" />
<path d="M80036 75703
L80036 76209
L80064 76265
L80120 76293
L80176 76293
" />
<path d="M80598 76265
L80542 76293
L80429 76293
L80373 76265
L80345 76209
L80345 75984
L80373 75928
L80429 75899
L80542 75899
L80598 75928
L80626 75984
L80626 76040
L80345 76096
" />
<path d="M80879 76237
L80907 76265
L80879 76293
L80851 76265
L80879 76237
L80879 76293
" />
<path d="M80879 75928
L80907 75956
L80879 75984
L80851 75956
L80879 75928
L80879 75984
" />
<path d="M81582 75759
L81610 75731
L81667 75703
L81807 75703
L81863 75731
L81892 75759
L81920 75815
L81920 75871
L81892 75956
L81554 76293
L81920 76293
" />
<path d="M82285 75703
L82341 75703
L82398 75731
L82426 75759
L82454 75815
L82482 75928
L82482 76068
L82454 76181
L82426 76237
L82398 76265
L82341 76293
L82285 76293
L82229 76265
L82201 76237
L82173 76181
L82145 76068
L82145 75928
L82173 75815
L82201 75759
L82229 75731
L82285 75703
" />
<path d="M82707 75759
L82735 75731
L82791 75703
L82932 75703
L82988 75731
L83016 75759
L83045 75815
L83045 75871
L83016 75956
L82679 76293
L83045 76293
" />
<path d="M83410 75703
L83466 75703
L83523 75731
L83551 75759
L83579 75815
L83607 75928
L83607 76068
L83579 76181
L83551 76237
L83523 76265
L83466 76293
L83410 76293
L83354 76265
L83326 76237
L83298 76181
L83269 76068
L83269 75928
L83298 75815
L83326 75759
L83354 75731
L83410 75703
" />
<path d="M83860 76068
L84310 76068
" />
<path d="M84704 75703
L84760 75703
L84816 75731
L84844 75759
L84872 75815
L84901 75928
L84901 76068
L84872 76181
L84844 76237
L84816 76265
L84760 76293
L84704 76293
L84647 76265
L84619 76237
L84591 76181
L84563 76068
L84563 75928
L84591 75815
L84619 75759
L84647 75731
L84704 75703
" />
<path d="M85407 75899
L85407 76293
" />
<path d="M85266 75674
L85126 76096
L85491 76096
" />
<path d="M85716 76068
L86166 76068
" />
<path d="M86419 75759
L86447 75731
L86503 75703
L86644 75703
L86700 75731
L86728 75759
L86757 75815
L86757 75871
L86728 75956
L86391 76293
L86757 76293
" />
<path d="M86953 75703
L87319 75703
L87122 75928
L87206 75928
L87263 75956
L87291 75984
L87319 76040
L87319 76181
L87291 76237
L87263 76265
L87206 76293
L87038 76293
L86982 76265
L86953 76237
" />
</g>
<g style="fill:#000000; fill-opacity:0.0; 
stroke:#000000; stroke-width:39.3701; stroke-opacity:1; 
stroke-linecap:round; stroke-linejoin:round;">
</g>
<g style="fill:#000000; fill-opacity:0.0; 
stroke:#000000; stroke-width:59.0551; stroke-opacity:1; 
stroke-linecap:round; stroke-linejoin:round;">
<path d="M69685 76577
L112205 76577
" />
</g>
<g style="fill:#000000; fill-opacity:0.0; 
stroke:#000000; stroke-width:39.3701; stroke-opacity:1; 
stroke-linecap:round; stroke-linejoin:round;">
</g>
<g style="fill:#000000; fill-opacity:0.0; 
stroke:#000000; stroke-width:59.0551; stroke-opacity:1; 
stroke-linecap:round; stroke-linejoin:round;">
<path d="M70249 77395
L70249 76805
" />
<path d="M70587 77395
L70334 77058
" />
<path d="M70587 76805
L70249 77142
" />
<path d="M70840 77395
L70840 77002
" />
<path d="M70840 76805
L70812 76833
L70840 76861
L70868 76833
L70840 76805
L70840 76861
" />
<path d="M71458 77339
L71430 77367
L71346 77395
L71290 77395
L71205 77367
L71149 77311
L71121 77255
L71093 77142
L71093 77058
L71121 76946
L71149 76889
L71205 76833
L71290 76805
L71346 76805
L71430 76833
L71458 76861
" />
<path d="M71965 77395
L71965 77086
L71937 77030
L71880 77002
L71768 77002
L71712 77030
" />
<path d="M71965 77367
L71908 77395
L71768 77395
L71712 77367
L71683 77311
L71683 77255
L71712 77199
L71768 77171
L71908 77171
L71965 77142
" />
<path d="M72499 77395
L72499 76805
" />
<path d="M72499 77367
L72443 77395
L72330 77395
L72274 77367
L72246 77339
L72218 77283
L72218 77114
L72246 77058
L72274 77030
L72330 77002
L72443 77002
L72499 77030
" />
<path d="M73230 77086
L73427 77086
" />
<path d="M73511 77395
L73230 77395
L73230 76805
L73511 76805
" />
<path d="M73764 77339
L73793 77367
L73764 77395
L73736 77367
L73764 77339
L73764 77395
" />
<path d="M74046 77395
L74046 76805
L74186 76805
L74271 76833
L74327 76889
L74355 76946
L74383 77058
L74383 77142
L74355 77255
L74327 77311
L74271 77367
L74186 77395
L74046 77395
" />
<path d="M74636 77339
L74664 77367
L74636 77395
L74608 77367
L74636 77339
L74636 77395
" />
<path d="M74889 77227
L75171 77227
" />
<path d="M74833 77395
L75030 76805
L75227 77395
" />
<path d="M75424 77339
L75452 77367
L75424 77395
L75395 77367
L75424 77339
L75424 77395
" />
<path d="M76605 77002
L76605 77592
" />
<path d="M76605 77030
L76661 77002
L76773 77002
L76830 77030
L76858 77058
L76886 77114
L76886 77283
L76858 77339
L76830 77367
L76773 77395
L76661 77395
L76605 77367
" />
<path d="M77392 77367
L77336 77395
L77223 77395
L77167 77367
L77139 77339
L77111 77283
L77111 77114
L77139 77058
L77167 77030
L77223 77002
L77336 77002
L77392 77030
" />
<path d="M77645 77395
L77645 76805
" />
<path d="M77645 77030
L77701 77002
L77814 77002
L77870 77030
L77898 77058
L77926 77114
L77926 77283
L77898 77339
L77870 77367
L77814 77395
L77701 77395
L77645 77367
" />
<path d="M78180 77002
L78180 77395
" />
<path d="M78180 77058
L78208 77030
L78264 77002
L78348 77002
L78404 77030
L78433 77086
L78433 77395
" />
<path d="M78939 77367
L78883 77395
L78770 77395
L78714 77367
L78686 77311
L78686 77086
L78714 77030
L78770 77002
L78883 77002
L78939 77030
L78967 77086
L78967 77142
L78686 77199
" />
<path d="M79164 77002
L79276 77395
L79389 77114
L79501 77395
L79614 77002
" />
<path d="M80457 77620
L80429 77592
L80373 77508
L80345 77452
L80317 77367
L80289 77227
L80289 77114
L80317 76974
L80345 76889
L80373 76833
L80429 76749
L80457 76721
" />
<path d="M80964 76805
L80682 76805
L80654 77086
L80682 77058
L80739 77030
L80879 77030
L80935 77058
L80964 77086
L80992 77142
L80992 77283
L80964 77339
L80935 77367
L80879 77395
L80739 77395
L80682 77367
L80654 77339
" />
<path d="M81245 77339
L81273 77367
L81245 77395
L81217 77367
L81245 77339
L81245 77395
" />
<path d="M81638 76805
L81695 76805
L81751 76833
L81779 76861
L81807 76917
L81835 77030
L81835 77171
L81807 77283
L81779 77339
L81751 77367
L81695 77395
L81638 77395
L81582 77367
L81554 77339
L81526 77283
L81498 77171
L81498 77030
L81526 76917
L81554 76861
L81582 76833
L81638 76805
" />
<path d="M82088 77339
L82117 77367
L82088 77395
L82060 77367
L82088 77339
L82088 77395
" />
<path d="M82679 77395
L82341 77395
" />
<path d="M82510 77395
L82510 76805
L82454 76889
L82398 76946
L82341 76974
" />
<path d="M82876 77620
L82904 77592
L82960 77508
L82988 77452
L83016 77367
L83045 77227
L83045 77114
L83016 76974
L82988 76889
L82960 76833
L82904 76749
L82876 76721
" />
<path d="M83326 77171
L83776 77171
" />
<path d="M84001 76805
L84366 76805
L84169 77030
L84254 77030
L84310 77058
L84338 77086
L84366 77142
L84366 77283
L84338 77339
L84310 77367
L84254 77395
L84085 77395
L84029 77367
L84001 77339
" />
</g>
<g style="fill:#000000; fill-opacity:0.0; 
stroke:#000000; stroke-width:39.3701; stroke-opacity:1; 
stroke-linecap:round; stroke-linejoin:round;">
</g>
<g style="fill:#000000; fill-opacity:0.0; 
stroke:#000000; stroke-width:59.0551; stroke-opacity:1; 
stroke-linecap:round; stroke-linejoin:round;">
<path d="M69685 75396
L112205 75396
" />
</g>
<g style="fill:#000000; fill-opacity:0.0; 
stroke:#000000; stroke-width:39.3701; stroke-opacity:1; 
stroke-linecap:round; stroke-linejoin:round;">
</g>
<g style="fill:#000000; fill-opacity:0.0; 
stroke:#000000; stroke-width:118.11; stroke-opacity:1; 
stroke-linecap:round; stroke-linejoin:round;">
<path d="M104099 76293
L103902 76012
" />
<path d="M103761 76293
L103761 75703
L103986 75703
L104042 75731
L104070 75759
L104099 75815
L104099 75899
L104070 75956
L104042 75984
L103986 76012
L103761 76012
" />
<path d="M104577 76265
L104520 76293
L104408 76293
L104352 76265
L104323 76209
L104323 75984
L104352 75928
L104408 75899
L104520 75899
L104577 75928
L104605 75984
L104605 76040
L104323 76096
" />
<path d="M104802 75899
L104942 76293
L105083 75899
" />
<path d="M105308 76237
L105336 76265
L105308 76293
L105280 76265
L105308 76237
L105308 76293
" />
<path d="M105308 75928
L105336 75956
L105308 75984
L105280 75956
L105308 75928
L105308 75984
" />
</g>
<g style="fill:#000000; fill-opacity:0.0; 
stroke:#000000; stroke-width:39.3701; stroke-opacity:1; 
stroke-linecap:round; stroke-linejoin:round;">
</g>
<g style="fill:#000000; fill-opacity:0.0; 
stroke:#000000; stroke-width:59.0551; stroke-opacity:1; 
stroke-linecap:round; stroke-linejoin:round;">
<path d="M70221 76265
L70305 76293
L70446 76293
L70502 76265
L70530 76237
L70559 76181
L70559 76124
L70530 76068
L70502 76040
L70446 76012
L70334 75984
L70277 75956
L70249 75928
L70221 75871
L70221 75815
L70249 75759
L70277 75731
L70334 75703
L70474 75703
L70559 75731
" />
<path d="M70812 76293
L70812 75899
" />
<path d="M70812 75703
L70784 75731
L70812 75759
L70840 75731
L70812 75703
L70812 75759
" />
<path d="M71037 75899
L71346 75899
L71037 76293
L71346 76293
" />
<path d="M71796 76265
L71740 76293
L71627 76293
L71571 76265
L71543 76209
L71543 75984
L71571 75928
L71627 75899
L71740 75899
L71796 75928
L71824 75984
L71824 76040
L71543 76096
" />
<path d="M72077 76237
L72105 76265
L72077 76293
L72049 76265
L72077 76237
L72077 76293
" />
<path d="M72077 75928
L72105 75956
L72077 75984
L72049 75956
L72077 75928
L72077 75984
" />
<path d="M72780 76124
L73061 76124
" />
<path d="M72724 76293
L72921 75703
L73118 76293
" />
<path d="M73568 75899
L73568 76293
" />
<path d="M73427 75674
L73286 76096
L73652 76096
" />
</g>
<g style="fill:#000000; fill-opacity:0.0; 
stroke:#000000; stroke-width:39.3701; stroke-opacity:1; 
stroke-linecap:round; stroke-linejoin:round;">
</g>
<g style="fill:#000000; fill-opacity:0.0; 
stroke:#000000; stroke-width:59.0551; stroke-opacity:1; 
stroke-linecap:round; stroke-linejoin:round;">
<path d="M103714 77395
L103714 76805
" />
<path d="M104248 77395
L104248 76805
" />
<path d="M104248 77367
L104192 77395
L104079 77395
L104023 77367
L103995 77339
L103967 77283
L103967 77114
L103995 77058
L104023 77030
L104079 77002
L104192 77002
L104248 77030
" />
<path d="M104529 77339
L104557 77367
L104529 77395
L104501 77367
L104529 77339
L104529 77395
" />
<path d="M104529 77030
L104557 77058
L104529 77086
L104501 77058
L104529 77030
L104529 77086
" />
<path d="M105570 77395
L105232 77395
" />
<path d="M105401 77395
L105401 76805
L105345 76889
L105289 76946
L105232 76974
" />
<path d="M106245 76777
L105739 77536
" />
<path d="M106751 77395
L106413 77395
" />
<path d="M106582 77395
L106582 76805
L106526 76889
L106470 76946
L106413 76974
" />
</g>
<g style="fill:#000000; fill-opacity:0.0; 
stroke:#000000; stroke-width:39.3701; stroke-opacity:1; 
stroke-linecap:round; stroke-linejoin:round;">
</g>
<g style="fill:#000000; fill-opacity:0.0; 
stroke:#000000; stroke-width:59.0551; stroke-opacity:1; 
stroke-linecap:round; stroke-linejoin:round;">
<path d="M69685 73821
L112205 73821
" />
</g>
<g style="fill:#000000; fill-opacity:0.0; 
stroke:#000000; stroke-width:39.3701; stroke-opacity:1; 
stroke-linecap:round; stroke-linejoin:round;">
</g>
<g style="fill:#000000; fill-opacity:0.0; 
stroke:#000000; stroke-width:157.48; stroke-opacity:1; 
stroke-linecap:round; stroke-linejoin:round;">
<path d="M70360 74099
L70810 74099
" />
<path d="M70486 74886
L70585 74099
" />
<path d="M70974 74886
L71039 74361
" />
<path d="M71072 74099
L71030 74136
L71063 74174
L71105 74136
L71072 74099
L71063 74174
" />
<path d="M71302 74361
L71602 74361
" />
<path d="M71447 74099
L71363 74774
L71391 74849
L71461 74886
L71536 74886
" />
<path d="M71911 74886
L71841 74849
L71813 74774
L71897 74099
" />
<path d="M72516 74849
L72436 74886
L72286 74886
L72216 74849
L72187 74774
L72225 74474
L72272 74399
L72352 74361
L72501 74361
L72572 74399
L72600 74474
L72591 74549
L72206 74624
" />
<path d="M72895 74811
L72928 74849
L72886 74886
L72853 74849
L72895 74811
L72886 74886
" />
<path d="M72947 74399
L72980 74436
L72937 74474
L72905 74436
L72947 74399
L72937 74474
" />
<path d="M73828 74849
L73936 74886
L74123 74886
L74203 74849
L74245 74811
L74292 74736
L74301 74661
L74273 74586
L74240 74549
L74170 74511
L74025 74474
L73954 74436
L73922 74399
L73894 74324
L73903 74249
L73950 74174
L73992 74136
L74072 74099
L74259 74099
L74367 74136
" />
<path d="M74611 74886
L74676 74361
" />
<path d="M74709 74099
L74667 74136
L74700 74174
L74742 74136
L74709 74099
L74700 74174
" />
<path d="M75051 74361
L74986 74886
" />
<path d="M75042 74436
L75084 74399
L75164 74361
L75276 74361
L75346 74399
L75375 74474
L75323 74886
" />
<path d="M76101 74361
L76021 74999
L75974 75074
L75932 75111
L75853 75149
L75740 75149
L75670 75111
" />
<path d="M76040 74849
L75960 74886
L75810 74886
L75740 74849
L75707 74811
L75679 74736
L75707 74511
L75754 74436
L75796 74399
L75876 74361
L76026 74361
L76096 74399
" />
<path d="M76523 74886
L76453 74849
L76424 74774
L76509 74099
" />
<path d="M77127 74849
L77048 74886
L76898 74886
L76828 74849
L76799 74774
L76837 74474
L76884 74399
L76963 74361
L77113 74361
L77184 74399
L77212 74474
L77202 74549
L76818 74624
" />
<path d="M77301 74961
L77901 74961
" />
<path d="M78084 74099
L78534 74099
" />
<path d="M78210 74886
L78309 74099
" />
<path d="M78698 74886
L78763 74361
" />
<path d="M78744 74511
L78791 74436
L78834 74399
L78913 74361
L78988 74361
" />
<path d="M79522 74886
L79574 74474
L79546 74399
L79476 74361
L79326 74361
L79246 74399
" />
<path d="M79527 74849
L79447 74886
L79260 74886
L79190 74849
L79162 74774
L79171 74699
L79218 74624
L79298 74586
L79485 74586
L79565 74549
" />
<path d="M79963 74361
L79897 74886
" />
<path d="M79954 74436
L79996 74399
L80076 74361
L80188 74361
L80258 74399
L80286 74474
L80235 74886
" />
<path d="M80413 74961
L81013 74961
" />
<path d="M81200 74661
L81575 74661
" />
<path d="M81097 74886
L81458 74099
L81622 74886
" />
<path d="M81885 74886
L81950 74361
" />
<path d="M81941 74436
L81983 74399
L82063 74361
L82175 74361
L82246 74399
L82274 74474
L82222 74886
" />
<path d="M82274 74474
L82321 74399
L82400 74361
L82513 74361
L82583 74399
L82611 74474
L82560 74886
" />
<path d="M83000 74361
L82902 75149
" />
<path d="M82995 74399
L83075 74361
L83225 74361
L83295 74399
L83328 74436
L83356 74511
L83328 74736
L83281 74811
L83239 74849
L83160 74886
L83010 74886
L82939 74849
" />
</g>
<g style="fill:#000000; fill-opacity:0.0; 
stroke:#000000; stroke-width:39.3701; stroke-opacity:1; 
stroke-linecap:round; stroke-linejoin:round;">
</g>
<g style="fill:#000000; fill-opacity:0.0; 
stroke:#000000; stroke-width:59.0551; stroke-opacity:1; 
stroke-linecap:round; stroke-linejoin:round;">
<path d="M70446 73070
L70249 73070
" />
<path d="M70249 73380
L70249 72789
L70530 72789
" />
<path d="M70755 73380
L70755 72986
" />
<path d="M70755 72789
L70727 72817
L70755 72845
L70784 72817
L70755 72789
L70755 72845
" />
<path d="M71121 73380
L71065 73352
L71037 73295
L71037 72789
" />
<path d="M71571 73352
L71515 73380
L71402 73380
L71346 73352
L71318 73295
L71318 73070
L71346 73014
L71402 72986
L71515 72986
L71571 73014
L71599 73070
L71599 73127
L71318 73183
" />
<path d="M71852 73323
L71880 73352
L71852 73380
L71824 73352
L71852 73323
L71852 73380
" />
<path d="M71852 73014
L71880 73042
L71852 73070
L71824 73042
L71852 73014
L71852 73070
" />
<path d="M72499 72789
L72696 73380
L72893 72789
" />
<path d="M73090 73380
L73090 72986
" />
<path d="M73090 72789
L73061 72817
L73090 72845
L73118 72817
L73090 72789
L73090 72845
" />
<path d="M73596 73352
L73539 73380
L73427 73380
L73371 73352
L73343 73295
L73343 73070
L73371 73014
L73427 72986
L73539 72986
L73596 73014
L73624 73070
L73624 73127
L73343 73183
" />
<path d="M73877 72986
L73877 73380
" />
<path d="M73877 73042
L73905 73014
L73961 72986
L74046 72986
L74102 73014
L74130 73070
L74130 73380
" />
<path d="M74664 73380
L74664 73070
L74636 73014
L74580 72986
L74467 72986
L74411 73014
" />
<path d="M74664 73352
L74608 73380
L74467 73380
L74411 73352
L74383 73295
L74383 73239
L74411 73183
L74467 73155
L74608 73155
L74664 73127
" />
<path d="M74861 72789
L75199 72789
" />
<path d="M75030 73380
L75030 72789
" />
<path d="M75395 73380
L75395 72986
" />
<path d="M75395 73099
L75424 73042
L75452 73014
L75508 72986
L75564 72986
" />
<path d="M76014 73380
L76014 73070
L75986 73014
L75930 72986
L75817 72986
L75761 73014
" />
<path d="M76014 73352
L75958 73380
L75817 73380
L75761 73352
L75733 73295
L75733 73239
L75761 73183
L75817 73155
L75958 73155
L76014 73127
" />
<path d="M76295 72986
L76295 73380
" />
<path d="M76295 73042
L76323 73014
L76380 72986
L76464 72986
L76520 73014
L76548 73070
L76548 73380
" />
<path d="M76830 73380
L76830 72789
L77055 72789
L77111 72817
L77139 72845
L77167 72902
L77167 72986
L77139 73042
L77111 73070
L77055 73099
L76830 73099
" />
<path d="M77673 73380
L77673 73070
L77645 73014
L77589 72986
L77476 72986
L77420 73014
" />
<path d="M77673 73352
L77617 73380
L77476 73380
L77420 73352
L77392 73295
L77392 73239
L77420 73183
L77476 73155
L77617 73155
L77673 73127
" />
<path d="M77926 73352
L77983 73380
L78095 73380
L78151 73352
L78180 73295
L78180 73267
L78151 73211
L78095 73183
L78011 73183
L77955 73155
L77926 73099
L77926 73070
L77955 73014
L78011 72986
L78095 72986
L78151 73014
" />
<path d="M78348 72986
L78573 72986
" />
<path d="M78433 72789
L78433 73295
L78461 73352
L78517 73380
L78573 73380
" />
<path d="M78770 73380
L78770 72986
" />
<path d="M78770 72789
L78742 72817
L78770 72845
L78798 72817
L78770 72789
L78770 72845
" />
<path d="M79051 72986
L79051 73577
" />
<path d="M79051 73014
L79108 72986
L79220 72986
L79276 73014
L79304 73042
L79332 73099
L79332 73267
L79304 73323
L79276 73352
L79220 73380
L79108 73380
L79051 73352
" />
<path d="M79586 73380
L79586 72986
" />
<path d="M79586 73099
L79614 73042
L79642 73014
L79698 72986
L79754 72986
" />
<path d="M79951 73380
L79951 72986
" />
<path d="M79951 72789
L79923 72817
L79951 72845
L79979 72817
L79951 72789
L79951 72845
" />
<path d="M80232 72986
L80232 73380
" />
<path d="M80232 73042
L80260 73014
L80317 72986
L80401 72986
L80457 73014
L80485 73070
L80485 73380
" />
<path d="M81020 73380
L81020 73070
L80992 73014
L80935 72986
L80823 72986
L80767 73014
" />
<path d="M81020 73352
L80964 73380
L80823 73380
L80767 73352
L80739 73295
L80739 73239
L80767 73183
L80823 73155
L80964 73155
L81020 73127
" />
<path d="M81217 72986
L81442 72986
" />
<path d="M81301 72789
L81301 73295
L81329 73352
L81385 73380
L81442 73380
" />
<path d="M81892 73380
L81892 73070
L81863 73014
L81807 72986
L81695 72986
L81638 73014
" />
<path d="M81892 73352
L81835 73380
L81695 73380
L81638 73352
L81610 73295
L81610 73239
L81638 73183
L81695 73155
L81835 73155
L81892 73127
" />
<path d="M82173 72986
L82173 73492
L82145 73548
L82088 73577
L82060 73577
" />
<path d="M82173 72789
L82145 72817
L82173 72845
L82201 72817
L82173 72789
L82173 72845
" />
<path d="M82426 73352
L82482 73380
L82595 73380
L82651 73352
L82679 73295
L82679 73267
L82651 73211
L82595 73183
L82510 73183
L82454 73155
L82426 73099
L82426 73070
L82454 73014
L82510 72986
L82595 72986
L82651 73014
" />
<path d="M82932 73323
L82960 73352
L82932 73380
L82904 73352
L82932 73323
L82932 73380
" />
<path d="M83213 73380
L83213 72789
" />
<path d="M83269 73155
L83438 73380
" />
<path d="M83438 72986
L83213 73211
" />
<path d="M83691 73380
L83691 72986
" />
<path d="M83691 72789
L83663 72817
L83691 72845
L83719 72817
L83691 72789
L83691 72845
" />
<path d="M84226 73352
L84169 73380
L84057 73380
L84001 73352
L83973 73323
L83944 73267
L83944 73099
L83973 73042
L84001 73014
L84057 72986
L84169 72986
L84226 73014
" />
<path d="M84732 73380
L84732 73070
L84704 73014
L84647 72986
L84535 72986
L84479 73014
" />
<path d="M84732 73352
L84676 73380
L84535 73380
L84479 73352
L84451 73295
L84451 73239
L84479 73183
L84535 73155
L84676 73155
L84732 73127
" />
<path d="M85266 73380
L85266 72789
" />
<path d="M85266 73352
L85210 73380
L85097 73380
L85041 73352
L85013 73323
L84985 73267
L84985 73099
L85013 73042
L85041 73014
L85097 72986
L85210 72986
L85266 73014
" />
<path d="M85407 73436
L85857 73436
" />
<path d="M85997 72986
L85997 73577
" />
<path d="M85997 73014
L86054 72986
L86166 72986
L86222 73014
L86250 73042
L86278 73099
L86278 73267
L86250 73323
L86222 73352
L86166 73380
L86054 73380
L85997 73352
" />
<path d="M86785 73352
L86728 73380
L86616 73380
L86560 73352
L86532 73323
L86503 73267
L86503 73099
L86532 73042
L86560 73014
L86616 72986
L86728 72986
L86785 73014
" />
<path d="M87038 73380
L87038 72789
" />
<path d="M87038 73014
L87094 72986
L87206 72986
L87263 73014
L87291 73042
L87319 73099
L87319 73267
L87291 73323
L87263 73352
L87206 73380
L87094 73380
L87038 73352
" />
</g>
<g style="fill:#000000; fill-opacity:0.0; 
stroke:#000000; stroke-width:39.3701; stroke-opacity:1; 
stroke-linecap:round; stroke-linejoin:round;">
</g>
<g style="fill:#000000; fill-opacity:0.0; 
stroke:#000000; stroke-width:59.0551; stroke-opacity:1; 
stroke-linecap:round; stroke-linejoin:round;">
<path d="M69685 71459
L112205 71459
" />
</g>
<g style="fill:#000000; fill-opacity:0.0; 
stroke:#000000; stroke-width:39.3701; stroke-opacity:1; 
stroke-linecap:round; stroke-linejoin:round;">
</g>
<g style="fill:#000000; fill-opacity:0.0; 
stroke:#000000; stroke-width:59.0551; stroke-opacity:1; 
stroke-linecap:round; stroke-linejoin:round;">
<path d="M70221 72289
L70305 72317
L70446 72317
L70502 72289
L70530 72260
L70559 72204
L70559 72148
L70530 72092
L70502 72064
L70446 72036
L70334 72007
L70277 71979
L70249 71951
L70221 71895
L70221 71839
L70249 71782
L70277 71754
L70334 71726
L70474 71726
L70559 71754
" />
<path d="M70812 72317
L70812 71726
" />
<path d="M71065 72317
L71065 72007
L71037 71951
L70980 71923
L70896 71923
L70840 71951
L70812 71979
" />
<path d="M71571 72289
L71515 72317
L71402 72317
L71346 72289
L71318 72232
L71318 72007
L71346 71951
L71402 71923
L71515 71923
L71571 71951
L71599 72007
L71599 72064
L71318 72120
" />
<path d="M72077 72289
L72021 72317
L71908 72317
L71852 72289
L71824 72232
L71824 72007
L71852 71951
L71908 71923
L72021 71923
L72077 71951
L72105 72007
L72105 72064
L71824 72120
" />
<path d="M72274 71923
L72499 71923
" />
<path d="M72358 71726
L72358 72232
L72386 72289
L72443 72317
L72499 72317
" />
<path d="M72696 72260
L72724 72289
L72696 72317
L72668 72289
L72696 72260
L72696 72317
" />
<path d="M72696 71951
L72724 71979
L72696 72007
L72668 71979
L72696 71951
L72696 72007
" />
</g>
<g style="fill:#000000; fill-opacity:0.0; 
stroke:#000000; stroke-width:39.3701; stroke-opacity:1; 
stroke-linecap:round; stroke-linejoin:round;">
</g>
<g style="fill:#000000; fill-opacity:0.0; 
stroke:#000000; stroke-width:118.11; stroke-opacity:1; 
stroke-linecap:round; stroke-linejoin:round;">
<path d="M70212 70545
L70409 71136
L70606 70545
" />
<path d="M71028 71108
L70971 71136
L70859 71136
L70803 71108
L70775 71051
L70775 70826
L70803 70770
L70859 70742
L70971 70742
L71028 70770
L71056 70826
L71056 70883
L70775 70939
" />
<path d="M71281 70967
L71562 70967
" />
<path d="M71224 71136
L71421 70545
L71618 71136
" />
</g>
<g style="fill:#000000; fill-opacity:0.0; 
stroke:#000000; stroke-width:39.3701; stroke-opacity:1; 
stroke-linecap:round; stroke-linejoin:round;">
</g>
<g style="fill:#000000; fill-opacity:0.0; 
stroke:#000000; stroke-width:59.0551; stroke-opacity:1; 
stroke-linecap:round; stroke-linejoin:round;">
<path d="M77559 75396
L77559 76577
" />
</g>
<g style="fill:#000000; fill-opacity:0.0; 
stroke:#000000; stroke-width:39.3701; stroke-opacity:1; 
stroke-linecap:round; stroke-linejoin:round;">
</g>
<g style="fill:#000000; fill-opacity:0.0; 
stroke:#000000; stroke-width:59.0551; stroke-opacity:1; 
stroke-linecap:round; stroke-linejoin:round;">
<path d="M102756 75396
L102756 77955
" />
</g>
<g style="fill:#848400; fill-opacity:0.0; 
stroke:#848400; stroke-width:59.0551; stroke-opacity:1; 
stroke-linecap:round; stroke-linejoin:round;">
</g>
<g style="fill:#848400; fill-opacity:0.0; 
stroke:#848400; stroke-width:0; stroke-opacity:1; 
stroke-linecap:round; stroke-linejoin:round;">
</g>
<g style="fill:#848400; fill-opacity:1.0; 
stroke:#848400; stroke-width:0; stroke-opacity:1; 
stroke-linecap:round; stroke-linejoin:round;">
<polyline style="fill-rule:evenodd;"
points="41987,20712
41200,20712
41200,19925
41987,19925
41987,20712
" /> 
<circle cx="41594.5" cy="18818.9" r="393.5" /> 
</g>
<g style="fill:#848400; fill-opacity:1.0; 
stroke:#848400; stroke-width:39.3701; stroke-opacity:1; 
stroke-linecap:round; stroke-linejoin:round;">
</g>
<g style="fill:#848400; fill-opacity:1.0; 
stroke:#848400; stroke-width:0; stroke-opacity:1; 
stroke-linecap:round; stroke-linejoin:round;">
<circle cx="35909.4" cy="20322.8" r="314.961" /> 
</g>
<g style="fill:#848400; fill-opacity:1.0; 
stroke:#848400; stroke-width:39.3701; stroke-opacity:1; 
stroke-linecap:round; stroke-linejoin:round;">
</g>
<g style="fill:#848400; fill-opacity:1.0; 
stroke:#848400; stroke-width:0; stroke-opacity:1; 
stroke-linecap:round; stroke-linejoin:round;">
<polyline style="fill-rule:evenodd;"
points="35594,18629
36224,18629
36224,19259
35594,19259
35594,18629
" /> 
<polyline style="fill-rule:evenodd;"
points="39606,20633
38976,20633
38976,20003
39606,20003
39606,20633
" /> 
<circle cx="39291.3" cy="18940.9" r="314.961" /> 
</g>
<g style="fill:#848400; fill-opacity:1.0; 
stroke:#848400; stroke-width:39.3701; stroke-opacity:1; 
stroke-linecap:round; stroke-linejoin:round;">
</g>
<g style="fill:#848400; fill-opacity:1.0; 
stroke:#848400; stroke-width:0; stroke-opacity:1; 
stroke-linecap:round; stroke-linejoin:round;">
<circle cx="33622" cy="18818.9" r="393.5" /> 
</g>
<g style="fill:#848400; fill-opacity:1.0; 
stroke:#848400; stroke-width:39.3701; stroke-opacity:1; 
stroke-linecap:round; stroke-linejoin:round;">
</g>
<g style="fill:#848400; fill-opacity:1.0; 
stroke:#848400; stroke-width:0; stroke-opacity:1; 
stroke-linecap:round; stroke-linejoin:round;">
<polyline style="fill-rule:evenodd;"
points="34015,20712
33228,20712
33228,19925
34015,19925
34015,20712
" /> 
<circle cx="34598.4" cy="17740.2" r="393.701" /> 
</g>
<g style="fill:#848400; fill-opacity:1.0; 
stroke:#848400; stroke-width:39.3701; stroke-opacity:1; 
stroke-linecap:round; stroke-linejoin:round;">
</g>
<g style="fill:#848400; fill-opacity:1.0; 
stroke:#848400; stroke-width:0; stroke-opacity:1; 
stroke-linecap:round; stroke-linejoin:round;">
<circle cx="34598.4" cy="21535.4" r="393.701" /> 
</g>
<g style="fill:#848400; fill-opacity:1.0; 
stroke:#848400; stroke-width:39.3701; stroke-opacity:1; 
stroke-linecap:round; stroke-linejoin:round;">
</g>
<g style="fill:#008400; fill-opacity:1.0; 
stroke:#008400; stroke-width:39.3701; stroke-opacity:1; 
stroke-linecap:round; stroke-linejoin:round;">
</g>
<g style="fill:#008400; fill-opacity:1.0; 
stroke:#008400; stroke-width:0; stroke-opacity:1; 
stroke-linecap:round; stroke-linejoin:round;">
<polyline style="fill-rule:evenodd;"
points="40027,19330
40027,19645
39673,19645
39673,19330
40027,19330
" /> 
<polyline style="fill-rule:evenodd;"
points="40814,19704
40814,20019
40460,20019
40460,19704
40814,19704
" /> 
<polyline style="fill-rule:evenodd;"
points="40814,18956
40814,19271
40460,19271
40460,18956
40814,18956
" /> 
<polyline style="fill-rule:evenodd;"
points="37578,19919
37588,19921
37597,19923
37606,19926
37615,19930
37623,19935
37631,19941
37638,19948
37644,19955
37650,19963
37655,19971
37659,19980
37663,19989
37665,19998
37666,20008
37667,20017
37667,20381
37666,20391
37665,20401
37663,20410
37659,20419
37655,20428
37650,20436
37644,20444
37638,20451
37631,20457
37623,20463
37615,20468
37606,20472
37597,20476
37588,20478
37578,20479
37568,20480
37076,20480
37067,20479
37057,20478
37048,20476
37039,20472
37030,20468
37022,20463
37014,20457
37007,20451
37000,20444
36994,20436
36989,20428
36985,20419
36982,20410
36980,20401
36978,20391
36978,20381
36978,20017
36978,20008
36980,19998
36982,19989
36985,19980
36989,19971
36994,19963
37000,19955
37007,19948
37014,19941
37022,19935
37030,19930
37039,19926
37048,19923
37057,19921
37067,19919
37076,19919
37568,19919
37578,19919
" /> 
<polyline style="fill-rule:evenodd;"
points="37578,18748
37588,18749
37597,18752
37606,18755
37615,18759
37623,18764
37631,18770
37638,18776
37644,18784
37650,18791
37655,18800
37659,18808
37663,18817
37665,18827
37666,18836
37667,18846
37667,19210
37666,19220
37665,19229
37663,19239
37659,19248
37655,19257
37650,19265
37644,19273
37638,19280
37631,19286
37623,19292
37615,19297
37606,19301
37597,19304
37588,19307
37578,19308
37568,19309
37076,19309
37067,19308
37057,19307
37048,19304
37039,19301
37030,19297
37022,19292
37014,19286
37007,19280
37000,19273
36994,19265
36989,19257
36985,19248
36982,19239
36980,19229
36978,19220
36978,19210
36978,18846
36978,18836
36980,18827
36982,18817
36985,18808
36989,18800
36994,18791
37000,18784
37007,18776
37014,18770
37022,18764
37030,18759
37039,18755
37048,18752
37057,18749
37067,18748
37076,18748
37568,18748
37578,18748
" /> 
<polyline style="fill-rule:evenodd;"
points="38651,17234
38660,17236
38670,17238
38679,17241
38688,17245
38696,17250
38704,17256
38711,17263
38717,17270
38723,17277
38728,17286
38732,17295
38735,17304
38738,17313
38739,17323
38740,17332
38740,17824
38739,17834
38738,17844
38735,17853
38732,17862
38728,17871
38723,17879
38717,17887
38711,17894
38704,17900
38696,17906
38688,17911
38679,17915
38670,17918
38660,17921
38651,17922
38641,17923
38277,17923
38267,17922
38258,17921
38248,17918
38239,17915
38231,17911
38222,17906
38215,17900
38207,17894
38201,17887
38195,17879
38190,17871
38186,17862
38183,17853
38181,17844
38179,17834
38179,17824
38179,17332
38179,17323
38181,17313
38183,17304
38186,17295
38190,17286
38195,17277
38201,17270
38207,17263
38215,17256
38222,17250
38231,17245
38239,17241
38248,17238
38258,17236
38267,17234
38277,17234
38641,17234
38651,17234
" /> 
<polyline style="fill-rule:evenodd;"
points="37480,17234
37489,17236
37499,17238
37508,17241
37516,17245
37525,17250
37532,17256
37540,17263
37546,17270
37552,17277
37557,17286
37561,17295
37564,17304
37567,17313
37568,17323
37568,17332
37568,17824
37568,17834
37567,17844
37564,17853
37561,17862
37557,17871
37552,17879
37546,17887
37540,17894
37532,17900
37525,17906
37516,17911
37508,17915
37499,17918
37489,17921
37480,17922
37470,17923
37106,17923
37096,17922
37087,17921
37077,17918
37068,17915
37059,17911
37051,17906
37043,17900
37036,17894
37030,17887
37024,17879
37019,17871
37015,17862
37012,17853
37009,17844
37008,17834
37007,17824
37007,17332
37008,17323
37009,17313
37012,17304
37015,17295
37019,17286
37024,17277
37030,17270
37036,17263
37043,17256
37051,17250
37059,17245
37068,17241
37077,17238
37087,17236
37096,17234
37106,17234
37470,17234
37480,17234
" /> 
<polyline style="fill-rule:evenodd;"
points="38613,19919
38623,19921
38632,19923
38641,19926
38650,19930
38659,19935
38666,19941
38673,19948
38680,19955
38686,19963
38691,19971
38695,19980
38698,19989
38700,19998
38702,20008
38702,20017
38702,20381
38702,20391
38700,20401
38698,20410
38695,20419
38691,20428
38686,20436
38680,20444
38673,20451
38666,20457
38659,20463
38650,20468
38641,20472
38632,20476
38623,20478
38613,20479
38604,20480
38112,20480
38102,20479
38093,20478
38083,20476
38074,20472
38065,20468
38057,20463
38049,20457
38042,20451
38036,20444
38030,20436
38025,20428
38021,20419
38018,20410
38015,20401
38014,20391
38013,20381
38013,20017
38014,20008
38015,19998
38018,19989
38021,19980
38025,19971
38030,19963
38036,19955
38042,19948
38049,19941
38057,19935
38065,19930
38074,19926
38083,19923
38093,19921
38102,19919
38112,19919
38604,19919
38613,19919
" /> 
<polyline style="fill-rule:evenodd;"
points="38613,18748
38623,18749
38632,18752
38641,18755
38650,18759
38659,18764
38666,18770
38673,18776
38680,18784
38686,18791
38691,18800
38695,18808
38698,18817
38700,18827
38702,18836
38702,18846
38702,19210
38702,19220
38700,19229
38698,19239
38695,19248
38691,19257
38686,19265
38680,19273
38673,19280
38666,19286
38659,19292
38650,19297
38641,19301
38632,19304
38623,19307
38613,19308
38604,19309
38112,19309
38102,19308
38093,19307
38083,19304
38074,19301
38065,19297
38057,19292
38049,19286
38042,19280
38036,19273
38030,19265
38025,19257
38021,19248
38018,19239
38015,19229
38014,19220
38013,19210
38013,18846
38014,18836
38015,18827
38018,18817
38021,18808
38025,18800
38030,18791
38036,18784
38042,18776
38049,18770
38057,18764
38065,18759
38074,18755
38083,18752
38093,18749
38102,18748
38112,18748
38604,18748
38613,18748
" /> 
<polyline style="fill-rule:evenodd;"
points="38265,20963
38275,20964
38284,20966
38293,20970
38302,20974
38310,20979
38318,20984
38325,20991
38331,20998
38337,21006
38342,21014
38346,21023
38350,21032
38352,21041
38353,21051
38354,21061
38354,21553
38353,21562
38352,21572
38350,21581
38346,21590
38342,21599
38337,21607
38331,21615
38325,21622
38318,21629
38310,21634
38302,21639
38293,21644
38284,21647
38275,21649
38265,21651
38255,21651
37891,21651
37882,21651
37872,21649
37863,21647
37854,21644
37845,21639
37837,21634
37829,21629
37822,21622
37815,21615
37809,21607
37804,21599
37800,21590
37797,21581
37795,21572
37793,21562
37793,21553
37793,21061
37793,21051
37795,21041
37797,21032
37800,21023
37804,21014
37809,21006
37815,20998
37822,20991
37829,20984
37837,20979
37845,20974
37854,20970
37863,20966
37872,20964
37882,20963
37891,20962
38255,20962
38265,20963
" /> 
<polyline style="fill-rule:evenodd;"
points="37094,20963
37103,20964
37113,20966
37122,20970
37131,20974
37139,20979
37147,20984
37154,20991
37160,20998
37166,21006
37171,21014
37175,21023
37178,21032
37181,21041
37182,21051
37183,21061
37183,21553
37182,21562
37181,21572
37178,21581
37175,21590
37171,21599
37166,21607
37160,21615
37154,21622
37147,21629
37139,21634
37131,21639
37122,21644
37113,21647
37103,21649
37094,21651
37084,21651
36720,21651
36710,21651
36701,21649
36691,21647
36682,21644
36674,21639
36665,21634
36658,21629
36650,21622
36644,21615
36638,21607
36633,21599
36629,21590
36626,21581
36623,21572
36622,21562
36622,21553
36622,21061
36622,21051
36623,21041
36626,21032
36629,21023
36633,21014
36638,21006
36644,20998
36650,20991
36658,20984
36665,20979
36674,20974
36682,20970
36691,20966
36701,20964
36710,20963
36720,20962
37084,20962
37094,20963
" /> 
</g>
<g style="fill:#008400; fill-opacity:1.0; 
stroke:#008400; stroke-width:393.701; stroke-opacity:1; 
stroke-linecap:round; stroke-linejoin:round;">
</g>
<g style="fill:#008400; fill-opacity:0.0; 
stroke:#008400; stroke-width:393.701; stroke-opacity:1; 
stroke-linecap:round; stroke-linejoin:round;">
<path d="M40618 19114
L39814 18311
" />
<path d="M40637 19114
L40618 19114
" />
<path d="M35985 19020
L35909 18944
" />
<path d="M37322 19028
L36662 19028
" />
<path d="M36618 18944
L35909 18944
" />
<path d="M36662 18989
L36618 18944
" />
<path d="M36662 19028
L36662 18989
" />
<path d="M37322 17613
L37288 17578
" />
<path d="M37346 18311
L37322 18334
" />
<path d="M39814 18311
L37346 18311
" />
<path d="M37322 19028
L37322 18334
" />
<path d="M37322 18334
L37322 17613
" />
<path d="M39203 19028
L39291 18940
" />
<path d="M38358 19028
L39203 19028
" />
<path d="M39838 19488
L39291 18940
" />
<path d="M39850 19488
L39838 19488
" />
<path d="M38073 21307
L40055 21307
" />
<path d="M40637 20724
L40637 19862
" />
<path d="M40055 21307
L40637 20724
" />
<path d="M36718 20199
L37322 20199
" />
<path d="M36211 19692
L36718 20199
" />
<path d="M35460 19692
L36211 19692
" />
<path d="M34598 17740
L34598 18830
" />
<path d="M34598 18830
L35460 19692
" />
<path d="M37322 20199
L38358 20199
" />
</g>
<g style="fill:#008400; fill-opacity:1.0; 
stroke:#008400; stroke-width:100; stroke-opacity:1; 
stroke-linecap:round; stroke-linejoin:round;">
<polyline style="fill-rule:evenodd;"
points="36857,17229
36836,17332
36836,17824
36857,17928
36915,18015
36957,18043
36957,18298
36950,18334
36957,18370
36957,18370
36957,18370
36957,18607
36885,18655
36880,18663
36854,18663
36760,18601
36654,18579
36654,18579
36618,18572
36582,18579
36385,18579
36382,18564
36345,18508
36290,18471
36224,18458
35594,18458
35528,18471
35473,18508
35436,18564
35423,18629
35423,19139
34963,18679
34963,18169
35074,18058
35160,17851
35160,17628
35074,17421
34916,17263
34710,17178
34486,17178
34280,17263
34122,17421
34036,17628
34036,17851
34122,18058
34233,18169
34233,18794
34226,18830
34254,18970
34254,18973
34335,19093
34365,19114
35177,19925
35197,19956
35269,20003
35318,20036
35318,20036
35318,20036
35424,20057
35460,20065
35496,20057
35426,20226
35426,20418
35499,20596
35635,20732
35813,20805
36005,20805
36183,20732
36318,20596
36392,20418
36392,20389
36435,20432
36455,20462
36556,20530
36576,20543
36576,20543
36576,20543
36682,20564
36718,20571
36754,20564
36880,20564
36885,20572
36973,20631
37076,20651
37568,20651
37672,20631
37759,20572
37764,20564
37916,20564
37921,20572
38008,20631
38112,20651
38604,20651
38707,20631
38795,20572
38804,20557
38804,20633
38818,20699
38855,20755
38910,20792
38976,20805
39606,20805
39671,20792
39727,20755
39764,20699
39777,20633
39777,20003
39764,19938
39727,19882
39671,19845
39606,19832
38976,19832
38910,19845
38855,19882
38843,19899
38795,19826
38707,19768
38604,19747
38112,19747
38008,19768
37921,19826
37916,19834
37764,19834
37759,19826
37672,19768
37568,19747
37076,19747
36973,19768
36885,19826
36880,19834
36869,19834
36495,19460
36474,19429
36363,19355
36382,19325
36385,19309
36426,19309
36520,19372
36662,19400
36698,19393
36880,19393
36885,19401
36973,19459
37076,19480
37568,19480
37672,19459
37759,19401
37818,19313
37838,19210
37838,18846
37818,18743
37773,18675
37907,18675
37862,18743
37842,18846
37842,19210
37862,19313
37921,19401
38008,19459
38112,19480
38604,19480
38707,19459
38795,19401
38800,19393
39121,19393
39195,19424
39258,19424
39507,19672
39514,19711
39552,19766
39607,19804
39673,19817
39673,19817
39696,19831
39802,19853
39802,19853
39838,19860
39874,19853
39886,19853
39992,19831
40015,19817
40027,19817
40093,19804
40148,19766
40185,19711
40198,19645
40198,19606
40222,19488
40198,19369
40198,19330
40185,19265
40148,19209
40093,19172
40027,19159
40025,19159
39774,18907
39774,18844
39733,18745
40296,19308
40302,19337
40339,19392
40395,19430
40450,19441
40475,19457
40582,19479
40582,19479
40618,19486
40654,19479
40673,19479
40780,19457
40802,19443
40814,19443
40880,19430
40936,19392
40973,19337
40986,19272
41211,19272
41250,19377
41490,19466
41746,19457
41938,19377
41977,19272
41594,18889
41211,19272
40986,19272
40986,19271
40986,19232
41009,19114
41004,19087
41035,19162
41140,19201
41523,18818
41140,18436
41035,18474
40946,18714
40952,18859
40936,18835
40880,18798
40814,18785
40805,18785
40385,18365
41211,18365
41594,18748
41977,18365
41938,18260
41698,18171
41442,18180
41250,18260
41211,18365
40385,18365
40098,18078
40078,18047
39957,17967
39850,17946
39850,17946
39814,17938
39779,17946
38990,17946
38990,17691
38927,17628
38509,17628
38509,17636
38409,17636
38409,17628
37991,17628
37929,17691
37929,17946
37707,17946
37719,17928
37740,17824
37740,17332
37719,17229
37684,17175
37932,17175
37929,17184
37929,17466
37991,17528
38409,17528
38409,17520
38509,17520
38509,17528
38927,17528
38990,17466
38990,17184
38986,17175
42115,17175
42115,18460
42048,18436
41665,18818
42048,19201
42115,19176
42115,19813
42109,19804
42053,19767
41987,19753
41200,19753
41135,19767
41079,19804
41042,19859
41029,19925
41029,20712
41042,20777
41079,20833
41135,20870
41200,20883
41987,20883
42053,20870
42109,20833
42115,20824
42115,22075
34949,22075
34981,21989
34598,21606
34215,21989
34247,22075
33002,22075
33002,21431
33950,21431
33959,21687
34039,21879
34144,21918
34527,21535
34669,21535
35052,21918
35157,21879
35246,21639
35238,21419
36372,21419
36372,21701
36410,21793
36480,21863
36572,21901
36790,21901
36852,21839
36852,21357
36952,21357
36952,21839
37015,21901
37232,21901
37324,21863
37395,21793
37433,21701
37433,21419
37370,21357
36952,21357
36852,21357
36434,21357
36372,21419
35238,21419
35236,21383
35157,21191
35052,21152
34669,21535
34527,21535
34144,21152
34039,21191
33950,21431
33002,21431
33002,21081
34215,21081
34598,21464
34981,21081
34942,20976
34771,20912
36372,20912
36372,21194
36434,21257
36852,21257
36852,20775
36952,20775
36952,21257
37370,21257
37433,21194
37433,21061
37621,21061
37621,21553
37642,21656
37700,21743
37788,21802
37891,21822
38255,21822
38359,21802
38446,21743
38494,21672
40019,21672
40055,21679
40091,21672
40091,21672
40197,21650
40318,21570
40338,21539
40870,21007
40900,20987
40981,20866
41002,20760
41002,20760
41009,20724
41002,20688
41002,19826
40986,19743
40986,19704
40973,19639
40936,19583
40880,19546
40814,19533
40802,19533
40780,19518
40637,19490
40495,19518
40473,19533
40460,19533
40395,19546
40339,19583
40302,19639
40289,19704
40289,19743
40272,19826
40272,20573
39903,20942
38494,20942
38446,20870
38359,20811
38255,20791
37891,20791
37788,20811
37700,20870
37642,20957
37621,21061
37433,21061
37433,20912
37395,20820
37324,20750
37232,20712
37015,20712
36952,20775
36852,20775
36790,20712
36572,20712
36480,20750
36410,20820
36372,20912
34771,20912
34702,20887
34446,20896
34254,20976
34215,21081
33002,21081
33002,20820
33016,20854
33086,20924
33178,20962
33509,20962
33572,20899
33572,20368
33672,20368
33672,20899
33734,20962
34065,20962
34157,20924
34227,20854
34265,20762
34265,20431
34203,20368
33672,20368
33572,20368
33564,20368
33564,20268
33572,20268
33572,19737
33672,19737
33672,20268
34203,20268
34265,20206
34265,19875
34227,19783
34157,19713
34065,19675
33734,19675
33672,19737
33572,19737
33509,19675
33178,19675
33086,19713
33016,19783
33002,19817
33002,18707
33060,18707
33060,18930
33145,19137
33303,19295
33510,19380
33733,19380
33940,19295
34098,19137
34183,18930
34183,18707
34098,18500
33940,18342
33733,18257
33510,18257
33303,18342
33145,18500
33060,18707
33002,18707
33002,17175
36892,17175
36857,17229
" /> 
</g>
<g style="fill:#FFFFFF; fill-opacity:1.0; 
stroke:#FFFFFF; stroke-width:100; stroke-opacity:1; 
stroke-linecap:round; stroke-linejoin:round;">
</g>
<g style="fill:#FFFFFF; fill-opacity:1.0; 
stroke:#FFFFFF; stroke-width:0; stroke-opacity:1; 
stroke-linecap:round; stroke-linejoin:round;">
<circle cx="41594.5" cy="20318.9" r="157.5" /> 
</g>
<g style="fill:#FFFFFF; fill-opacity:1.0; 
stroke:#FFFFFF; stroke-width:39.3701; stroke-opacity:1; 
stroke-linecap:round; stroke-linejoin:round;">
</g>
<g style="fill:#FFFFFF; fill-opacity:1.0; 
stroke:#FFFFFF; stroke-width:0; stroke-opacity:1; 
stroke-linecap:round; stroke-linejoin:round;">
<circle cx="41594.5" cy="18818.9" r="157.5" /> 
</g>
<g style="fill:#FFFFFF; fill-opacity:1.0; 
stroke:#FFFFFF; stroke-width:39.3701; stroke-opacity:1; 
stroke-linecap:round; stroke-linejoin:round;">
</g>
<g style="fill:#FFFFFF; fill-opacity:1.0; 
stroke:#FFFFFF; stroke-width:0; stroke-opacity:1; 
stroke-linecap:round; stroke-linejoin:round;">
<circle cx="35909.4" cy="20322.8" r="157.48" /> 
</g>
<g style="fill:#FFFFFF; fill-opacity:1.0; 
stroke:#FFFFFF; stroke-width:39.3701; stroke-opacity:1; 
stroke-linecap:round; stroke-linejoin:round;">
</g>
<g style="fill:#FFFFFF; fill-opacity:1.0; 
stroke:#FFFFFF; stroke-width:0; stroke-opacity:1; 
stroke-linecap:round; stroke-linejoin:round;">
<circle cx="35909.4" cy="18944.9" r="157.48" /> 
</g>
<g style="fill:#FFFFFF; fill-opacity:1.0; 
stroke:#FFFFFF; stroke-width:39.3701; stroke-opacity:1; 
stroke-linecap:round; stroke-linejoin:round;">
</g>
<g style="fill:#FFFFFF; fill-opacity:1.0; 
stroke:#FFFFFF; stroke-width:0; stroke-opacity:1; 
stroke-linecap:round; stroke-linejoin:round;">
<circle cx="39291.3" cy="20318.9" r="157.48" /> 
</g>
<g style="fill:#FFFFFF; fill-opacity:1.0; 
stroke:#FFFFFF; stroke-width:39.3701; stroke-opacity:1; 
stroke-linecap:round; stroke-linejoin:round;">
</g>
<g style="fill:#FFFFFF; fill-opacity:1.0; 
stroke:#FFFFFF; stroke-width:0; stroke-opacity:1; 
stroke-linecap:round; stroke-linejoin:round;">
<circle cx="39291.3" cy="18940.9" r="157.48" /> 
</g>
<g style="fill:#FFFFFF; fill-opacity:1.0; 
stroke:#FFFFFF; stroke-width:39.3701; stroke-opacity:1; 
stroke-linecap:round; stroke-linejoin:round;">
</g>
<g style="fill:#FFFFFF; fill-opacity:1.0; 
stroke:#FFFFFF; stroke-width:0; stroke-opacity:1; 
stroke-linecap:round; stroke-linejoin:round;">
<circle cx="33622" cy="18818.9" r="157.5" /> 
</g>
<g style="fill:#FFFFFF; fill-opacity:1.0; 
stroke:#FFFFFF; stroke-width:39.3701; stroke-opacity:1; 
stroke-linecap:round; stroke-linejoin:round;">
</g>
<g style="fill:#FFFFFF; fill-opacity:1.0; 
stroke:#FFFFFF; stroke-width:0; stroke-opacity:1; 
stroke-linecap:round; stroke-linejoin:round;">
<circle cx="33622" cy="20318.9" r="157.5" /> 
</g>
<g style="fill:#FFFFFF; fill-opacity:1.0; 
stroke:#FFFFFF; stroke-width:39.3701; stroke-opacity:1; 
stroke-linecap:round; stroke-linejoin:round;">
</g>
<g style="fill:#FFFFFF; fill-opacity:1.0; 
stroke:#FFFFFF; stroke-width:0; stroke-opacity:1; 
stroke-linecap:round; stroke-linejoin:round;">
<circle cx="34598.4" cy="17740.2" r="196.85" /> 
</g>
<g style="fill:#FFFFFF; fill-opacity:1.0; 
stroke:#FFFFFF; stroke-width:39.3701; stroke-opacity:1; 
stroke-linecap:round; stroke-linejoin:round;">
</g>
<g style="fill:#FFFFFF; fill-opacity:1.0; 
stroke:#FFFFFF; stroke-width:0; stroke-opacity:1; 
stroke-linecap:round; stroke-linejoin:round;">
<circle cx="34598.4" cy="21535.4" r="196.85" /> 
</g>
<g style="fill:#FFFFFF; fill-opacity:1.0; 
stroke:#FFFFFF; stroke-width:39.3701; stroke-opacity:1; 
stroke-linecap:round; stroke-linejoin:round;">
</g>
<g style="fill:#000000; fill-opacity:1.0; 
stroke:#000000; stroke-width:39.3701; stroke-opacity:1; 
stroke-linecap:round; stroke-linejoin:round;">
</g>
<g style="fill:#C2C200; fill-opacity:1.0; 
stroke:#C2C200; stroke-width:39.3701; stroke-opacity:1; 
stroke-linecap:round; stroke-linejoin:round;">
</g>
<g style="fill:#C2C200; fill-opacity:1.0; 
stroke:#C2C200; stroke-width:78.7402; stroke-opacity:1; 
stroke-linecap:round; stroke-linejoin:round;">
</g>
<g style="fill:#C2C200; fill-opacity:0.0; 
stroke:#C2C200; stroke-width:78.7402; stroke-opacity:1; 
stroke-linecap:round; stroke-linejoin:round;">
<path d="M42283 17007
L42283 22244
" />
<path d="M32834 17007
L42283 17007
" />
<path d="M32834 22244
L42283 22244
" />
<path d="M32834 17007
L32834 22244
" />
</g> 
</svg>
