G04 #@! TF.GenerationSoftware,KiCad,Pcbnew,(5.0.1)-3*
G04 #@! TF.CreationDate,2020-05-05T20:51:12+03:00*
G04 #@! TF.ProjectId,VienaTranPastiprinatajs,5669656E615472616E50617374697072,rev?*
G04 #@! TF.SameCoordinates,Original*
G04 #@! TF.FileFunction,Copper,L1,Top,Signal*
G04 #@! TF.FilePolarity,Positive*
%FSLAX46Y46*%
G04 Gerber Fmt 4.6, Leading zero omitted, Abs format (unit mm)*
G04 Created by KiCad (PCBNEW (5.0.1)-3) date 05-May-20 8:51:12 PM*
%MOMM*%
%LPD*%
G01*
G04 APERTURE LIST*
G04 #@! TA.AperFunction,ComponentPad*
%ADD10R,1.998980X1.998980*%
G04 #@! TD*
G04 #@! TA.AperFunction,ComponentPad*
%ADD11C,1.998980*%
G04 #@! TD*
G04 #@! TA.AperFunction,ComponentPad*
%ADD12C,1.600000*%
G04 #@! TD*
G04 #@! TA.AperFunction,ComponentPad*
%ADD13R,1.600000X1.600000*%
G04 #@! TD*
G04 #@! TA.AperFunction,ComponentPad*
%ADD14C,2.000000*%
G04 #@! TD*
G04 #@! TA.AperFunction,Conductor*
%ADD15C,1.600000*%
G04 #@! TD*
G04 #@! TA.AperFunction,Conductor*
%ADD16C,0.254000*%
G04 #@! TD*
G04 #@! TA.AperFunction,NonConductor*
%ADD17C,0.254000*%
G04 #@! TD*
G04 APERTURE END LIST*
D10*
G04 #@! TO.P,out,1*
G04 #@! TO.N,Net-(8_Ohm1-Pad1)*
X105650000Y-51610000D03*
D11*
G04 #@! TO.P,out,2*
G04 #@! TO.N,GNDREF*
X105650000Y-47800000D03*
G04 #@! TD*
D12*
G04 #@! TO.P,C1,2*
G04 #@! TO.N,Net-(C1-Pad2)*
X91210000Y-51620000D03*
D13*
G04 #@! TO.P,C1,1*
G04 #@! TO.N,Net-(C1-Pad1)*
X91210000Y-48120000D03*
G04 #@! TD*
G04 #@! TO.P,C2,1*
G04 #@! TO.N,Net-(8_Ohm1-Pad1)*
X99800000Y-51610000D03*
D12*
G04 #@! TO.P,C2,2*
G04 #@! TO.N,Net-(C2-Pad2)*
X99800000Y-48110000D03*
G04 #@! TD*
D11*
G04 #@! TO.P,in,2*
G04 #@! TO.N,Net-(C1-Pad2)*
X85400000Y-47800000D03*
D10*
G04 #@! TO.P,in,1*
G04 #@! TO.N,GNDREF*
X85400000Y-51610000D03*
G04 #@! TD*
D14*
G04 #@! TO.P,+5V,1*
G04 #@! TO.N,+5V*
X87880000Y-45060000D03*
G04 #@! TD*
G04 #@! TO.P,GND,1*
G04 #@! TO.N,GNDREF*
X87880000Y-54700000D03*
G04 #@! TD*
D15*
G04 #@! TO.N,Net-(8_Ohm1-Pad1)*
X105650000Y-51610000D02*
X99800000Y-51610000D01*
G04 #@! TO.N,Net-(C1-Pad2)*
X87390000Y-47800000D02*
X91210000Y-51620000D01*
X85400000Y-47800000D02*
X87390000Y-47800000D01*
G04 #@! TD*
D16*
G04 #@! TO.N,GNDREF*
G36*
X106665000Y-46605392D02*
X106622556Y-46647836D01*
X106523958Y-46381035D01*
X105914418Y-46154599D01*
X105264623Y-46178659D01*
X104776042Y-46381035D01*
X104677443Y-46647837D01*
X105650000Y-47620395D01*
X105664142Y-47606252D01*
X105843748Y-47785858D01*
X105829605Y-47800000D01*
X105843748Y-47814143D01*
X105664142Y-47993748D01*
X105650000Y-47979605D01*
X104677443Y-48952163D01*
X104776042Y-49218965D01*
X105385582Y-49445401D01*
X106035377Y-49421341D01*
X106523958Y-49218965D01*
X106622556Y-48952164D01*
X106665000Y-48994608D01*
X106665001Y-49966155D01*
X106649490Y-49963070D01*
X104650510Y-49963070D01*
X104402745Y-50012353D01*
X104192701Y-50152701D01*
X104177801Y-50175000D01*
X100662541Y-50175000D01*
X100600000Y-50162560D01*
X99000000Y-50162560D01*
X98752235Y-50211843D01*
X98542191Y-50352191D01*
X98401843Y-50562235D01*
X98352560Y-50810000D01*
X98352560Y-51531207D01*
X98336887Y-51610000D01*
X98352560Y-51688793D01*
X98352560Y-52410000D01*
X98401843Y-52657765D01*
X98542191Y-52867809D01*
X98752235Y-53008157D01*
X99000000Y-53057440D01*
X100600000Y-53057440D01*
X100662541Y-53045000D01*
X104177801Y-53045000D01*
X104192701Y-53067299D01*
X104402745Y-53207647D01*
X104650510Y-53256930D01*
X106649490Y-53256930D01*
X106665001Y-53253845D01*
X106665001Y-55765000D01*
X89124608Y-55765000D01*
X89032534Y-55672926D01*
X89299387Y-55574264D01*
X89525908Y-54964539D01*
X89501856Y-54314540D01*
X89299387Y-53825736D01*
X89032532Y-53727073D01*
X88059605Y-54700000D01*
X88073748Y-54714143D01*
X87894143Y-54893748D01*
X87880000Y-54879605D01*
X87865858Y-54893748D01*
X87686253Y-54714143D01*
X87700395Y-54700000D01*
X86727468Y-53727073D01*
X86460613Y-53825736D01*
X86234092Y-54435461D01*
X86258144Y-55085460D01*
X86460613Y-55574264D01*
X86727466Y-55672926D01*
X86635392Y-55765000D01*
X84135000Y-55765000D01*
X84135000Y-53547468D01*
X86907073Y-53547468D01*
X87880000Y-54520395D01*
X88852927Y-53547468D01*
X88754264Y-53280613D01*
X88144539Y-53054092D01*
X87494540Y-53078144D01*
X87005736Y-53280613D01*
X86907073Y-53547468D01*
X84135000Y-53547468D01*
X84135000Y-53186831D01*
X84274200Y-53244490D01*
X85114250Y-53244490D01*
X85273000Y-53085740D01*
X85273000Y-51737000D01*
X85527000Y-51737000D01*
X85527000Y-53085740D01*
X85685750Y-53244490D01*
X86525800Y-53244490D01*
X86759189Y-53147817D01*
X86937817Y-52969188D01*
X87034490Y-52735799D01*
X87034490Y-51895750D01*
X86875740Y-51737000D01*
X85527000Y-51737000D01*
X85273000Y-51737000D01*
X85253000Y-51737000D01*
X85253000Y-51483000D01*
X85273000Y-51483000D01*
X85273000Y-50134260D01*
X85527000Y-50134260D01*
X85527000Y-51483000D01*
X86875740Y-51483000D01*
X87034490Y-51324250D01*
X87034490Y-50484201D01*
X86937817Y-50250812D01*
X86759189Y-50072183D01*
X86525800Y-49975510D01*
X85685750Y-49975510D01*
X85527000Y-50134260D01*
X85273000Y-50134260D01*
X85114250Y-49975510D01*
X84274200Y-49975510D01*
X84135000Y-50033169D01*
X84135000Y-48846518D01*
X84474136Y-49185654D01*
X85074880Y-49434490D01*
X85725120Y-49434490D01*
X86206732Y-49235000D01*
X86795605Y-49235000D01*
X89993466Y-52432862D01*
X90397138Y-52836534D01*
X90530274Y-52891681D01*
X90650091Y-52971740D01*
X90791423Y-52999853D01*
X90924561Y-53055000D01*
X91068670Y-53055000D01*
X91210000Y-53083112D01*
X91351330Y-53055000D01*
X91495439Y-53055000D01*
X91628577Y-52999853D01*
X91769909Y-52971740D01*
X91889726Y-52891681D01*
X92022862Y-52836534D01*
X92124760Y-52734636D01*
X92244577Y-52654577D01*
X92324636Y-52534760D01*
X92426534Y-52432862D01*
X92481681Y-52299726D01*
X92561740Y-52179909D01*
X92589853Y-52038577D01*
X92645000Y-51905439D01*
X92645000Y-51761330D01*
X92673112Y-51620000D01*
X92645000Y-51478670D01*
X92645000Y-51334561D01*
X92589853Y-51201423D01*
X92561740Y-51060091D01*
X92481681Y-50940274D01*
X92426534Y-50807138D01*
X91186836Y-49567440D01*
X92010000Y-49567440D01*
X92257765Y-49518157D01*
X92467809Y-49377809D01*
X92608157Y-49167765D01*
X92657440Y-48920000D01*
X92657440Y-47824561D01*
X98365000Y-47824561D01*
X98365000Y-48395439D01*
X98583466Y-48922862D01*
X98987138Y-49326534D01*
X99514561Y-49545000D01*
X100085439Y-49545000D01*
X100612862Y-49326534D01*
X101016534Y-48922862D01*
X101235000Y-48395439D01*
X101235000Y-47824561D01*
X101115301Y-47535582D01*
X104004599Y-47535582D01*
X104028659Y-48185377D01*
X104231035Y-48673958D01*
X104497837Y-48772557D01*
X105470395Y-47800000D01*
X104497837Y-46827443D01*
X104231035Y-46926042D01*
X104004599Y-47535582D01*
X101115301Y-47535582D01*
X101016534Y-47297138D01*
X100612862Y-46893466D01*
X100085439Y-46675000D01*
X99514561Y-46675000D01*
X98987138Y-46893466D01*
X98583466Y-47297138D01*
X98365000Y-47824561D01*
X92657440Y-47824561D01*
X92657440Y-47320000D01*
X92608157Y-47072235D01*
X92467809Y-46862191D01*
X92257765Y-46721843D01*
X92010000Y-46672560D01*
X90410000Y-46672560D01*
X90162235Y-46721843D01*
X89952191Y-46862191D01*
X89811843Y-47072235D01*
X89762560Y-47320000D01*
X89762560Y-48143165D01*
X88504638Y-46885243D01*
X88424577Y-46765423D01*
X88275571Y-46665860D01*
X88806153Y-46446086D01*
X89266086Y-45986153D01*
X89515000Y-45385222D01*
X89515000Y-44734778D01*
X89266086Y-44133847D01*
X89067239Y-43935000D01*
X106665000Y-43935000D01*
X106665000Y-46605392D01*
X106665000Y-46605392D01*
G37*
X106665000Y-46605392D02*
X106622556Y-46647836D01*
X106523958Y-46381035D01*
X105914418Y-46154599D01*
X105264623Y-46178659D01*
X104776042Y-46381035D01*
X104677443Y-46647837D01*
X105650000Y-47620395D01*
X105664142Y-47606252D01*
X105843748Y-47785858D01*
X105829605Y-47800000D01*
X105843748Y-47814143D01*
X105664142Y-47993748D01*
X105650000Y-47979605D01*
X104677443Y-48952163D01*
X104776042Y-49218965D01*
X105385582Y-49445401D01*
X106035377Y-49421341D01*
X106523958Y-49218965D01*
X106622556Y-48952164D01*
X106665000Y-48994608D01*
X106665001Y-49966155D01*
X106649490Y-49963070D01*
X104650510Y-49963070D01*
X104402745Y-50012353D01*
X104192701Y-50152701D01*
X104177801Y-50175000D01*
X100662541Y-50175000D01*
X100600000Y-50162560D01*
X99000000Y-50162560D01*
X98752235Y-50211843D01*
X98542191Y-50352191D01*
X98401843Y-50562235D01*
X98352560Y-50810000D01*
X98352560Y-51531207D01*
X98336887Y-51610000D01*
X98352560Y-51688793D01*
X98352560Y-52410000D01*
X98401843Y-52657765D01*
X98542191Y-52867809D01*
X98752235Y-53008157D01*
X99000000Y-53057440D01*
X100600000Y-53057440D01*
X100662541Y-53045000D01*
X104177801Y-53045000D01*
X104192701Y-53067299D01*
X104402745Y-53207647D01*
X104650510Y-53256930D01*
X106649490Y-53256930D01*
X106665001Y-53253845D01*
X106665001Y-55765000D01*
X89124608Y-55765000D01*
X89032534Y-55672926D01*
X89299387Y-55574264D01*
X89525908Y-54964539D01*
X89501856Y-54314540D01*
X89299387Y-53825736D01*
X89032532Y-53727073D01*
X88059605Y-54700000D01*
X88073748Y-54714143D01*
X87894143Y-54893748D01*
X87880000Y-54879605D01*
X87865858Y-54893748D01*
X87686253Y-54714143D01*
X87700395Y-54700000D01*
X86727468Y-53727073D01*
X86460613Y-53825736D01*
X86234092Y-54435461D01*
X86258144Y-55085460D01*
X86460613Y-55574264D01*
X86727466Y-55672926D01*
X86635392Y-55765000D01*
X84135000Y-55765000D01*
X84135000Y-53547468D01*
X86907073Y-53547468D01*
X87880000Y-54520395D01*
X88852927Y-53547468D01*
X88754264Y-53280613D01*
X88144539Y-53054092D01*
X87494540Y-53078144D01*
X87005736Y-53280613D01*
X86907073Y-53547468D01*
X84135000Y-53547468D01*
X84135000Y-53186831D01*
X84274200Y-53244490D01*
X85114250Y-53244490D01*
X85273000Y-53085740D01*
X85273000Y-51737000D01*
X85527000Y-51737000D01*
X85527000Y-53085740D01*
X85685750Y-53244490D01*
X86525800Y-53244490D01*
X86759189Y-53147817D01*
X86937817Y-52969188D01*
X87034490Y-52735799D01*
X87034490Y-51895750D01*
X86875740Y-51737000D01*
X85527000Y-51737000D01*
X85273000Y-51737000D01*
X85253000Y-51737000D01*
X85253000Y-51483000D01*
X85273000Y-51483000D01*
X85273000Y-50134260D01*
X85527000Y-50134260D01*
X85527000Y-51483000D01*
X86875740Y-51483000D01*
X87034490Y-51324250D01*
X87034490Y-50484201D01*
X86937817Y-50250812D01*
X86759189Y-50072183D01*
X86525800Y-49975510D01*
X85685750Y-49975510D01*
X85527000Y-50134260D01*
X85273000Y-50134260D01*
X85114250Y-49975510D01*
X84274200Y-49975510D01*
X84135000Y-50033169D01*
X84135000Y-48846518D01*
X84474136Y-49185654D01*
X85074880Y-49434490D01*
X85725120Y-49434490D01*
X86206732Y-49235000D01*
X86795605Y-49235000D01*
X89993466Y-52432862D01*
X90397138Y-52836534D01*
X90530274Y-52891681D01*
X90650091Y-52971740D01*
X90791423Y-52999853D01*
X90924561Y-53055000D01*
X91068670Y-53055000D01*
X91210000Y-53083112D01*
X91351330Y-53055000D01*
X91495439Y-53055000D01*
X91628577Y-52999853D01*
X91769909Y-52971740D01*
X91889726Y-52891681D01*
X92022862Y-52836534D01*
X92124760Y-52734636D01*
X92244577Y-52654577D01*
X92324636Y-52534760D01*
X92426534Y-52432862D01*
X92481681Y-52299726D01*
X92561740Y-52179909D01*
X92589853Y-52038577D01*
X92645000Y-51905439D01*
X92645000Y-51761330D01*
X92673112Y-51620000D01*
X92645000Y-51478670D01*
X92645000Y-51334561D01*
X92589853Y-51201423D01*
X92561740Y-51060091D01*
X92481681Y-50940274D01*
X92426534Y-50807138D01*
X91186836Y-49567440D01*
X92010000Y-49567440D01*
X92257765Y-49518157D01*
X92467809Y-49377809D01*
X92608157Y-49167765D01*
X92657440Y-48920000D01*
X92657440Y-47824561D01*
X98365000Y-47824561D01*
X98365000Y-48395439D01*
X98583466Y-48922862D01*
X98987138Y-49326534D01*
X99514561Y-49545000D01*
X100085439Y-49545000D01*
X100612862Y-49326534D01*
X101016534Y-48922862D01*
X101235000Y-48395439D01*
X101235000Y-47824561D01*
X101115301Y-47535582D01*
X104004599Y-47535582D01*
X104028659Y-48185377D01*
X104231035Y-48673958D01*
X104497837Y-48772557D01*
X105470395Y-47800000D01*
X104497837Y-46827443D01*
X104231035Y-46926042D01*
X104004599Y-47535582D01*
X101115301Y-47535582D01*
X101016534Y-47297138D01*
X100612862Y-46893466D01*
X100085439Y-46675000D01*
X99514561Y-46675000D01*
X98987138Y-46893466D01*
X98583466Y-47297138D01*
X98365000Y-47824561D01*
X92657440Y-47824561D01*
X92657440Y-47320000D01*
X92608157Y-47072235D01*
X92467809Y-46862191D01*
X92257765Y-46721843D01*
X92010000Y-46672560D01*
X90410000Y-46672560D01*
X90162235Y-46721843D01*
X89952191Y-46862191D01*
X89811843Y-47072235D01*
X89762560Y-47320000D01*
X89762560Y-48143165D01*
X88504638Y-46885243D01*
X88424577Y-46765423D01*
X88275571Y-46665860D01*
X88806153Y-46446086D01*
X89266086Y-45986153D01*
X89515000Y-45385222D01*
X89515000Y-44734778D01*
X89266086Y-44133847D01*
X89067239Y-43935000D01*
X106665000Y-43935000D01*
X106665000Y-46605392D01*
D17*
G36*
X88875963Y-47256568D02*
X88504638Y-46885243D01*
X88424577Y-46765423D01*
X88275571Y-46665860D01*
X88806153Y-46446086D01*
X89211509Y-46040730D01*
X88875963Y-47256568D01*
X88875963Y-47256568D01*
G37*
X88875963Y-47256568D02*
X88504638Y-46885243D01*
X88424577Y-46765423D01*
X88275571Y-46665860D01*
X88806153Y-46446086D01*
X89211509Y-46040730D01*
X88875963Y-47256568D01*
G36*
X86493914Y-44133847D02*
X86245000Y-44734778D01*
X86245000Y-45385222D01*
X86493914Y-45986153D01*
X86872761Y-46365000D01*
X86206732Y-46365000D01*
X85725120Y-46165510D01*
X85074880Y-46165510D01*
X84474136Y-46414346D01*
X84135000Y-46753482D01*
X84135000Y-43935000D01*
X86692761Y-43935000D01*
X86493914Y-44133847D01*
X86493914Y-44133847D01*
G37*
X86493914Y-44133847D02*
X86245000Y-44734778D01*
X86245000Y-45385222D01*
X86493914Y-45986153D01*
X86872761Y-46365000D01*
X86206732Y-46365000D01*
X85725120Y-46165510D01*
X85074880Y-46165510D01*
X84474136Y-46414346D01*
X84135000Y-46753482D01*
X84135000Y-43935000D01*
X86692761Y-43935000D01*
X86493914Y-44133847D01*
G36*
X89515000Y-44941044D02*
X89515000Y-44734778D01*
X89266086Y-44133847D01*
X89067239Y-43935000D01*
X89792648Y-43935000D01*
X89515000Y-44941044D01*
X89515000Y-44941044D01*
G37*
X89515000Y-44941044D02*
X89515000Y-44734778D01*
X89266086Y-44133847D01*
X89067239Y-43935000D01*
X89792648Y-43935000D01*
X89515000Y-44941044D01*
G04 #@! TD*
M02*
