G04 #@! TF.GenerationSoftware,KiCad,Pcbnew,(5.0.1)-3*
G04 #@! TF.CreationDate,2020-05-06T09:10:13+03:00*
G04 #@! TF.ProjectId,VienaTranPastiprinatajs,5669656E615472616E50617374697072,rev?*
G04 #@! TF.SameCoordinates,Original*
G04 #@! TF.FileFunction,Copper,L2,Bot,Signal*
G04 #@! TF.FilePolarity,Positive*
%FSLAX46Y46*%
G04 Gerber Fmt 4.6, Leading zero omitted, Abs format (unit mm)*
G04 Created by KiCad (PCBNEW (5.0.1)-3) date 06-May-20 9:10:13 AM*
%MOMM*%
%LPD*%
G01*
G04 APERTURE LIST*
G04 #@! TA.AperFunction,ComponentPad*
%ADD10R,1.998980X1.998980*%
G04 #@! TD*
G04 #@! TA.AperFunction,ComponentPad*
%ADD11C,1.998980*%
G04 #@! TD*
G04 #@! TA.AperFunction,ComponentPad*
%ADD12C,1.600000*%
G04 #@! TD*
G04 #@! TA.AperFunction,ComponentPad*
%ADD13R,1.600000X1.600000*%
G04 #@! TD*
G04 #@! TA.AperFunction,ComponentPad*
%ADD14C,2.000000*%
G04 #@! TD*
G04 #@! TA.AperFunction,SMDPad,CuDef*
%ADD15R,0.900000X0.800000*%
G04 #@! TD*
G04 #@! TA.AperFunction,Conductor*
%ADD16C,0.100000*%
G04 #@! TD*
G04 #@! TA.AperFunction,SMDPad,CuDef*
%ADD17C,1.425000*%
G04 #@! TD*
G04 #@! TA.AperFunction,Conductor*
%ADD18C,1.000000*%
G04 #@! TD*
G04 #@! TA.AperFunction,Conductor*
%ADD19C,0.254000*%
G04 #@! TD*
G04 APERTURE END LIST*
D10*
G04 #@! TO.P,out,1*
G04 #@! TO.N,Net-(8_Ohm1-Pad1)*
X105650000Y-51610000D03*
D11*
G04 #@! TO.P,out,2*
G04 #@! TO.N,GNDREF*
X105650000Y-47800000D03*
G04 #@! TD*
D12*
G04 #@! TO.P,C1,2*
G04 #@! TO.N,Net-(C1-Pad2)*
X91210000Y-51620000D03*
D13*
G04 #@! TO.P,C1,1*
G04 #@! TO.N,Net-(C1-Pad1)*
X91210000Y-48120000D03*
G04 #@! TD*
G04 #@! TO.P,C2,1*
G04 #@! TO.N,Net-(8_Ohm1-Pad1)*
X99800000Y-51610000D03*
D12*
G04 #@! TO.P,C2,2*
G04 #@! TO.N,Net-(C2-Pad2)*
X99800000Y-48110000D03*
G04 #@! TD*
D11*
G04 #@! TO.P,in,2*
G04 #@! TO.N,Net-(C1-Pad2)*
X85400000Y-47800000D03*
D10*
G04 #@! TO.P,in,1*
G04 #@! TO.N,GNDREF*
X85400000Y-51610000D03*
G04 #@! TD*
D14*
G04 #@! TO.P,+5V,1*
G04 #@! TO.N,+5V*
X87880000Y-45060000D03*
G04 #@! TD*
G04 #@! TO.P,GND,1*
G04 #@! TO.N,GNDREF*
X87880000Y-54700000D03*
G04 #@! TD*
D15*
G04 #@! TO.P,Q1,2*
G04 #@! TO.N,Net-(C2-Pad2)*
X101220000Y-49500000D03*
G04 #@! TO.P,Q1,3*
G04 #@! TO.N,Net-(Q1-Pad3)*
X103220000Y-50450000D03*
G04 #@! TO.P,Q1,1*
G04 #@! TO.N,Net-(C1-Pad1)*
X103220000Y-48550000D03*
G04 #@! TD*
D16*
G04 #@! TO.N,+5V*
G04 #@! TO.C,R1*
G36*
X95449504Y-50596204D02*
X95473773Y-50599804D01*
X95497571Y-50605765D01*
X95520671Y-50614030D01*
X95542849Y-50624520D01*
X95563893Y-50637133D01*
X95583598Y-50651747D01*
X95601777Y-50668223D01*
X95618253Y-50686402D01*
X95632867Y-50706107D01*
X95645480Y-50727151D01*
X95655970Y-50749329D01*
X95664235Y-50772429D01*
X95670196Y-50796227D01*
X95673796Y-50820496D01*
X95675000Y-50845000D01*
X95675000Y-51770000D01*
X95673796Y-51794504D01*
X95670196Y-51818773D01*
X95664235Y-51842571D01*
X95655970Y-51865671D01*
X95645480Y-51887849D01*
X95632867Y-51908893D01*
X95618253Y-51928598D01*
X95601777Y-51946777D01*
X95583598Y-51963253D01*
X95563893Y-51977867D01*
X95542849Y-51990480D01*
X95520671Y-52000970D01*
X95497571Y-52009235D01*
X95473773Y-52015196D01*
X95449504Y-52018796D01*
X95425000Y-52020000D01*
X94175000Y-52020000D01*
X94150496Y-52018796D01*
X94126227Y-52015196D01*
X94102429Y-52009235D01*
X94079329Y-52000970D01*
X94057151Y-51990480D01*
X94036107Y-51977867D01*
X94016402Y-51963253D01*
X93998223Y-51946777D01*
X93981747Y-51928598D01*
X93967133Y-51908893D01*
X93954520Y-51887849D01*
X93944030Y-51865671D01*
X93935765Y-51842571D01*
X93929804Y-51818773D01*
X93926204Y-51794504D01*
X93925000Y-51770000D01*
X93925000Y-50845000D01*
X93926204Y-50820496D01*
X93929804Y-50796227D01*
X93935765Y-50772429D01*
X93944030Y-50749329D01*
X93954520Y-50727151D01*
X93967133Y-50706107D01*
X93981747Y-50686402D01*
X93998223Y-50668223D01*
X94016402Y-50651747D01*
X94036107Y-50637133D01*
X94057151Y-50624520D01*
X94079329Y-50614030D01*
X94102429Y-50605765D01*
X94126227Y-50599804D01*
X94150496Y-50596204D01*
X94175000Y-50595000D01*
X95425000Y-50595000D01*
X95449504Y-50596204D01*
X95449504Y-50596204D01*
G37*
D17*
G04 #@! TD*
G04 #@! TO.P,R1,1*
G04 #@! TO.N,+5V*
X94800000Y-51307500D03*
D16*
G04 #@! TO.N,Net-(C1-Pad1)*
G04 #@! TO.C,R1*
G36*
X95449504Y-47621204D02*
X95473773Y-47624804D01*
X95497571Y-47630765D01*
X95520671Y-47639030D01*
X95542849Y-47649520D01*
X95563893Y-47662133D01*
X95583598Y-47676747D01*
X95601777Y-47693223D01*
X95618253Y-47711402D01*
X95632867Y-47731107D01*
X95645480Y-47752151D01*
X95655970Y-47774329D01*
X95664235Y-47797429D01*
X95670196Y-47821227D01*
X95673796Y-47845496D01*
X95675000Y-47870000D01*
X95675000Y-48795000D01*
X95673796Y-48819504D01*
X95670196Y-48843773D01*
X95664235Y-48867571D01*
X95655970Y-48890671D01*
X95645480Y-48912849D01*
X95632867Y-48933893D01*
X95618253Y-48953598D01*
X95601777Y-48971777D01*
X95583598Y-48988253D01*
X95563893Y-49002867D01*
X95542849Y-49015480D01*
X95520671Y-49025970D01*
X95497571Y-49034235D01*
X95473773Y-49040196D01*
X95449504Y-49043796D01*
X95425000Y-49045000D01*
X94175000Y-49045000D01*
X94150496Y-49043796D01*
X94126227Y-49040196D01*
X94102429Y-49034235D01*
X94079329Y-49025970D01*
X94057151Y-49015480D01*
X94036107Y-49002867D01*
X94016402Y-48988253D01*
X93998223Y-48971777D01*
X93981747Y-48953598D01*
X93967133Y-48933893D01*
X93954520Y-48912849D01*
X93944030Y-48890671D01*
X93935765Y-48867571D01*
X93929804Y-48843773D01*
X93926204Y-48819504D01*
X93925000Y-48795000D01*
X93925000Y-47870000D01*
X93926204Y-47845496D01*
X93929804Y-47821227D01*
X93935765Y-47797429D01*
X93944030Y-47774329D01*
X93954520Y-47752151D01*
X93967133Y-47731107D01*
X93981747Y-47711402D01*
X93998223Y-47693223D01*
X94016402Y-47676747D01*
X94036107Y-47662133D01*
X94057151Y-47649520D01*
X94079329Y-47639030D01*
X94102429Y-47630765D01*
X94126227Y-47624804D01*
X94150496Y-47621204D01*
X94175000Y-47620000D01*
X95425000Y-47620000D01*
X95449504Y-47621204D01*
X95449504Y-47621204D01*
G37*
D17*
G04 #@! TD*
G04 #@! TO.P,R1,2*
G04 #@! TO.N,Net-(C1-Pad1)*
X94800000Y-48332500D03*
D16*
G04 #@! TO.N,GNDREF*
G04 #@! TO.C,R2*
G36*
X98174504Y-43776204D02*
X98198773Y-43779804D01*
X98222571Y-43785765D01*
X98245671Y-43794030D01*
X98267849Y-43804520D01*
X98288893Y-43817133D01*
X98308598Y-43831747D01*
X98326777Y-43848223D01*
X98343253Y-43866402D01*
X98357867Y-43886107D01*
X98370480Y-43907151D01*
X98380970Y-43929329D01*
X98389235Y-43952429D01*
X98395196Y-43976227D01*
X98398796Y-44000496D01*
X98400000Y-44025000D01*
X98400000Y-45275000D01*
X98398796Y-45299504D01*
X98395196Y-45323773D01*
X98389235Y-45347571D01*
X98380970Y-45370671D01*
X98370480Y-45392849D01*
X98357867Y-45413893D01*
X98343253Y-45433598D01*
X98326777Y-45451777D01*
X98308598Y-45468253D01*
X98288893Y-45482867D01*
X98267849Y-45495480D01*
X98245671Y-45505970D01*
X98222571Y-45514235D01*
X98198773Y-45520196D01*
X98174504Y-45523796D01*
X98150000Y-45525000D01*
X97225000Y-45525000D01*
X97200496Y-45523796D01*
X97176227Y-45520196D01*
X97152429Y-45514235D01*
X97129329Y-45505970D01*
X97107151Y-45495480D01*
X97086107Y-45482867D01*
X97066402Y-45468253D01*
X97048223Y-45451777D01*
X97031747Y-45433598D01*
X97017133Y-45413893D01*
X97004520Y-45392849D01*
X96994030Y-45370671D01*
X96985765Y-45347571D01*
X96979804Y-45323773D01*
X96976204Y-45299504D01*
X96975000Y-45275000D01*
X96975000Y-44025000D01*
X96976204Y-44000496D01*
X96979804Y-43976227D01*
X96985765Y-43952429D01*
X96994030Y-43929329D01*
X97004520Y-43907151D01*
X97017133Y-43886107D01*
X97031747Y-43866402D01*
X97048223Y-43848223D01*
X97066402Y-43831747D01*
X97086107Y-43817133D01*
X97107151Y-43804520D01*
X97129329Y-43794030D01*
X97152429Y-43785765D01*
X97176227Y-43779804D01*
X97200496Y-43776204D01*
X97225000Y-43775000D01*
X98150000Y-43775000D01*
X98174504Y-43776204D01*
X98174504Y-43776204D01*
G37*
D17*
G04 #@! TD*
G04 #@! TO.P,R2,2*
G04 #@! TO.N,GNDREF*
X97687500Y-44650000D03*
D16*
G04 #@! TO.N,Net-(C1-Pad1)*
G04 #@! TO.C,R2*
G36*
X95199504Y-43776204D02*
X95223773Y-43779804D01*
X95247571Y-43785765D01*
X95270671Y-43794030D01*
X95292849Y-43804520D01*
X95313893Y-43817133D01*
X95333598Y-43831747D01*
X95351777Y-43848223D01*
X95368253Y-43866402D01*
X95382867Y-43886107D01*
X95395480Y-43907151D01*
X95405970Y-43929329D01*
X95414235Y-43952429D01*
X95420196Y-43976227D01*
X95423796Y-44000496D01*
X95425000Y-44025000D01*
X95425000Y-45275000D01*
X95423796Y-45299504D01*
X95420196Y-45323773D01*
X95414235Y-45347571D01*
X95405970Y-45370671D01*
X95395480Y-45392849D01*
X95382867Y-45413893D01*
X95368253Y-45433598D01*
X95351777Y-45451777D01*
X95333598Y-45468253D01*
X95313893Y-45482867D01*
X95292849Y-45495480D01*
X95270671Y-45505970D01*
X95247571Y-45514235D01*
X95223773Y-45520196D01*
X95199504Y-45523796D01*
X95175000Y-45525000D01*
X94250000Y-45525000D01*
X94225496Y-45523796D01*
X94201227Y-45520196D01*
X94177429Y-45514235D01*
X94154329Y-45505970D01*
X94132151Y-45495480D01*
X94111107Y-45482867D01*
X94091402Y-45468253D01*
X94073223Y-45451777D01*
X94056747Y-45433598D01*
X94042133Y-45413893D01*
X94029520Y-45392849D01*
X94019030Y-45370671D01*
X94010765Y-45347571D01*
X94004804Y-45323773D01*
X94001204Y-45299504D01*
X94000000Y-45275000D01*
X94000000Y-44025000D01*
X94001204Y-44000496D01*
X94004804Y-43976227D01*
X94010765Y-43952429D01*
X94019030Y-43929329D01*
X94029520Y-43907151D01*
X94042133Y-43886107D01*
X94056747Y-43866402D01*
X94073223Y-43848223D01*
X94091402Y-43831747D01*
X94111107Y-43817133D01*
X94132151Y-43804520D01*
X94154329Y-43794030D01*
X94177429Y-43785765D01*
X94201227Y-43779804D01*
X94225496Y-43776204D01*
X94250000Y-43775000D01*
X95175000Y-43775000D01*
X95199504Y-43776204D01*
X95199504Y-43776204D01*
G37*
D17*
G04 #@! TD*
G04 #@! TO.P,R2,1*
G04 #@! TO.N,Net-(C1-Pad1)*
X94712500Y-44650000D03*
D16*
G04 #@! TO.N,+5V*
G04 #@! TO.C,R3*
G36*
X98079504Y-50596204D02*
X98103773Y-50599804D01*
X98127571Y-50605765D01*
X98150671Y-50614030D01*
X98172849Y-50624520D01*
X98193893Y-50637133D01*
X98213598Y-50651747D01*
X98231777Y-50668223D01*
X98248253Y-50686402D01*
X98262867Y-50706107D01*
X98275480Y-50727151D01*
X98285970Y-50749329D01*
X98294235Y-50772429D01*
X98300196Y-50796227D01*
X98303796Y-50820496D01*
X98305000Y-50845000D01*
X98305000Y-51770000D01*
X98303796Y-51794504D01*
X98300196Y-51818773D01*
X98294235Y-51842571D01*
X98285970Y-51865671D01*
X98275480Y-51887849D01*
X98262867Y-51908893D01*
X98248253Y-51928598D01*
X98231777Y-51946777D01*
X98213598Y-51963253D01*
X98193893Y-51977867D01*
X98172849Y-51990480D01*
X98150671Y-52000970D01*
X98127571Y-52009235D01*
X98103773Y-52015196D01*
X98079504Y-52018796D01*
X98055000Y-52020000D01*
X96805000Y-52020000D01*
X96780496Y-52018796D01*
X96756227Y-52015196D01*
X96732429Y-52009235D01*
X96709329Y-52000970D01*
X96687151Y-51990480D01*
X96666107Y-51977867D01*
X96646402Y-51963253D01*
X96628223Y-51946777D01*
X96611747Y-51928598D01*
X96597133Y-51908893D01*
X96584520Y-51887849D01*
X96574030Y-51865671D01*
X96565765Y-51842571D01*
X96559804Y-51818773D01*
X96556204Y-51794504D01*
X96555000Y-51770000D01*
X96555000Y-50845000D01*
X96556204Y-50820496D01*
X96559804Y-50796227D01*
X96565765Y-50772429D01*
X96574030Y-50749329D01*
X96584520Y-50727151D01*
X96597133Y-50706107D01*
X96611747Y-50686402D01*
X96628223Y-50668223D01*
X96646402Y-50651747D01*
X96666107Y-50637133D01*
X96687151Y-50624520D01*
X96709329Y-50614030D01*
X96732429Y-50605765D01*
X96756227Y-50599804D01*
X96780496Y-50596204D01*
X96805000Y-50595000D01*
X98055000Y-50595000D01*
X98079504Y-50596204D01*
X98079504Y-50596204D01*
G37*
D17*
G04 #@! TD*
G04 #@! TO.P,R3,1*
G04 #@! TO.N,+5V*
X97430000Y-51307500D03*
D16*
G04 #@! TO.N,Net-(C2-Pad2)*
G04 #@! TO.C,R3*
G36*
X98079504Y-47621204D02*
X98103773Y-47624804D01*
X98127571Y-47630765D01*
X98150671Y-47639030D01*
X98172849Y-47649520D01*
X98193893Y-47662133D01*
X98213598Y-47676747D01*
X98231777Y-47693223D01*
X98248253Y-47711402D01*
X98262867Y-47731107D01*
X98275480Y-47752151D01*
X98285970Y-47774329D01*
X98294235Y-47797429D01*
X98300196Y-47821227D01*
X98303796Y-47845496D01*
X98305000Y-47870000D01*
X98305000Y-48795000D01*
X98303796Y-48819504D01*
X98300196Y-48843773D01*
X98294235Y-48867571D01*
X98285970Y-48890671D01*
X98275480Y-48912849D01*
X98262867Y-48933893D01*
X98248253Y-48953598D01*
X98231777Y-48971777D01*
X98213598Y-48988253D01*
X98193893Y-49002867D01*
X98172849Y-49015480D01*
X98150671Y-49025970D01*
X98127571Y-49034235D01*
X98103773Y-49040196D01*
X98079504Y-49043796D01*
X98055000Y-49045000D01*
X96805000Y-49045000D01*
X96780496Y-49043796D01*
X96756227Y-49040196D01*
X96732429Y-49034235D01*
X96709329Y-49025970D01*
X96687151Y-49015480D01*
X96666107Y-49002867D01*
X96646402Y-48988253D01*
X96628223Y-48971777D01*
X96611747Y-48953598D01*
X96597133Y-48933893D01*
X96584520Y-48912849D01*
X96574030Y-48890671D01*
X96565765Y-48867571D01*
X96559804Y-48843773D01*
X96556204Y-48819504D01*
X96555000Y-48795000D01*
X96555000Y-47870000D01*
X96556204Y-47845496D01*
X96559804Y-47821227D01*
X96565765Y-47797429D01*
X96574030Y-47774329D01*
X96584520Y-47752151D01*
X96597133Y-47731107D01*
X96611747Y-47711402D01*
X96628223Y-47693223D01*
X96646402Y-47676747D01*
X96666107Y-47662133D01*
X96687151Y-47649520D01*
X96709329Y-47639030D01*
X96732429Y-47630765D01*
X96756227Y-47624804D01*
X96780496Y-47621204D01*
X96805000Y-47620000D01*
X98055000Y-47620000D01*
X98079504Y-47621204D01*
X98079504Y-47621204D01*
G37*
D17*
G04 #@! TD*
G04 #@! TO.P,R3,2*
G04 #@! TO.N,Net-(C2-Pad2)*
X97430000Y-48332500D03*
D16*
G04 #@! TO.N,Net-(Q1-Pad3)*
G04 #@! TO.C,R4*
G36*
X97194504Y-53246204D02*
X97218773Y-53249804D01*
X97242571Y-53255765D01*
X97265671Y-53264030D01*
X97287849Y-53274520D01*
X97308893Y-53287133D01*
X97328598Y-53301747D01*
X97346777Y-53318223D01*
X97363253Y-53336402D01*
X97377867Y-53356107D01*
X97390480Y-53377151D01*
X97400970Y-53399329D01*
X97409235Y-53422429D01*
X97415196Y-53446227D01*
X97418796Y-53470496D01*
X97420000Y-53495000D01*
X97420000Y-54745000D01*
X97418796Y-54769504D01*
X97415196Y-54793773D01*
X97409235Y-54817571D01*
X97400970Y-54840671D01*
X97390480Y-54862849D01*
X97377867Y-54883893D01*
X97363253Y-54903598D01*
X97346777Y-54921777D01*
X97328598Y-54938253D01*
X97308893Y-54952867D01*
X97287849Y-54965480D01*
X97265671Y-54975970D01*
X97242571Y-54984235D01*
X97218773Y-54990196D01*
X97194504Y-54993796D01*
X97170000Y-54995000D01*
X96245000Y-54995000D01*
X96220496Y-54993796D01*
X96196227Y-54990196D01*
X96172429Y-54984235D01*
X96149329Y-54975970D01*
X96127151Y-54965480D01*
X96106107Y-54952867D01*
X96086402Y-54938253D01*
X96068223Y-54921777D01*
X96051747Y-54903598D01*
X96037133Y-54883893D01*
X96024520Y-54862849D01*
X96014030Y-54840671D01*
X96005765Y-54817571D01*
X95999804Y-54793773D01*
X95996204Y-54769504D01*
X95995000Y-54745000D01*
X95995000Y-53495000D01*
X95996204Y-53470496D01*
X95999804Y-53446227D01*
X96005765Y-53422429D01*
X96014030Y-53399329D01*
X96024520Y-53377151D01*
X96037133Y-53356107D01*
X96051747Y-53336402D01*
X96068223Y-53318223D01*
X96086402Y-53301747D01*
X96106107Y-53287133D01*
X96127151Y-53274520D01*
X96149329Y-53264030D01*
X96172429Y-53255765D01*
X96196227Y-53249804D01*
X96220496Y-53246204D01*
X96245000Y-53245000D01*
X97170000Y-53245000D01*
X97194504Y-53246204D01*
X97194504Y-53246204D01*
G37*
D17*
G04 #@! TD*
G04 #@! TO.P,R4,1*
G04 #@! TO.N,Net-(Q1-Pad3)*
X96707500Y-54120000D03*
D16*
G04 #@! TO.N,GNDREF*
G04 #@! TO.C,R4*
G36*
X94219504Y-53246204D02*
X94243773Y-53249804D01*
X94267571Y-53255765D01*
X94290671Y-53264030D01*
X94312849Y-53274520D01*
X94333893Y-53287133D01*
X94353598Y-53301747D01*
X94371777Y-53318223D01*
X94388253Y-53336402D01*
X94402867Y-53356107D01*
X94415480Y-53377151D01*
X94425970Y-53399329D01*
X94434235Y-53422429D01*
X94440196Y-53446227D01*
X94443796Y-53470496D01*
X94445000Y-53495000D01*
X94445000Y-54745000D01*
X94443796Y-54769504D01*
X94440196Y-54793773D01*
X94434235Y-54817571D01*
X94425970Y-54840671D01*
X94415480Y-54862849D01*
X94402867Y-54883893D01*
X94388253Y-54903598D01*
X94371777Y-54921777D01*
X94353598Y-54938253D01*
X94333893Y-54952867D01*
X94312849Y-54965480D01*
X94290671Y-54975970D01*
X94267571Y-54984235D01*
X94243773Y-54990196D01*
X94219504Y-54993796D01*
X94195000Y-54995000D01*
X93270000Y-54995000D01*
X93245496Y-54993796D01*
X93221227Y-54990196D01*
X93197429Y-54984235D01*
X93174329Y-54975970D01*
X93152151Y-54965480D01*
X93131107Y-54952867D01*
X93111402Y-54938253D01*
X93093223Y-54921777D01*
X93076747Y-54903598D01*
X93062133Y-54883893D01*
X93049520Y-54862849D01*
X93039030Y-54840671D01*
X93030765Y-54817571D01*
X93024804Y-54793773D01*
X93021204Y-54769504D01*
X93020000Y-54745000D01*
X93020000Y-53495000D01*
X93021204Y-53470496D01*
X93024804Y-53446227D01*
X93030765Y-53422429D01*
X93039030Y-53399329D01*
X93049520Y-53377151D01*
X93062133Y-53356107D01*
X93076747Y-53336402D01*
X93093223Y-53318223D01*
X93111402Y-53301747D01*
X93131107Y-53287133D01*
X93152151Y-53274520D01*
X93174329Y-53264030D01*
X93197429Y-53255765D01*
X93221227Y-53249804D01*
X93245496Y-53246204D01*
X93270000Y-53245000D01*
X94195000Y-53245000D01*
X94219504Y-53246204D01*
X94219504Y-53246204D01*
G37*
D17*
G04 #@! TD*
G04 #@! TO.P,R4,2*
G04 #@! TO.N,GNDREF*
X93732500Y-54120000D03*
D18*
G04 #@! TO.N,Net-(C1-Pad1)*
X103170000Y-48550000D02*
X101129999Y-46509999D01*
X103220000Y-48550000D02*
X103170000Y-48550000D01*
X91402500Y-48312500D02*
X91210000Y-48120000D01*
X94800000Y-48332500D02*
X93122500Y-48332500D01*
X93010000Y-48120000D02*
X91210000Y-48120000D01*
X93122500Y-48232500D02*
X93010000Y-48120000D01*
X93122500Y-48332500D02*
X93122500Y-48232500D01*
X94800000Y-44737500D02*
X94712500Y-44650000D01*
X94860001Y-46509999D02*
X94800000Y-46570000D01*
X101129999Y-46509999D02*
X94860001Y-46509999D01*
X94800000Y-48332500D02*
X94800000Y-46570000D01*
X94800000Y-46570000D02*
X94800000Y-44737500D01*
G04 #@! TO.N,Net-(C2-Pad2)*
X99577500Y-48332500D02*
X99800000Y-48110000D01*
X97430000Y-48332500D02*
X99577500Y-48332500D01*
X101190000Y-49500000D02*
X99800000Y-48110000D01*
X101220000Y-49500000D02*
X101190000Y-49500000D01*
G04 #@! TO.N,Net-(Q1-Pad3)*
X96707500Y-54120000D02*
X101740000Y-54120000D01*
X103220000Y-52640000D02*
X103220000Y-50450000D01*
X101740000Y-54120000D02*
X103220000Y-52640000D01*
G04 #@! TO.N,+5V*
X93265502Y-51307500D02*
X94800000Y-51307500D01*
X91978001Y-50019999D02*
X93265502Y-51307500D01*
X90069997Y-50019999D02*
X91978001Y-50019999D01*
X87880000Y-45060000D02*
X87880000Y-47830002D01*
X87880000Y-47830002D02*
X90069997Y-50019999D01*
X94800000Y-51307500D02*
X97430000Y-51307500D01*
G04 #@! TD*
D19*
G04 #@! TO.N,GNDREF*
G36*
X93616805Y-43762722D02*
X93564635Y-44025000D01*
X93564635Y-45275000D01*
X93616805Y-45537278D01*
X93765374Y-45759626D01*
X93873000Y-45831540D01*
X93873000Y-46478698D01*
X93854839Y-46570000D01*
X93873000Y-46661300D01*
X93873000Y-46661301D01*
X93873001Y-46661306D01*
X93873001Y-47263346D01*
X93690374Y-47385374D01*
X93676926Y-47405500D01*
X93609232Y-47405500D01*
X93371697Y-47246785D01*
X93101302Y-47193000D01*
X93101300Y-47193000D01*
X93010000Y-47174839D01*
X92918700Y-47193000D01*
X92420103Y-47193000D01*
X92412225Y-47153393D01*
X92317850Y-47012150D01*
X92176607Y-46917775D01*
X92010000Y-46884635D01*
X90410000Y-46884635D01*
X90243393Y-46917775D01*
X90102150Y-47012150D01*
X90007775Y-47153393D01*
X89974635Y-47320000D01*
X89974635Y-48613661D01*
X88807000Y-47446027D01*
X88807000Y-46151084D01*
X89089753Y-45868331D01*
X89307000Y-45343848D01*
X89307000Y-44776152D01*
X89089753Y-44251669D01*
X88688331Y-43850247D01*
X88163848Y-43633000D01*
X87596152Y-43633000D01*
X87071669Y-43850247D01*
X86670247Y-44251669D01*
X86453000Y-44776152D01*
X86453000Y-45343848D01*
X86670247Y-45868331D01*
X86953000Y-46151084D01*
X86953001Y-47738697D01*
X86934839Y-47830002D01*
X87005528Y-48185377D01*
X87006786Y-48191699D01*
X87211671Y-48498332D01*
X87289073Y-48550051D01*
X89349948Y-50610926D01*
X89401667Y-50688329D01*
X89583761Y-50810000D01*
X89708298Y-50893213D01*
X89708299Y-50893213D01*
X89708300Y-50893214D01*
X89978695Y-50946999D01*
X90069996Y-50965160D01*
X90160615Y-50947134D01*
X89983000Y-51375935D01*
X89983000Y-51864065D01*
X90169800Y-52315039D01*
X90514961Y-52660200D01*
X90965935Y-52847000D01*
X91454065Y-52847000D01*
X91905039Y-52660200D01*
X92250200Y-52315039D01*
X92437000Y-51864065D01*
X92437000Y-51789973D01*
X92545451Y-51898424D01*
X92597172Y-51975830D01*
X92853825Y-52147319D01*
X92903803Y-52180714D01*
X92903804Y-52180714D01*
X92903805Y-52180715D01*
X93174200Y-52234500D01*
X93265501Y-52252661D01*
X93356802Y-52234500D01*
X93676926Y-52234500D01*
X93690374Y-52254626D01*
X93912722Y-52403195D01*
X94175000Y-52455365D01*
X95425000Y-52455365D01*
X95687278Y-52403195D01*
X95909626Y-52254626D01*
X95923074Y-52234500D01*
X96306926Y-52234500D01*
X96320374Y-52254626D01*
X96542722Y-52403195D01*
X96805000Y-52455365D01*
X98055000Y-52455365D01*
X98317278Y-52403195D01*
X98539626Y-52254626D01*
X98564635Y-52217198D01*
X98564635Y-52410000D01*
X98597775Y-52576607D01*
X98692150Y-52717850D01*
X98833393Y-52812225D01*
X99000000Y-52845365D01*
X100600000Y-52845365D01*
X100766607Y-52812225D01*
X100907850Y-52717850D01*
X101002225Y-52576607D01*
X101035365Y-52410000D01*
X101035365Y-50810000D01*
X101002225Y-50643393D01*
X100907850Y-50502150D01*
X100766607Y-50407775D01*
X100600000Y-50374635D01*
X99000000Y-50374635D01*
X98833393Y-50407775D01*
X98692150Y-50502150D01*
X98663254Y-50545396D01*
X98539626Y-50360374D01*
X98317278Y-50211805D01*
X98055000Y-50159635D01*
X96805000Y-50159635D01*
X96542722Y-50211805D01*
X96320374Y-50360374D01*
X96306926Y-50380500D01*
X95923074Y-50380500D01*
X95909626Y-50360374D01*
X95687278Y-50211805D01*
X95425000Y-50159635D01*
X94175000Y-50159635D01*
X93912722Y-50211805D01*
X93690374Y-50360374D01*
X93676926Y-50380500D01*
X93649477Y-50380500D01*
X92698052Y-49429075D01*
X92646331Y-49351669D01*
X92362041Y-49161713D01*
X92412225Y-49086607D01*
X92420103Y-49047000D01*
X92523268Y-49047000D01*
X92760803Y-49205715D01*
X93122500Y-49277661D01*
X93213801Y-49259500D01*
X93676926Y-49259500D01*
X93690374Y-49279626D01*
X93912722Y-49428195D01*
X94175000Y-49480365D01*
X95425000Y-49480365D01*
X95687278Y-49428195D01*
X95909626Y-49279626D01*
X96058195Y-49057278D01*
X96110365Y-48795000D01*
X96110365Y-47870000D01*
X96058195Y-47607722D01*
X95944121Y-47436999D01*
X96285879Y-47436999D01*
X96171805Y-47607722D01*
X96119635Y-47870000D01*
X96119635Y-48795000D01*
X96171805Y-49057278D01*
X96320374Y-49279626D01*
X96542722Y-49428195D01*
X96805000Y-49480365D01*
X98055000Y-49480365D01*
X98317278Y-49428195D01*
X98539626Y-49279626D01*
X98553074Y-49259500D01*
X99368834Y-49259500D01*
X99555935Y-49337000D01*
X99716025Y-49337000D01*
X100348443Y-49969419D01*
X100367775Y-50066607D01*
X100462150Y-50207850D01*
X100603393Y-50302225D01*
X100770000Y-50335365D01*
X100771656Y-50335365D01*
X100828303Y-50373215D01*
X101098698Y-50427000D01*
X101098699Y-50427000D01*
X101190000Y-50445161D01*
X101281300Y-50427000D01*
X101311302Y-50427000D01*
X101581697Y-50373215D01*
X101638344Y-50335365D01*
X101670000Y-50335365D01*
X101836607Y-50302225D01*
X101977850Y-50207850D01*
X102072225Y-50066607D01*
X102105365Y-49900000D01*
X102105365Y-49800615D01*
X102165161Y-49500000D01*
X102105365Y-49199385D01*
X102105365Y-49100000D01*
X102072225Y-48933393D01*
X101977850Y-48792150D01*
X101836607Y-48697775D01*
X101670000Y-48664635D01*
X101665611Y-48664635D01*
X101027000Y-48026025D01*
X101027000Y-47865935D01*
X100922376Y-47613351D01*
X102353409Y-49044385D01*
X102367775Y-49116607D01*
X102462150Y-49257850D01*
X102603393Y-49352225D01*
X102743881Y-49380170D01*
X102808303Y-49423215D01*
X103078698Y-49477000D01*
X103078699Y-49477000D01*
X103169999Y-49495161D01*
X103261300Y-49477000D01*
X103311302Y-49477000D01*
X103581697Y-49423215D01*
X103638344Y-49385365D01*
X103670000Y-49385365D01*
X103836607Y-49352225D01*
X103977850Y-49257850D01*
X104072225Y-49116607D01*
X104104934Y-48952163D01*
X104677443Y-48952163D01*
X104776042Y-49218965D01*
X105385582Y-49445401D01*
X106035377Y-49421341D01*
X106523958Y-49218965D01*
X106622557Y-48952163D01*
X105650000Y-47979605D01*
X104677443Y-48952163D01*
X104104934Y-48952163D01*
X104105365Y-48950000D01*
X104105365Y-48850615D01*
X104165161Y-48550000D01*
X104151738Y-48482517D01*
X104231035Y-48673958D01*
X104497837Y-48772557D01*
X105470395Y-47800000D01*
X104497837Y-46827443D01*
X104231035Y-46926042D01*
X104004599Y-47535582D01*
X104018186Y-47902517D01*
X103977850Y-47842150D01*
X103836607Y-47747775D01*
X103670000Y-47714635D01*
X103645611Y-47714635D01*
X102578813Y-46647837D01*
X104677443Y-46647837D01*
X105650000Y-47620395D01*
X106622557Y-46647837D01*
X106523958Y-46381035D01*
X105914418Y-46154599D01*
X105264623Y-46178659D01*
X104776042Y-46381035D01*
X104677443Y-46647837D01*
X102578813Y-46647837D01*
X101850050Y-45919074D01*
X101798329Y-45841669D01*
X101491696Y-45636784D01*
X101221301Y-45582999D01*
X101221299Y-45582999D01*
X101129999Y-45564838D01*
X101038699Y-45582999D01*
X99035000Y-45582999D01*
X99035000Y-44935750D01*
X98876250Y-44777000D01*
X97814500Y-44777000D01*
X97814500Y-44797000D01*
X97560500Y-44797000D01*
X97560500Y-44777000D01*
X96498750Y-44777000D01*
X96340000Y-44935750D01*
X96340000Y-45582999D01*
X95777645Y-45582999D01*
X95808195Y-45537278D01*
X95860365Y-45275000D01*
X95860365Y-44025000D01*
X95808195Y-43762722D01*
X95717508Y-43627000D01*
X96348984Y-43627000D01*
X96340000Y-43648690D01*
X96340000Y-44364250D01*
X96498750Y-44523000D01*
X97560500Y-44523000D01*
X97560500Y-44503000D01*
X97814500Y-44503000D01*
X97814500Y-44523000D01*
X98876250Y-44523000D01*
X99035000Y-44364250D01*
X99035000Y-43648690D01*
X99026016Y-43627000D01*
X106973000Y-43627000D01*
X106973000Y-46890577D01*
X106802163Y-46827443D01*
X105829605Y-47800000D01*
X106802163Y-48772557D01*
X106973000Y-48709423D01*
X106973001Y-50326098D01*
X106957340Y-50302660D01*
X106816097Y-50208285D01*
X106649490Y-50175145D01*
X104650510Y-50175145D01*
X104483903Y-50208285D01*
X104342660Y-50302660D01*
X104248285Y-50443903D01*
X104215145Y-50610510D01*
X104215145Y-52609490D01*
X104248285Y-52776097D01*
X104342660Y-52917340D01*
X104483903Y-53011715D01*
X104650510Y-53044855D01*
X106649490Y-53044855D01*
X106816097Y-53011715D01*
X106957340Y-52917340D01*
X106973001Y-52893902D01*
X106973001Y-56073000D01*
X88771414Y-56073000D01*
X88852927Y-55852532D01*
X87880000Y-54879605D01*
X86907073Y-55852532D01*
X86988586Y-56073000D01*
X83827000Y-56073000D01*
X83827000Y-54435461D01*
X86234092Y-54435461D01*
X86258144Y-55085460D01*
X86460613Y-55574264D01*
X86727468Y-55672927D01*
X87700395Y-54700000D01*
X88059605Y-54700000D01*
X89032532Y-55672927D01*
X89299387Y-55574264D01*
X89525908Y-54964539D01*
X89505232Y-54405750D01*
X92385000Y-54405750D01*
X92385000Y-55121310D01*
X92481673Y-55354699D01*
X92660302Y-55533327D01*
X92893691Y-55630000D01*
X93446750Y-55630000D01*
X93605500Y-55471250D01*
X93605500Y-54247000D01*
X93859500Y-54247000D01*
X93859500Y-55471250D01*
X94018250Y-55630000D01*
X94571309Y-55630000D01*
X94804698Y-55533327D01*
X94983327Y-55354699D01*
X95080000Y-55121310D01*
X95080000Y-54405750D01*
X94921250Y-54247000D01*
X93859500Y-54247000D01*
X93605500Y-54247000D01*
X92543750Y-54247000D01*
X92385000Y-54405750D01*
X89505232Y-54405750D01*
X89501856Y-54314540D01*
X89299387Y-53825736D01*
X89032532Y-53727073D01*
X88059605Y-54700000D01*
X87700395Y-54700000D01*
X86727468Y-53727073D01*
X86460613Y-53825736D01*
X86234092Y-54435461D01*
X83827000Y-54435461D01*
X83827000Y-53547468D01*
X86907073Y-53547468D01*
X87880000Y-54520395D01*
X88852927Y-53547468D01*
X88754264Y-53280613D01*
X88318417Y-53118690D01*
X92385000Y-53118690D01*
X92385000Y-53834250D01*
X92543750Y-53993000D01*
X93605500Y-53993000D01*
X93605500Y-52768750D01*
X93859500Y-52768750D01*
X93859500Y-53993000D01*
X94921250Y-53993000D01*
X95080000Y-53834250D01*
X95080000Y-53495000D01*
X95559635Y-53495000D01*
X95559635Y-54745000D01*
X95611805Y-55007278D01*
X95760374Y-55229626D01*
X95982722Y-55378195D01*
X96245000Y-55430365D01*
X97170000Y-55430365D01*
X97432278Y-55378195D01*
X97654626Y-55229626D01*
X97776653Y-55047000D01*
X101648700Y-55047000D01*
X101740000Y-55065161D01*
X101831300Y-55047000D01*
X101831302Y-55047000D01*
X102101697Y-54993215D01*
X102408330Y-54788330D01*
X102460050Y-54710925D01*
X103810928Y-53360048D01*
X103888330Y-53308330D01*
X104093215Y-53001697D01*
X104147000Y-52731302D01*
X104147000Y-52731301D01*
X104165161Y-52640001D01*
X104147000Y-52548700D01*
X104147000Y-50358698D01*
X104105365Y-50149385D01*
X104105365Y-50050000D01*
X104072225Y-49883393D01*
X103977850Y-49742150D01*
X103836607Y-49647775D01*
X103670000Y-49614635D01*
X103638344Y-49614635D01*
X103581697Y-49576785D01*
X103220000Y-49504839D01*
X102858304Y-49576785D01*
X102801657Y-49614635D01*
X102770000Y-49614635D01*
X102603393Y-49647775D01*
X102462150Y-49742150D01*
X102367775Y-49883393D01*
X102334635Y-50050000D01*
X102334635Y-50149390D01*
X102293001Y-50358698D01*
X102293000Y-52256024D01*
X101356025Y-53193000D01*
X97776653Y-53193000D01*
X97654626Y-53010374D01*
X97432278Y-52861805D01*
X97170000Y-52809635D01*
X96245000Y-52809635D01*
X95982722Y-52861805D01*
X95760374Y-53010374D01*
X95611805Y-53232722D01*
X95559635Y-53495000D01*
X95080000Y-53495000D01*
X95080000Y-53118690D01*
X94983327Y-52885301D01*
X94804698Y-52706673D01*
X94571309Y-52610000D01*
X94018250Y-52610000D01*
X93859500Y-52768750D01*
X93605500Y-52768750D01*
X93446750Y-52610000D01*
X92893691Y-52610000D01*
X92660302Y-52706673D01*
X92481673Y-52885301D01*
X92385000Y-53118690D01*
X88318417Y-53118690D01*
X88144539Y-53054092D01*
X87494540Y-53078144D01*
X87005736Y-53280613D01*
X86907073Y-53547468D01*
X83827000Y-53547468D01*
X83827000Y-52884249D01*
X83862183Y-52969188D01*
X84040811Y-53147817D01*
X84274200Y-53244490D01*
X85114250Y-53244490D01*
X85273000Y-53085740D01*
X85273000Y-51737000D01*
X85527000Y-51737000D01*
X85527000Y-53085740D01*
X85685750Y-53244490D01*
X86525800Y-53244490D01*
X86759189Y-53147817D01*
X86937817Y-52969188D01*
X87034490Y-52735799D01*
X87034490Y-51895750D01*
X86875740Y-51737000D01*
X85527000Y-51737000D01*
X85273000Y-51737000D01*
X85253000Y-51737000D01*
X85253000Y-51483000D01*
X85273000Y-51483000D01*
X85273000Y-50134260D01*
X85527000Y-50134260D01*
X85527000Y-51483000D01*
X86875740Y-51483000D01*
X87034490Y-51324250D01*
X87034490Y-50484201D01*
X86937817Y-50250812D01*
X86759189Y-50072183D01*
X86525800Y-49975510D01*
X85685750Y-49975510D01*
X85527000Y-50134260D01*
X85273000Y-50134260D01*
X85114250Y-49975510D01*
X84274200Y-49975510D01*
X84040811Y-50072183D01*
X83862183Y-50250812D01*
X83827000Y-50335751D01*
X83827000Y-47516253D01*
X83973510Y-47516253D01*
X83973510Y-48083747D01*
X84190680Y-48608042D01*
X84591958Y-49009320D01*
X85116253Y-49226490D01*
X85683747Y-49226490D01*
X86208042Y-49009320D01*
X86609320Y-48608042D01*
X86826490Y-48083747D01*
X86826490Y-47516253D01*
X86609320Y-46991958D01*
X86208042Y-46590680D01*
X85683747Y-46373510D01*
X85116253Y-46373510D01*
X84591958Y-46590680D01*
X84190680Y-46991958D01*
X83973510Y-47516253D01*
X83827000Y-47516253D01*
X83827000Y-43627000D01*
X93707492Y-43627000D01*
X93616805Y-43762722D01*
X93616805Y-43762722D01*
G37*
X93616805Y-43762722D02*
X93564635Y-44025000D01*
X93564635Y-45275000D01*
X93616805Y-45537278D01*
X93765374Y-45759626D01*
X93873000Y-45831540D01*
X93873000Y-46478698D01*
X93854839Y-46570000D01*
X93873000Y-46661300D01*
X93873000Y-46661301D01*
X93873001Y-46661306D01*
X93873001Y-47263346D01*
X93690374Y-47385374D01*
X93676926Y-47405500D01*
X93609232Y-47405500D01*
X93371697Y-47246785D01*
X93101302Y-47193000D01*
X93101300Y-47193000D01*
X93010000Y-47174839D01*
X92918700Y-47193000D01*
X92420103Y-47193000D01*
X92412225Y-47153393D01*
X92317850Y-47012150D01*
X92176607Y-46917775D01*
X92010000Y-46884635D01*
X90410000Y-46884635D01*
X90243393Y-46917775D01*
X90102150Y-47012150D01*
X90007775Y-47153393D01*
X89974635Y-47320000D01*
X89974635Y-48613661D01*
X88807000Y-47446027D01*
X88807000Y-46151084D01*
X89089753Y-45868331D01*
X89307000Y-45343848D01*
X89307000Y-44776152D01*
X89089753Y-44251669D01*
X88688331Y-43850247D01*
X88163848Y-43633000D01*
X87596152Y-43633000D01*
X87071669Y-43850247D01*
X86670247Y-44251669D01*
X86453000Y-44776152D01*
X86453000Y-45343848D01*
X86670247Y-45868331D01*
X86953000Y-46151084D01*
X86953001Y-47738697D01*
X86934839Y-47830002D01*
X87005528Y-48185377D01*
X87006786Y-48191699D01*
X87211671Y-48498332D01*
X87289073Y-48550051D01*
X89349948Y-50610926D01*
X89401667Y-50688329D01*
X89583761Y-50810000D01*
X89708298Y-50893213D01*
X89708299Y-50893213D01*
X89708300Y-50893214D01*
X89978695Y-50946999D01*
X90069996Y-50965160D01*
X90160615Y-50947134D01*
X89983000Y-51375935D01*
X89983000Y-51864065D01*
X90169800Y-52315039D01*
X90514961Y-52660200D01*
X90965935Y-52847000D01*
X91454065Y-52847000D01*
X91905039Y-52660200D01*
X92250200Y-52315039D01*
X92437000Y-51864065D01*
X92437000Y-51789973D01*
X92545451Y-51898424D01*
X92597172Y-51975830D01*
X92853825Y-52147319D01*
X92903803Y-52180714D01*
X92903804Y-52180714D01*
X92903805Y-52180715D01*
X93174200Y-52234500D01*
X93265501Y-52252661D01*
X93356802Y-52234500D01*
X93676926Y-52234500D01*
X93690374Y-52254626D01*
X93912722Y-52403195D01*
X94175000Y-52455365D01*
X95425000Y-52455365D01*
X95687278Y-52403195D01*
X95909626Y-52254626D01*
X95923074Y-52234500D01*
X96306926Y-52234500D01*
X96320374Y-52254626D01*
X96542722Y-52403195D01*
X96805000Y-52455365D01*
X98055000Y-52455365D01*
X98317278Y-52403195D01*
X98539626Y-52254626D01*
X98564635Y-52217198D01*
X98564635Y-52410000D01*
X98597775Y-52576607D01*
X98692150Y-52717850D01*
X98833393Y-52812225D01*
X99000000Y-52845365D01*
X100600000Y-52845365D01*
X100766607Y-52812225D01*
X100907850Y-52717850D01*
X101002225Y-52576607D01*
X101035365Y-52410000D01*
X101035365Y-50810000D01*
X101002225Y-50643393D01*
X100907850Y-50502150D01*
X100766607Y-50407775D01*
X100600000Y-50374635D01*
X99000000Y-50374635D01*
X98833393Y-50407775D01*
X98692150Y-50502150D01*
X98663254Y-50545396D01*
X98539626Y-50360374D01*
X98317278Y-50211805D01*
X98055000Y-50159635D01*
X96805000Y-50159635D01*
X96542722Y-50211805D01*
X96320374Y-50360374D01*
X96306926Y-50380500D01*
X95923074Y-50380500D01*
X95909626Y-50360374D01*
X95687278Y-50211805D01*
X95425000Y-50159635D01*
X94175000Y-50159635D01*
X93912722Y-50211805D01*
X93690374Y-50360374D01*
X93676926Y-50380500D01*
X93649477Y-50380500D01*
X92698052Y-49429075D01*
X92646331Y-49351669D01*
X92362041Y-49161713D01*
X92412225Y-49086607D01*
X92420103Y-49047000D01*
X92523268Y-49047000D01*
X92760803Y-49205715D01*
X93122500Y-49277661D01*
X93213801Y-49259500D01*
X93676926Y-49259500D01*
X93690374Y-49279626D01*
X93912722Y-49428195D01*
X94175000Y-49480365D01*
X95425000Y-49480365D01*
X95687278Y-49428195D01*
X95909626Y-49279626D01*
X96058195Y-49057278D01*
X96110365Y-48795000D01*
X96110365Y-47870000D01*
X96058195Y-47607722D01*
X95944121Y-47436999D01*
X96285879Y-47436999D01*
X96171805Y-47607722D01*
X96119635Y-47870000D01*
X96119635Y-48795000D01*
X96171805Y-49057278D01*
X96320374Y-49279626D01*
X96542722Y-49428195D01*
X96805000Y-49480365D01*
X98055000Y-49480365D01*
X98317278Y-49428195D01*
X98539626Y-49279626D01*
X98553074Y-49259500D01*
X99368834Y-49259500D01*
X99555935Y-49337000D01*
X99716025Y-49337000D01*
X100348443Y-49969419D01*
X100367775Y-50066607D01*
X100462150Y-50207850D01*
X100603393Y-50302225D01*
X100770000Y-50335365D01*
X100771656Y-50335365D01*
X100828303Y-50373215D01*
X101098698Y-50427000D01*
X101098699Y-50427000D01*
X101190000Y-50445161D01*
X101281300Y-50427000D01*
X101311302Y-50427000D01*
X101581697Y-50373215D01*
X101638344Y-50335365D01*
X101670000Y-50335365D01*
X101836607Y-50302225D01*
X101977850Y-50207850D01*
X102072225Y-50066607D01*
X102105365Y-49900000D01*
X102105365Y-49800615D01*
X102165161Y-49500000D01*
X102105365Y-49199385D01*
X102105365Y-49100000D01*
X102072225Y-48933393D01*
X101977850Y-48792150D01*
X101836607Y-48697775D01*
X101670000Y-48664635D01*
X101665611Y-48664635D01*
X101027000Y-48026025D01*
X101027000Y-47865935D01*
X100922376Y-47613351D01*
X102353409Y-49044385D01*
X102367775Y-49116607D01*
X102462150Y-49257850D01*
X102603393Y-49352225D01*
X102743881Y-49380170D01*
X102808303Y-49423215D01*
X103078698Y-49477000D01*
X103078699Y-49477000D01*
X103169999Y-49495161D01*
X103261300Y-49477000D01*
X103311302Y-49477000D01*
X103581697Y-49423215D01*
X103638344Y-49385365D01*
X103670000Y-49385365D01*
X103836607Y-49352225D01*
X103977850Y-49257850D01*
X104072225Y-49116607D01*
X104104934Y-48952163D01*
X104677443Y-48952163D01*
X104776042Y-49218965D01*
X105385582Y-49445401D01*
X106035377Y-49421341D01*
X106523958Y-49218965D01*
X106622557Y-48952163D01*
X105650000Y-47979605D01*
X104677443Y-48952163D01*
X104104934Y-48952163D01*
X104105365Y-48950000D01*
X104105365Y-48850615D01*
X104165161Y-48550000D01*
X104151738Y-48482517D01*
X104231035Y-48673958D01*
X104497837Y-48772557D01*
X105470395Y-47800000D01*
X104497837Y-46827443D01*
X104231035Y-46926042D01*
X104004599Y-47535582D01*
X104018186Y-47902517D01*
X103977850Y-47842150D01*
X103836607Y-47747775D01*
X103670000Y-47714635D01*
X103645611Y-47714635D01*
X102578813Y-46647837D01*
X104677443Y-46647837D01*
X105650000Y-47620395D01*
X106622557Y-46647837D01*
X106523958Y-46381035D01*
X105914418Y-46154599D01*
X105264623Y-46178659D01*
X104776042Y-46381035D01*
X104677443Y-46647837D01*
X102578813Y-46647837D01*
X101850050Y-45919074D01*
X101798329Y-45841669D01*
X101491696Y-45636784D01*
X101221301Y-45582999D01*
X101221299Y-45582999D01*
X101129999Y-45564838D01*
X101038699Y-45582999D01*
X99035000Y-45582999D01*
X99035000Y-44935750D01*
X98876250Y-44777000D01*
X97814500Y-44777000D01*
X97814500Y-44797000D01*
X97560500Y-44797000D01*
X97560500Y-44777000D01*
X96498750Y-44777000D01*
X96340000Y-44935750D01*
X96340000Y-45582999D01*
X95777645Y-45582999D01*
X95808195Y-45537278D01*
X95860365Y-45275000D01*
X95860365Y-44025000D01*
X95808195Y-43762722D01*
X95717508Y-43627000D01*
X96348984Y-43627000D01*
X96340000Y-43648690D01*
X96340000Y-44364250D01*
X96498750Y-44523000D01*
X97560500Y-44523000D01*
X97560500Y-44503000D01*
X97814500Y-44503000D01*
X97814500Y-44523000D01*
X98876250Y-44523000D01*
X99035000Y-44364250D01*
X99035000Y-43648690D01*
X99026016Y-43627000D01*
X106973000Y-43627000D01*
X106973000Y-46890577D01*
X106802163Y-46827443D01*
X105829605Y-47800000D01*
X106802163Y-48772557D01*
X106973000Y-48709423D01*
X106973001Y-50326098D01*
X106957340Y-50302660D01*
X106816097Y-50208285D01*
X106649490Y-50175145D01*
X104650510Y-50175145D01*
X104483903Y-50208285D01*
X104342660Y-50302660D01*
X104248285Y-50443903D01*
X104215145Y-50610510D01*
X104215145Y-52609490D01*
X104248285Y-52776097D01*
X104342660Y-52917340D01*
X104483903Y-53011715D01*
X104650510Y-53044855D01*
X106649490Y-53044855D01*
X106816097Y-53011715D01*
X106957340Y-52917340D01*
X106973001Y-52893902D01*
X106973001Y-56073000D01*
X88771414Y-56073000D01*
X88852927Y-55852532D01*
X87880000Y-54879605D01*
X86907073Y-55852532D01*
X86988586Y-56073000D01*
X83827000Y-56073000D01*
X83827000Y-54435461D01*
X86234092Y-54435461D01*
X86258144Y-55085460D01*
X86460613Y-55574264D01*
X86727468Y-55672927D01*
X87700395Y-54700000D01*
X88059605Y-54700000D01*
X89032532Y-55672927D01*
X89299387Y-55574264D01*
X89525908Y-54964539D01*
X89505232Y-54405750D01*
X92385000Y-54405750D01*
X92385000Y-55121310D01*
X92481673Y-55354699D01*
X92660302Y-55533327D01*
X92893691Y-55630000D01*
X93446750Y-55630000D01*
X93605500Y-55471250D01*
X93605500Y-54247000D01*
X93859500Y-54247000D01*
X93859500Y-55471250D01*
X94018250Y-55630000D01*
X94571309Y-55630000D01*
X94804698Y-55533327D01*
X94983327Y-55354699D01*
X95080000Y-55121310D01*
X95080000Y-54405750D01*
X94921250Y-54247000D01*
X93859500Y-54247000D01*
X93605500Y-54247000D01*
X92543750Y-54247000D01*
X92385000Y-54405750D01*
X89505232Y-54405750D01*
X89501856Y-54314540D01*
X89299387Y-53825736D01*
X89032532Y-53727073D01*
X88059605Y-54700000D01*
X87700395Y-54700000D01*
X86727468Y-53727073D01*
X86460613Y-53825736D01*
X86234092Y-54435461D01*
X83827000Y-54435461D01*
X83827000Y-53547468D01*
X86907073Y-53547468D01*
X87880000Y-54520395D01*
X88852927Y-53547468D01*
X88754264Y-53280613D01*
X88318417Y-53118690D01*
X92385000Y-53118690D01*
X92385000Y-53834250D01*
X92543750Y-53993000D01*
X93605500Y-53993000D01*
X93605500Y-52768750D01*
X93859500Y-52768750D01*
X93859500Y-53993000D01*
X94921250Y-53993000D01*
X95080000Y-53834250D01*
X95080000Y-53495000D01*
X95559635Y-53495000D01*
X95559635Y-54745000D01*
X95611805Y-55007278D01*
X95760374Y-55229626D01*
X95982722Y-55378195D01*
X96245000Y-55430365D01*
X97170000Y-55430365D01*
X97432278Y-55378195D01*
X97654626Y-55229626D01*
X97776653Y-55047000D01*
X101648700Y-55047000D01*
X101740000Y-55065161D01*
X101831300Y-55047000D01*
X101831302Y-55047000D01*
X102101697Y-54993215D01*
X102408330Y-54788330D01*
X102460050Y-54710925D01*
X103810928Y-53360048D01*
X103888330Y-53308330D01*
X104093215Y-53001697D01*
X104147000Y-52731302D01*
X104147000Y-52731301D01*
X104165161Y-52640001D01*
X104147000Y-52548700D01*
X104147000Y-50358698D01*
X104105365Y-50149385D01*
X104105365Y-50050000D01*
X104072225Y-49883393D01*
X103977850Y-49742150D01*
X103836607Y-49647775D01*
X103670000Y-49614635D01*
X103638344Y-49614635D01*
X103581697Y-49576785D01*
X103220000Y-49504839D01*
X102858304Y-49576785D01*
X102801657Y-49614635D01*
X102770000Y-49614635D01*
X102603393Y-49647775D01*
X102462150Y-49742150D01*
X102367775Y-49883393D01*
X102334635Y-50050000D01*
X102334635Y-50149390D01*
X102293001Y-50358698D01*
X102293000Y-52256024D01*
X101356025Y-53193000D01*
X97776653Y-53193000D01*
X97654626Y-53010374D01*
X97432278Y-52861805D01*
X97170000Y-52809635D01*
X96245000Y-52809635D01*
X95982722Y-52861805D01*
X95760374Y-53010374D01*
X95611805Y-53232722D01*
X95559635Y-53495000D01*
X95080000Y-53495000D01*
X95080000Y-53118690D01*
X94983327Y-52885301D01*
X94804698Y-52706673D01*
X94571309Y-52610000D01*
X94018250Y-52610000D01*
X93859500Y-52768750D01*
X93605500Y-52768750D01*
X93446750Y-52610000D01*
X92893691Y-52610000D01*
X92660302Y-52706673D01*
X92481673Y-52885301D01*
X92385000Y-53118690D01*
X88318417Y-53118690D01*
X88144539Y-53054092D01*
X87494540Y-53078144D01*
X87005736Y-53280613D01*
X86907073Y-53547468D01*
X83827000Y-53547468D01*
X83827000Y-52884249D01*
X83862183Y-52969188D01*
X84040811Y-53147817D01*
X84274200Y-53244490D01*
X85114250Y-53244490D01*
X85273000Y-53085740D01*
X85273000Y-51737000D01*
X85527000Y-51737000D01*
X85527000Y-53085740D01*
X85685750Y-53244490D01*
X86525800Y-53244490D01*
X86759189Y-53147817D01*
X86937817Y-52969188D01*
X87034490Y-52735799D01*
X87034490Y-51895750D01*
X86875740Y-51737000D01*
X85527000Y-51737000D01*
X85273000Y-51737000D01*
X85253000Y-51737000D01*
X85253000Y-51483000D01*
X85273000Y-51483000D01*
X85273000Y-50134260D01*
X85527000Y-50134260D01*
X85527000Y-51483000D01*
X86875740Y-51483000D01*
X87034490Y-51324250D01*
X87034490Y-50484201D01*
X86937817Y-50250812D01*
X86759189Y-50072183D01*
X86525800Y-49975510D01*
X85685750Y-49975510D01*
X85527000Y-50134260D01*
X85273000Y-50134260D01*
X85114250Y-49975510D01*
X84274200Y-49975510D01*
X84040811Y-50072183D01*
X83862183Y-50250812D01*
X83827000Y-50335751D01*
X83827000Y-47516253D01*
X83973510Y-47516253D01*
X83973510Y-48083747D01*
X84190680Y-48608042D01*
X84591958Y-49009320D01*
X85116253Y-49226490D01*
X85683747Y-49226490D01*
X86208042Y-49009320D01*
X86609320Y-48608042D01*
X86826490Y-48083747D01*
X86826490Y-47516253D01*
X86609320Y-46991958D01*
X86208042Y-46590680D01*
X85683747Y-46373510D01*
X85116253Y-46373510D01*
X84591958Y-46590680D01*
X84190680Y-46991958D01*
X83973510Y-47516253D01*
X83827000Y-47516253D01*
X83827000Y-43627000D01*
X93707492Y-43627000D01*
X93616805Y-43762722D01*
G04 #@! TD*
M02*
