<?xml version="1.0" standalone="no"?>
 <!DOCTYPE svg PUBLIC "-//W3C//DTD SVG 1.1//EN" 
 "http://www.w3.org/Graphics/SVG/1.1/DTD/svg11.dtd"> 
<svg xmlns="http://www.w3.org/2000/svg" version="1.1" 
    width="29.7002cm" height="21.0007cm" viewBox="0 0 116930 82680 ">
<title>SVG Picture created as VienaTranPastiprinatajs-F.SilkS.svg date 2020/05/13 08:37:59 </title>
  <desc>Picture generated by PCBNEW </desc>
<g style="fill:#000000; fill-opacity:1;stroke:#000000; stroke-opacity:1;
stroke-linecap:round; stroke-linejoin:round; "
 transform="translate(0 0) scale(1 1)">
</g>
<g style="fill:#000000; fill-opacity:0.0; 
stroke:#000000; stroke-width:-0.000393701; stroke-opacity:1; 
stroke-linecap:round; stroke-linejoin:round;">
</g>
<g style="fill:#000000; fill-opacity:0.0; 
stroke:#000000; stroke-width:39.3701; stroke-opacity:1; 
stroke-linecap:round; stroke-linejoin:round;">
</g>
<g style="fill:#000000; fill-opacity:0.0; 
stroke:#000000; stroke-width:59.0551; stroke-opacity:1; 
stroke-linecap:round; stroke-linejoin:round;">
<rect x="69685.9" y="65357.2" width="42519.7" height="12598.4" rx="0" />
</g>
<g style="fill:#000000; fill-opacity:0.0; 
stroke:#000000; stroke-width:39.3701; stroke-opacity:1; 
stroke-linecap:round; stroke-linejoin:round;">
</g>
<g style="fill:#000000; fill-opacity:0.0; 
stroke:#000000; stroke-width:59.0551; stroke-opacity:1; 
stroke-linecap:round; stroke-linejoin:round;">
<rect x="3937.01" y="3937.01" width="109056" height="74806" rx="0" />
</g>
<g style="fill:#000000; fill-opacity:0.0; 
stroke:#000000; stroke-width:39.3701; stroke-opacity:1; 
stroke-linecap:round; stroke-linejoin:round;">
</g>
<g style="fill:#000000; fill-opacity:0.0; 
stroke:#000000; stroke-width:59.0551; stroke-opacity:1; 
stroke-linecap:round; stroke-linejoin:round;">
<rect x="4724.41" y="4724.41" width="107481" height="73231.2" rx="0" />
</g>
<g style="fill:#000000; fill-opacity:0.0; 
stroke:#000000; stroke-width:39.3701; stroke-opacity:1; 
stroke-linecap:round; stroke-linejoin:round;">
</g>
<g style="fill:#000000; fill-opacity:0.0; 
stroke:#000000; stroke-width:59.0551; stroke-opacity:1; 
stroke-linecap:round; stroke-linejoin:round;">
<path d="M23622 4724
L23622 3937
" />
</g>
<g style="fill:#000000; fill-opacity:0.0; 
stroke:#000000; stroke-width:39.3701; stroke-opacity:1; 
stroke-linecap:round; stroke-linejoin:round;">
</g>
<g style="fill:#000000; fill-opacity:0.0; 
stroke:#000000; stroke-width:59.0551; stroke-opacity:1; 
stroke-linecap:round; stroke-linejoin:round;">
<path d="M43307 4724
L43307 3937
" />
</g>
<g style="fill:#000000; fill-opacity:0.0; 
stroke:#000000; stroke-width:39.3701; stroke-opacity:1; 
stroke-linecap:round; stroke-linejoin:round;">
</g>
<g style="fill:#000000; fill-opacity:0.0; 
stroke:#000000; stroke-width:59.0551; stroke-opacity:1; 
stroke-linecap:round; stroke-linejoin:round;">
<path d="M62992 4724
L62992 3937
" />
</g>
<g style="fill:#000000; fill-opacity:0.0; 
stroke:#000000; stroke-width:39.3701; stroke-opacity:1; 
stroke-linecap:round; stroke-linejoin:round;">
</g>
<g style="fill:#000000; fill-opacity:0.0; 
stroke:#000000; stroke-width:59.0551; stroke-opacity:1; 
stroke-linecap:round; stroke-linejoin:round;">
<path d="M82677 4724
L82677 3937
" />
</g>
<g style="fill:#000000; fill-opacity:0.0; 
stroke:#000000; stroke-width:39.3701; stroke-opacity:1; 
stroke-linecap:round; stroke-linejoin:round;">
</g>
<g style="fill:#000000; fill-opacity:0.0; 
stroke:#000000; stroke-width:59.0551; stroke-opacity:1; 
stroke-linecap:round; stroke-linejoin:round;">
<path d="M102362 4724
L102362 3937
" />
</g>
<g style="fill:#000000; fill-opacity:0.0; 
stroke:#000000; stroke-width:39.3701; stroke-opacity:1; 
stroke-linecap:round; stroke-linejoin:round;">
</g>
<g style="fill:#000000; fill-opacity:0.0; 
stroke:#000000; stroke-width:59.0551; stroke-opacity:1; 
stroke-linecap:round; stroke-linejoin:round;">
<path d="M14199 4562
L13906 4562
" />
<path d="M14052 4562
L14052 4050
L14004 4123
L13955 4172
L13906 4196
" />
</g>
<g style="fill:#000000; fill-opacity:0.0; 
stroke:#000000; stroke-width:39.3701; stroke-opacity:1; 
stroke-linecap:round; stroke-linejoin:round;">
</g>
<g style="fill:#000000; fill-opacity:0.0; 
stroke:#000000; stroke-width:59.0551; stroke-opacity:1; 
stroke-linecap:round; stroke-linejoin:round;">
<path d="M33591 4099
L33615 4074
L33664 4050
L33786 4050
L33835 4074
L33859 4099
L33884 4147
L33884 4196
L33859 4269
L33567 4562
L33884 4562
" />
</g>
<g style="fill:#000000; fill-opacity:0.0; 
stroke:#000000; stroke-width:39.3701; stroke-opacity:1; 
stroke-linecap:round; stroke-linejoin:round;">
</g>
<g style="fill:#000000; fill-opacity:0.0; 
stroke:#000000; stroke-width:59.0551; stroke-opacity:1; 
stroke-linecap:round; stroke-linejoin:round;">
<path d="M53252 4050
L53569 4050
L53398 4245
L53471 4245
L53520 4269
L53544 4294
L53569 4342
L53569 4464
L53544 4513
L53520 4537
L53471 4562
L53325 4562
L53276 4537
L53252 4513
" />
</g>
<g style="fill:#000000; fill-opacity:0.0; 
stroke:#000000; stroke-width:39.3701; stroke-opacity:1; 
stroke-linecap:round; stroke-linejoin:round;">
</g>
<g style="fill:#000000; fill-opacity:0.0; 
stroke:#000000; stroke-width:59.0551; stroke-opacity:1; 
stroke-linecap:round; stroke-linejoin:round;">
<path d="M73205 4221
L73205 4562
" />
<path d="M73083 4026
L72961 4391
L73278 4391
" />
</g>
<g style="fill:#000000; fill-opacity:0.0; 
stroke:#000000; stroke-width:39.3701; stroke-opacity:1; 
stroke-linecap:round; stroke-linejoin:round;">
</g>
<g style="fill:#000000; fill-opacity:0.0; 
stroke:#000000; stroke-width:59.0551; stroke-opacity:1; 
stroke-linecap:round; stroke-linejoin:round;">
<path d="M92914 4050
L92671 4050
L92646 4294
L92671 4269
L92719 4245
L92841 4245
L92890 4269
L92914 4294
L92939 4342
L92939 4464
L92914 4513
L92890 4537
L92841 4562
L92719 4562
L92671 4537
L92646 4513
" />
</g>
<g style="fill:#000000; fill-opacity:0.0; 
stroke:#000000; stroke-width:39.3701; stroke-opacity:1; 
stroke-linecap:round; stroke-linejoin:round;">
</g>
<g style="fill:#000000; fill-opacity:0.0; 
stroke:#000000; stroke-width:59.0551; stroke-opacity:1; 
stroke-linecap:round; stroke-linejoin:round;">
<path d="M112575 4050
L112477 4050
L112429 4074
L112404 4099
L112356 4172
L112331 4269
L112331 4464
L112356 4513
L112380 4537
L112429 4562
L112526 4562
L112575 4537
L112599 4513
L112624 4464
L112624 4342
L112599 4294
L112575 4269
L112526 4245
L112429 4245
L112380 4269
L112356 4294
L112331 4342
" />
</g>
<g style="fill:#000000; fill-opacity:0.0; 
stroke:#000000; stroke-width:39.3701; stroke-opacity:1; 
stroke-linecap:round; stroke-linejoin:round;">
</g>
<g style="fill:#000000; fill-opacity:0.0; 
stroke:#000000; stroke-width:59.0551; stroke-opacity:1; 
stroke-linecap:round; stroke-linejoin:round;">
<path d="M23622 77955
L23622 78742
" />
</g>
<g style="fill:#000000; fill-opacity:0.0; 
stroke:#000000; stroke-width:39.3701; stroke-opacity:1; 
stroke-linecap:round; stroke-linejoin:round;">
</g>
<g style="fill:#000000; fill-opacity:0.0; 
stroke:#000000; stroke-width:59.0551; stroke-opacity:1; 
stroke-linecap:round; stroke-linejoin:round;">
<path d="M43307 77955
L43307 78742
" />
</g>
<g style="fill:#000000; fill-opacity:0.0; 
stroke:#000000; stroke-width:39.3701; stroke-opacity:1; 
stroke-linecap:round; stroke-linejoin:round;">
</g>
<g style="fill:#000000; fill-opacity:0.0; 
stroke:#000000; stroke-width:59.0551; stroke-opacity:1; 
stroke-linecap:round; stroke-linejoin:round;">
<path d="M62992 77955
L62992 78742
" />
</g>
<g style="fill:#000000; fill-opacity:0.0; 
stroke:#000000; stroke-width:39.3701; stroke-opacity:1; 
stroke-linecap:round; stroke-linejoin:round;">
</g>
<g style="fill:#000000; fill-opacity:0.0; 
stroke:#000000; stroke-width:59.0551; stroke-opacity:1; 
stroke-linecap:round; stroke-linejoin:round;">
<path d="M82677 77955
L82677 78742
" />
</g>
<g style="fill:#000000; fill-opacity:0.0; 
stroke:#000000; stroke-width:39.3701; stroke-opacity:1; 
stroke-linecap:round; stroke-linejoin:round;">
</g>
<g style="fill:#000000; fill-opacity:0.0; 
stroke:#000000; stroke-width:59.0551; stroke-opacity:1; 
stroke-linecap:round; stroke-linejoin:round;">
<path d="M102362 77955
L102362 78742
" />
</g>
<g style="fill:#000000; fill-opacity:0.0; 
stroke:#000000; stroke-width:39.3701; stroke-opacity:1; 
stroke-linecap:round; stroke-linejoin:round;">
</g>
<g style="fill:#000000; fill-opacity:0.0; 
stroke:#000000; stroke-width:59.0551; stroke-opacity:1; 
stroke-linecap:round; stroke-linejoin:round;">
<path d="M14199 78580
L13906 78580
" />
<path d="M14052 78580
L14052 78069
L14004 78142
L13955 78190
L13906 78215
" />
</g>
<g style="fill:#000000; fill-opacity:0.0; 
stroke:#000000; stroke-width:39.3701; stroke-opacity:1; 
stroke-linecap:round; stroke-linejoin:round;">
</g>
<g style="fill:#000000; fill-opacity:0.0; 
stroke:#000000; stroke-width:59.0551; stroke-opacity:1; 
stroke-linecap:round; stroke-linejoin:round;">
<path d="M33591 78117
L33615 78093
L33664 78069
L33786 78069
L33835 78093
L33859 78117
L33884 78166
L33884 78215
L33859 78288
L33567 78580
L33884 78580
" />
</g>
<g style="fill:#000000; fill-opacity:0.0; 
stroke:#000000; stroke-width:39.3701; stroke-opacity:1; 
stroke-linecap:round; stroke-linejoin:round;">
</g>
<g style="fill:#000000; fill-opacity:0.0; 
stroke:#000000; stroke-width:59.0551; stroke-opacity:1; 
stroke-linecap:round; stroke-linejoin:round;">
<path d="M53252 78069
L53569 78069
L53398 78263
L53471 78263
L53520 78288
L53544 78312
L53569 78361
L53569 78483
L53544 78532
L53520 78556
L53471 78580
L53325 78580
L53276 78556
L53252 78532
" />
</g>
<g style="fill:#000000; fill-opacity:0.0; 
stroke:#000000; stroke-width:39.3701; stroke-opacity:1; 
stroke-linecap:round; stroke-linejoin:round;">
</g>
<g style="fill:#000000; fill-opacity:0.0; 
stroke:#000000; stroke-width:59.0551; stroke-opacity:1; 
stroke-linecap:round; stroke-linejoin:round;">
<path d="M73205 78239
L73205 78580
" />
<path d="M73083 78044
L72961 78410
L73278 78410
" />
</g>
<g style="fill:#000000; fill-opacity:0.0; 
stroke:#000000; stroke-width:39.3701; stroke-opacity:1; 
stroke-linecap:round; stroke-linejoin:round;">
</g>
<g style="fill:#000000; fill-opacity:0.0; 
stroke:#000000; stroke-width:59.0551; stroke-opacity:1; 
stroke-linecap:round; stroke-linejoin:round;">
<path d="M92914 78069
L92671 78069
L92646 78312
L92671 78288
L92719 78263
L92841 78263
L92890 78288
L92914 78312
L92939 78361
L92939 78483
L92914 78532
L92890 78556
L92841 78580
L92719 78580
L92671 78556
L92646 78532
" />
</g>
<g style="fill:#000000; fill-opacity:0.0; 
stroke:#000000; stroke-width:39.3701; stroke-opacity:1; 
stroke-linecap:round; stroke-linejoin:round;">
</g>
<g style="fill:#000000; fill-opacity:0.0; 
stroke:#000000; stroke-width:59.0551; stroke-opacity:1; 
stroke-linecap:round; stroke-linejoin:round;">
<path d="M112575 78069
L112477 78069
L112429 78093
L112404 78117
L112356 78190
L112331 78288
L112331 78483
L112356 78532
L112380 78556
L112429 78580
L112526 78580
L112575 78556
L112599 78532
L112624 78483
L112624 78361
L112599 78312
L112575 78288
L112526 78263
L112429 78263
L112380 78288
L112356 78312
L112331 78361
" />
</g>
<g style="fill:#000000; fill-opacity:0.0; 
stroke:#000000; stroke-width:39.3701; stroke-opacity:1; 
stroke-linecap:round; stroke-linejoin:round;">
</g>
<g style="fill:#000000; fill-opacity:0.0; 
stroke:#000000; stroke-width:59.0551; stroke-opacity:1; 
stroke-linecap:round; stroke-linejoin:round;">
<path d="M3937 23622
L4724 23622
" />
</g>
<g style="fill:#000000; fill-opacity:0.0; 
stroke:#000000; stroke-width:39.3701; stroke-opacity:1; 
stroke-linecap:round; stroke-linejoin:round;">
</g>
<g style="fill:#000000; fill-opacity:0.0; 
stroke:#000000; stroke-width:59.0551; stroke-opacity:1; 
stroke-linecap:round; stroke-linejoin:round;">
<path d="M3937 43307
L4724 43307
" />
</g>
<g style="fill:#000000; fill-opacity:0.0; 
stroke:#000000; stroke-width:39.3701; stroke-opacity:1; 
stroke-linecap:round; stroke-linejoin:round;">
</g>
<g style="fill:#000000; fill-opacity:0.0; 
stroke:#000000; stroke-width:59.0551; stroke-opacity:1; 
stroke-linecap:round; stroke-linejoin:round;">
<path d="M3937 62992
L4724 62992
" />
</g>
<g style="fill:#000000; fill-opacity:0.0; 
stroke:#000000; stroke-width:39.3701; stroke-opacity:1; 
stroke-linecap:round; stroke-linejoin:round;">
</g>
<g style="fill:#000000; fill-opacity:0.0; 
stroke:#000000; stroke-width:59.0551; stroke-opacity:1; 
stroke-linecap:round; stroke-linejoin:round;">
<path d="M4208 13864
L4452 13864
" />
<path d="M4160 14011
L4330 13499
L4501 14011
" />
</g>
<g style="fill:#000000; fill-opacity:0.0; 
stroke:#000000; stroke-width:39.3701; stroke-opacity:1; 
stroke-linecap:round; stroke-linejoin:round;">
</g>
<g style="fill:#000000; fill-opacity:0.0; 
stroke:#000000; stroke-width:59.0551; stroke-opacity:1; 
stroke-linecap:round; stroke-linejoin:round;">
<path d="M4367 33428
L4440 33452
L4464 33476
L4489 33525
L4489 33598
L4464 33647
L4440 33671
L4391 33696
L4196 33696
L4196 33184
L4367 33184
L4416 33208
L4440 33233
L4464 33281
L4464 33330
L4440 33379
L4416 33403
L4367 33428
L4196 33428
" />
</g>
<g style="fill:#000000; fill-opacity:0.0; 
stroke:#000000; stroke-width:39.3701; stroke-opacity:1; 
stroke-linecap:round; stroke-linejoin:round;">
</g>
<g style="fill:#000000; fill-opacity:0.0; 
stroke:#000000; stroke-width:59.0551; stroke-opacity:1; 
stroke-linecap:round; stroke-linejoin:round;">
<path d="M4489 53332
L4464 53356
L4391 53381
L4342 53381
L4269 53356
L4221 53308
L4196 53259
L4172 53161
L4172 53088
L4196 52991
L4221 52942
L4269 52893
L4342 52869
L4391 52869
L4464 52893
L4489 52918
" />
</g>
<g style="fill:#000000; fill-opacity:0.0; 
stroke:#000000; stroke-width:39.3701; stroke-opacity:1; 
stroke-linecap:round; stroke-linejoin:round;">
</g>
<g style="fill:#000000; fill-opacity:0.0; 
stroke:#000000; stroke-width:59.0551; stroke-opacity:1; 
stroke-linecap:round; stroke-linejoin:round;">
<path d="M4196 73066
L4196 72554
L4318 72554
L4391 72578
L4440 72627
L4464 72676
L4489 72773
L4489 72846
L4464 72944
L4440 72993
L4391 73041
L4318 73066
L4196 73066
" />
</g>
<g style="fill:#000000; fill-opacity:0.0; 
stroke:#000000; stroke-width:39.3701; stroke-opacity:1; 
stroke-linecap:round; stroke-linejoin:round;">
</g>
<g style="fill:#000000; fill-opacity:0.0; 
stroke:#000000; stroke-width:59.0551; stroke-opacity:1; 
stroke-linecap:round; stroke-linejoin:round;">
<path d="M112992 23622
L112205 23622
" />
</g>
<g style="fill:#000000; fill-opacity:0.0; 
stroke:#000000; stroke-width:39.3701; stroke-opacity:1; 
stroke-linecap:round; stroke-linejoin:round;">
</g>
<g style="fill:#000000; fill-opacity:0.0; 
stroke:#000000; stroke-width:59.0551; stroke-opacity:1; 
stroke-linecap:round; stroke-linejoin:round;">
<path d="M112992 43307
L112205 43307
" />
</g>
<g style="fill:#000000; fill-opacity:0.0; 
stroke:#000000; stroke-width:39.3701; stroke-opacity:1; 
stroke-linecap:round; stroke-linejoin:round;">
</g>
<g style="fill:#000000; fill-opacity:0.0; 
stroke:#000000; stroke-width:59.0551; stroke-opacity:1; 
stroke-linecap:round; stroke-linejoin:round;">
<path d="M112992 62992
L112205 62992
" />
</g>
<g style="fill:#000000; fill-opacity:0.0; 
stroke:#000000; stroke-width:39.3701; stroke-opacity:1; 
stroke-linecap:round; stroke-linejoin:round;">
</g>
<g style="fill:#000000; fill-opacity:0.0; 
stroke:#000000; stroke-width:59.0551; stroke-opacity:1; 
stroke-linecap:round; stroke-linejoin:round;">
<path d="M112477 13864
L112721 13864
" />
<path d="M112428 14011
L112599 13499
L112769 14011
" />
</g>
<g style="fill:#000000; fill-opacity:0.0; 
stroke:#000000; stroke-width:39.3701; stroke-opacity:1; 
stroke-linecap:round; stroke-linejoin:round;">
</g>
<g style="fill:#000000; fill-opacity:0.0; 
stroke:#000000; stroke-width:59.0551; stroke-opacity:1; 
stroke-linecap:round; stroke-linejoin:round;">
<path d="M112635 33428
L112708 33452
L112733 33476
L112757 33525
L112757 33598
L112733 33647
L112708 33671
L112660 33696
L112465 33696
L112465 33184
L112635 33184
L112684 33208
L112708 33233
L112733 33281
L112733 33330
L112708 33379
L112684 33403
L112635 33428
L112465 33428
" />
</g>
<g style="fill:#000000; fill-opacity:0.0; 
stroke:#000000; stroke-width:39.3701; stroke-opacity:1; 
stroke-linecap:round; stroke-linejoin:round;">
</g>
<g style="fill:#000000; fill-opacity:0.0; 
stroke:#000000; stroke-width:59.0551; stroke-opacity:1; 
stroke-linecap:round; stroke-linejoin:round;">
<path d="M112757 53332
L112733 53356
L112660 53381
L112611 53381
L112538 53356
L112489 53308
L112465 53259
L112440 53161
L112440 53088
L112465 52991
L112489 52942
L112538 52893
L112611 52869
L112660 52869
L112733 52893
L112757 52918
" />
</g>
<g style="fill:#000000; fill-opacity:0.0; 
stroke:#000000; stroke-width:39.3701; stroke-opacity:1; 
stroke-linecap:round; stroke-linejoin:round;">
</g>
<g style="fill:#000000; fill-opacity:0.0; 
stroke:#000000; stroke-width:59.0551; stroke-opacity:1; 
stroke-linecap:round; stroke-linejoin:round;">
<path d="M112465 73066
L112465 72554
L112587 72554
L112660 72578
L112708 72627
L112733 72676
L112757 72773
L112757 72846
L112733 72944
L112708 72993
L112660 73041
L112587 73066
L112465 73066
" />
</g>
<g style="fill:#000000; fill-opacity:0.0; 
stroke:#000000; stroke-width:39.3701; stroke-opacity:1; 
stroke-linecap:round; stroke-linejoin:round;">
</g>
<g style="fill:#000000; fill-opacity:0.0; 
stroke:#000000; stroke-width:59.0551; stroke-opacity:1; 
stroke-linecap:round; stroke-linejoin:round;">
<path d="M78911 76293
L78911 75703
L79051 75703
L79136 75731
L79192 75787
L79220 75843
L79248 75956
L79248 76040
L79220 76153
L79192 76209
L79136 76265
L79051 76293
L78911 76293
" />
<path d="M79754 76293
L79754 75984
L79726 75928
L79670 75899
L79557 75899
L79501 75928
" />
<path d="M79754 76265
L79698 76293
L79557 76293
L79501 76265
L79473 76209
L79473 76153
L79501 76096
L79557 76068
L79698 76068
L79754 76040
" />
<path d="M79951 75899
L80176 75899
" />
<path d="M80036 75703
L80036 76209
L80064 76265
L80120 76293
L80176 76293
" />
<path d="M80598 76265
L80542 76293
L80429 76293
L80373 76265
L80345 76209
L80345 75984
L80373 75928
L80429 75899
L80542 75899
L80598 75928
L80626 75984
L80626 76040
L80345 76096
" />
<path d="M80879 76237
L80907 76265
L80879 76293
L80851 76265
L80879 76237
L80879 76293
" />
<path d="M80879 75928
L80907 75956
L80879 75984
L80851 75956
L80879 75928
L80879 75984
" />
<path d="M81582 75759
L81610 75731
L81667 75703
L81807 75703
L81863 75731
L81892 75759
L81920 75815
L81920 75871
L81892 75956
L81554 76293
L81920 76293
" />
<path d="M82285 75703
L82341 75703
L82398 75731
L82426 75759
L82454 75815
L82482 75928
L82482 76068
L82454 76181
L82426 76237
L82398 76265
L82341 76293
L82285 76293
L82229 76265
L82201 76237
L82173 76181
L82145 76068
L82145 75928
L82173 75815
L82201 75759
L82229 75731
L82285 75703
" />
<path d="M82707 75759
L82735 75731
L82791 75703
L82932 75703
L82988 75731
L83016 75759
L83045 75815
L83045 75871
L83016 75956
L82679 76293
L83045 76293
" />
<path d="M83410 75703
L83466 75703
L83523 75731
L83551 75759
L83579 75815
L83607 75928
L83607 76068
L83579 76181
L83551 76237
L83523 76265
L83466 76293
L83410 76293
L83354 76265
L83326 76237
L83298 76181
L83269 76068
L83269 75928
L83298 75815
L83326 75759
L83354 75731
L83410 75703
" />
<path d="M83860 76068
L84310 76068
" />
<path d="M84704 75703
L84760 75703
L84816 75731
L84844 75759
L84872 75815
L84901 75928
L84901 76068
L84872 76181
L84844 76237
L84816 76265
L84760 76293
L84704 76293
L84647 76265
L84619 76237
L84591 76181
L84563 76068
L84563 75928
L84591 75815
L84619 75759
L84647 75731
L84704 75703
" />
<path d="M85407 75899
L85407 76293
" />
<path d="M85266 75674
L85126 76096
L85491 76096
" />
<path d="M85716 76068
L86166 76068
" />
<path d="M86419 75759
L86447 75731
L86503 75703
L86644 75703
L86700 75731
L86728 75759
L86757 75815
L86757 75871
L86728 75956
L86391 76293
L86757 76293
" />
<path d="M86953 75703
L87319 75703
L87122 75928
L87206 75928
L87263 75956
L87291 75984
L87319 76040
L87319 76181
L87291 76237
L87263 76265
L87206 76293
L87038 76293
L86982 76265
L86953 76237
" />
</g>
<g style="fill:#000000; fill-opacity:0.0; 
stroke:#000000; stroke-width:39.3701; stroke-opacity:1; 
stroke-linecap:round; stroke-linejoin:round;">
</g>
<g style="fill:#000000; fill-opacity:0.0; 
stroke:#000000; stroke-width:59.0551; stroke-opacity:1; 
stroke-linecap:round; stroke-linejoin:round;">
<path d="M69685 76577
L112205 76577
" />
</g>
<g style="fill:#000000; fill-opacity:0.0; 
stroke:#000000; stroke-width:39.3701; stroke-opacity:1; 
stroke-linecap:round; stroke-linejoin:round;">
</g>
<g style="fill:#000000; fill-opacity:0.0; 
stroke:#000000; stroke-width:59.0551; stroke-opacity:1; 
stroke-linecap:round; stroke-linejoin:round;">
<path d="M70249 77395
L70249 76805
" />
<path d="M70587 77395
L70334 77058
" />
<path d="M70587 76805
L70249 77142
" />
<path d="M70840 77395
L70840 77002
" />
<path d="M70840 76805
L70812 76833
L70840 76861
L70868 76833
L70840 76805
L70840 76861
" />
<path d="M71458 77339
L71430 77367
L71346 77395
L71290 77395
L71205 77367
L71149 77311
L71121 77255
L71093 77142
L71093 77058
L71121 76946
L71149 76889
L71205 76833
L71290 76805
L71346 76805
L71430 76833
L71458 76861
" />
<path d="M71965 77395
L71965 77086
L71937 77030
L71880 77002
L71768 77002
L71712 77030
" />
<path d="M71965 77367
L71908 77395
L71768 77395
L71712 77367
L71683 77311
L71683 77255
L71712 77199
L71768 77171
L71908 77171
L71965 77142
" />
<path d="M72499 77395
L72499 76805
" />
<path d="M72499 77367
L72443 77395
L72330 77395
L72274 77367
L72246 77339
L72218 77283
L72218 77114
L72246 77058
L72274 77030
L72330 77002
L72443 77002
L72499 77030
" />
<path d="M73230 77086
L73427 77086
" />
<path d="M73511 77395
L73230 77395
L73230 76805
L73511 76805
" />
<path d="M73764 77339
L73793 77367
L73764 77395
L73736 77367
L73764 77339
L73764 77395
" />
<path d="M74046 77395
L74046 76805
L74186 76805
L74271 76833
L74327 76889
L74355 76946
L74383 77058
L74383 77142
L74355 77255
L74327 77311
L74271 77367
L74186 77395
L74046 77395
" />
<path d="M74636 77339
L74664 77367
L74636 77395
L74608 77367
L74636 77339
L74636 77395
" />
<path d="M74889 77227
L75171 77227
" />
<path d="M74833 77395
L75030 76805
L75227 77395
" />
<path d="M75424 77339
L75452 77367
L75424 77395
L75395 77367
L75424 77339
L75424 77395
" />
<path d="M76605 77002
L76605 77592
" />
<path d="M76605 77030
L76661 77002
L76773 77002
L76830 77030
L76858 77058
L76886 77114
L76886 77283
L76858 77339
L76830 77367
L76773 77395
L76661 77395
L76605 77367
" />
<path d="M77392 77367
L77336 77395
L77223 77395
L77167 77367
L77139 77339
L77111 77283
L77111 77114
L77139 77058
L77167 77030
L77223 77002
L77336 77002
L77392 77030
" />
<path d="M77645 77395
L77645 76805
" />
<path d="M77645 77030
L77701 77002
L77814 77002
L77870 77030
L77898 77058
L77926 77114
L77926 77283
L77898 77339
L77870 77367
L77814 77395
L77701 77395
L77645 77367
" />
<path d="M78180 77002
L78180 77395
" />
<path d="M78180 77058
L78208 77030
L78264 77002
L78348 77002
L78404 77030
L78433 77086
L78433 77395
" />
<path d="M78939 77367
L78883 77395
L78770 77395
L78714 77367
L78686 77311
L78686 77086
L78714 77030
L78770 77002
L78883 77002
L78939 77030
L78967 77086
L78967 77142
L78686 77199
" />
<path d="M79164 77002
L79276 77395
L79389 77114
L79501 77395
L79614 77002
" />
<path d="M80457 77620
L80429 77592
L80373 77508
L80345 77452
L80317 77367
L80289 77227
L80289 77114
L80317 76974
L80345 76889
L80373 76833
L80429 76749
L80457 76721
" />
<path d="M80964 76805
L80682 76805
L80654 77086
L80682 77058
L80739 77030
L80879 77030
L80935 77058
L80964 77086
L80992 77142
L80992 77283
L80964 77339
L80935 77367
L80879 77395
L80739 77395
L80682 77367
L80654 77339
" />
<path d="M81245 77339
L81273 77367
L81245 77395
L81217 77367
L81245 77339
L81245 77395
" />
<path d="M81638 76805
L81695 76805
L81751 76833
L81779 76861
L81807 76917
L81835 77030
L81835 77171
L81807 77283
L81779 77339
L81751 77367
L81695 77395
L81638 77395
L81582 77367
L81554 77339
L81526 77283
L81498 77171
L81498 77030
L81526 76917
L81554 76861
L81582 76833
L81638 76805
" />
<path d="M82088 77339
L82117 77367
L82088 77395
L82060 77367
L82088 77339
L82088 77395
" />
<path d="M82679 77395
L82341 77395
" />
<path d="M82510 77395
L82510 76805
L82454 76889
L82398 76946
L82341 76974
" />
<path d="M82876 77620
L82904 77592
L82960 77508
L82988 77452
L83016 77367
L83045 77227
L83045 77114
L83016 76974
L82988 76889
L82960 76833
L82904 76749
L82876 76721
" />
<path d="M83326 77171
L83776 77171
" />
<path d="M84001 76805
L84366 76805
L84169 77030
L84254 77030
L84310 77058
L84338 77086
L84366 77142
L84366 77283
L84338 77339
L84310 77367
L84254 77395
L84085 77395
L84029 77367
L84001 77339
" />
</g>
<g style="fill:#000000; fill-opacity:0.0; 
stroke:#000000; stroke-width:39.3701; stroke-opacity:1; 
stroke-linecap:round; stroke-linejoin:round;">
</g>
<g style="fill:#000000; fill-opacity:0.0; 
stroke:#000000; stroke-width:59.0551; stroke-opacity:1; 
stroke-linecap:round; stroke-linejoin:round;">
<path d="M69685 75396
L112205 75396
" />
</g>
<g style="fill:#000000; fill-opacity:0.0; 
stroke:#000000; stroke-width:39.3701; stroke-opacity:1; 
stroke-linecap:round; stroke-linejoin:round;">
</g>
<g style="fill:#000000; fill-opacity:0.0; 
stroke:#000000; stroke-width:118.11; stroke-opacity:1; 
stroke-linecap:round; stroke-linejoin:round;">
<path d="M104099 76293
L103902 76012
" />
<path d="M103761 76293
L103761 75703
L103986 75703
L104042 75731
L104070 75759
L104099 75815
L104099 75899
L104070 75956
L104042 75984
L103986 76012
L103761 76012
" />
<path d="M104577 76265
L104520 76293
L104408 76293
L104352 76265
L104323 76209
L104323 75984
L104352 75928
L104408 75899
L104520 75899
L104577 75928
L104605 75984
L104605 76040
L104323 76096
" />
<path d="M104802 75899
L104942 76293
L105083 75899
" />
<path d="M105308 76237
L105336 76265
L105308 76293
L105280 76265
L105308 76237
L105308 76293
" />
<path d="M105308 75928
L105336 75956
L105308 75984
L105280 75956
L105308 75928
L105308 75984
" />
</g>
<g style="fill:#000000; fill-opacity:0.0; 
stroke:#000000; stroke-width:39.3701; stroke-opacity:1; 
stroke-linecap:round; stroke-linejoin:round;">
</g>
<g style="fill:#000000; fill-opacity:0.0; 
stroke:#000000; stroke-width:59.0551; stroke-opacity:1; 
stroke-linecap:round; stroke-linejoin:round;">
<path d="M70221 76265
L70305 76293
L70446 76293
L70502 76265
L70530 76237
L70559 76181
L70559 76124
L70530 76068
L70502 76040
L70446 76012
L70334 75984
L70277 75956
L70249 75928
L70221 75871
L70221 75815
L70249 75759
L70277 75731
L70334 75703
L70474 75703
L70559 75731
" />
<path d="M70812 76293
L70812 75899
" />
<path d="M70812 75703
L70784 75731
L70812 75759
L70840 75731
L70812 75703
L70812 75759
" />
<path d="M71037 75899
L71346 75899
L71037 76293
L71346 76293
" />
<path d="M71796 76265
L71740 76293
L71627 76293
L71571 76265
L71543 76209
L71543 75984
L71571 75928
L71627 75899
L71740 75899
L71796 75928
L71824 75984
L71824 76040
L71543 76096
" />
<path d="M72077 76237
L72105 76265
L72077 76293
L72049 76265
L72077 76237
L72077 76293
" />
<path d="M72077 75928
L72105 75956
L72077 75984
L72049 75956
L72077 75928
L72077 75984
" />
<path d="M72780 76124
L73061 76124
" />
<path d="M72724 76293
L72921 75703
L73118 76293
" />
<path d="M73568 75899
L73568 76293
" />
<path d="M73427 75674
L73286 76096
L73652 76096
" />
</g>
<g style="fill:#000000; fill-opacity:0.0; 
stroke:#000000; stroke-width:39.3701; stroke-opacity:1; 
stroke-linecap:round; stroke-linejoin:round;">
</g>
<g style="fill:#000000; fill-opacity:0.0; 
stroke:#000000; stroke-width:59.0551; stroke-opacity:1; 
stroke-linecap:round; stroke-linejoin:round;">
<path d="M103714 77395
L103714 76805
" />
<path d="M104248 77395
L104248 76805
" />
<path d="M104248 77367
L104192 77395
L104079 77395
L104023 77367
L103995 77339
L103967 77283
L103967 77114
L103995 77058
L104023 77030
L104079 77002
L104192 77002
L104248 77030
" />
<path d="M104529 77339
L104557 77367
L104529 77395
L104501 77367
L104529 77339
L104529 77395
" />
<path d="M104529 77030
L104557 77058
L104529 77086
L104501 77058
L104529 77030
L104529 77086
" />
<path d="M105570 77395
L105232 77395
" />
<path d="M105401 77395
L105401 76805
L105345 76889
L105289 76946
L105232 76974
" />
<path d="M106245 76777
L105739 77536
" />
<path d="M106751 77395
L106413 77395
" />
<path d="M106582 77395
L106582 76805
L106526 76889
L106470 76946
L106413 76974
" />
</g>
<g style="fill:#000000; fill-opacity:0.0; 
stroke:#000000; stroke-width:39.3701; stroke-opacity:1; 
stroke-linecap:round; stroke-linejoin:round;">
</g>
<g style="fill:#000000; fill-opacity:0.0; 
stroke:#000000; stroke-width:59.0551; stroke-opacity:1; 
stroke-linecap:round; stroke-linejoin:round;">
<path d="M69685 73821
L112205 73821
" />
</g>
<g style="fill:#000000; fill-opacity:0.0; 
stroke:#000000; stroke-width:39.3701; stroke-opacity:1; 
stroke-linecap:round; stroke-linejoin:round;">
</g>
<g style="fill:#000000; fill-opacity:0.0; 
stroke:#000000; stroke-width:157.48; stroke-opacity:1; 
stroke-linecap:round; stroke-linejoin:round;">
<path d="M70360 74099
L70810 74099
" />
<path d="M70486 74886
L70585 74099
" />
<path d="M70974 74886
L71039 74361
" />
<path d="M71072 74099
L71030 74136
L71063 74174
L71105 74136
L71072 74099
L71063 74174
" />
<path d="M71302 74361
L71602 74361
" />
<path d="M71447 74099
L71363 74774
L71391 74849
L71461 74886
L71536 74886
" />
<path d="M71911 74886
L71841 74849
L71813 74774
L71897 74099
" />
<path d="M72516 74849
L72436 74886
L72286 74886
L72216 74849
L72187 74774
L72225 74474
L72272 74399
L72352 74361
L72501 74361
L72572 74399
L72600 74474
L72591 74549
L72206 74624
" />
<path d="M72895 74811
L72928 74849
L72886 74886
L72853 74849
L72895 74811
L72886 74886
" />
<path d="M72947 74399
L72980 74436
L72937 74474
L72905 74436
L72947 74399
L72937 74474
" />
<path d="M73828 74849
L73936 74886
L74123 74886
L74203 74849
L74245 74811
L74292 74736
L74301 74661
L74273 74586
L74240 74549
L74170 74511
L74025 74474
L73954 74436
L73922 74399
L73894 74324
L73903 74249
L73950 74174
L73992 74136
L74072 74099
L74259 74099
L74367 74136
" />
<path d="M74611 74886
L74676 74361
" />
<path d="M74709 74099
L74667 74136
L74700 74174
L74742 74136
L74709 74099
L74700 74174
" />
<path d="M75051 74361
L74986 74886
" />
<path d="M75042 74436
L75084 74399
L75164 74361
L75276 74361
L75346 74399
L75375 74474
L75323 74886
" />
<path d="M76101 74361
L76021 74999
L75974 75074
L75932 75111
L75853 75149
L75740 75149
L75670 75111
" />
<path d="M76040 74849
L75960 74886
L75810 74886
L75740 74849
L75707 74811
L75679 74736
L75707 74511
L75754 74436
L75796 74399
L75876 74361
L76026 74361
L76096 74399
" />
<path d="M76523 74886
L76453 74849
L76424 74774
L76509 74099
" />
<path d="M77127 74849
L77048 74886
L76898 74886
L76828 74849
L76799 74774
L76837 74474
L76884 74399
L76963 74361
L77113 74361
L77184 74399
L77212 74474
L77202 74549
L76818 74624
" />
<path d="M77301 74961
L77901 74961
" />
<path d="M78084 74099
L78534 74099
" />
<path d="M78210 74886
L78309 74099
" />
<path d="M78698 74886
L78763 74361
" />
<path d="M78744 74511
L78791 74436
L78834 74399
L78913 74361
L78988 74361
" />
<path d="M79522 74886
L79574 74474
L79546 74399
L79476 74361
L79326 74361
L79246 74399
" />
<path d="M79527 74849
L79447 74886
L79260 74886
L79190 74849
L79162 74774
L79171 74699
L79218 74624
L79298 74586
L79485 74586
L79565 74549
" />
<path d="M79963 74361
L79897 74886
" />
<path d="M79954 74436
L79996 74399
L80076 74361
L80188 74361
L80258 74399
L80286 74474
L80235 74886
" />
<path d="M80413 74961
L81013 74961
" />
<path d="M81200 74661
L81575 74661
" />
<path d="M81097 74886
L81458 74099
L81622 74886
" />
<path d="M81885 74886
L81950 74361
" />
<path d="M81941 74436
L81983 74399
L82063 74361
L82175 74361
L82246 74399
L82274 74474
L82222 74886
" />
<path d="M82274 74474
L82321 74399
L82400 74361
L82513 74361
L82583 74399
L82611 74474
L82560 74886
" />
<path d="M83000 74361
L82902 75149
" />
<path d="M82995 74399
L83075 74361
L83225 74361
L83295 74399
L83328 74436
L83356 74511
L83328 74736
L83281 74811
L83239 74849
L83160 74886
L83010 74886
L82939 74849
" />
</g>
<g style="fill:#000000; fill-opacity:0.0; 
stroke:#000000; stroke-width:39.3701; stroke-opacity:1; 
stroke-linecap:round; stroke-linejoin:round;">
</g>
<g style="fill:#000000; fill-opacity:0.0; 
stroke:#000000; stroke-width:59.0551; stroke-opacity:1; 
stroke-linecap:round; stroke-linejoin:round;">
<path d="M70446 73070
L70249 73070
" />
<path d="M70249 73380
L70249 72789
L70530 72789
" />
<path d="M70755 73380
L70755 72986
" />
<path d="M70755 72789
L70727 72817
L70755 72845
L70784 72817
L70755 72789
L70755 72845
" />
<path d="M71121 73380
L71065 73352
L71037 73295
L71037 72789
" />
<path d="M71571 73352
L71515 73380
L71402 73380
L71346 73352
L71318 73295
L71318 73070
L71346 73014
L71402 72986
L71515 72986
L71571 73014
L71599 73070
L71599 73127
L71318 73183
" />
<path d="M71852 73323
L71880 73352
L71852 73380
L71824 73352
L71852 73323
L71852 73380
" />
<path d="M71852 73014
L71880 73042
L71852 73070
L71824 73042
L71852 73014
L71852 73070
" />
<path d="M72499 72789
L72696 73380
L72893 72789
" />
<path d="M73090 73380
L73090 72986
" />
<path d="M73090 72789
L73061 72817
L73090 72845
L73118 72817
L73090 72789
L73090 72845
" />
<path d="M73596 73352
L73539 73380
L73427 73380
L73371 73352
L73343 73295
L73343 73070
L73371 73014
L73427 72986
L73539 72986
L73596 73014
L73624 73070
L73624 73127
L73343 73183
" />
<path d="M73877 72986
L73877 73380
" />
<path d="M73877 73042
L73905 73014
L73961 72986
L74046 72986
L74102 73014
L74130 73070
L74130 73380
" />
<path d="M74664 73380
L74664 73070
L74636 73014
L74580 72986
L74467 72986
L74411 73014
" />
<path d="M74664 73352
L74608 73380
L74467 73380
L74411 73352
L74383 73295
L74383 73239
L74411 73183
L74467 73155
L74608 73155
L74664 73127
" />
<path d="M74861 72789
L75199 72789
" />
<path d="M75030 73380
L75030 72789
" />
<path d="M75395 73380
L75395 72986
" />
<path d="M75395 73099
L75424 73042
L75452 73014
L75508 72986
L75564 72986
" />
<path d="M76014 73380
L76014 73070
L75986 73014
L75930 72986
L75817 72986
L75761 73014
" />
<path d="M76014 73352
L75958 73380
L75817 73380
L75761 73352
L75733 73295
L75733 73239
L75761 73183
L75817 73155
L75958 73155
L76014 73127
" />
<path d="M76295 72986
L76295 73380
" />
<path d="M76295 73042
L76323 73014
L76380 72986
L76464 72986
L76520 73014
L76548 73070
L76548 73380
" />
<path d="M76830 73380
L76830 72789
L77055 72789
L77111 72817
L77139 72845
L77167 72902
L77167 72986
L77139 73042
L77111 73070
L77055 73099
L76830 73099
" />
<path d="M77673 73380
L77673 73070
L77645 73014
L77589 72986
L77476 72986
L77420 73014
" />
<path d="M77673 73352
L77617 73380
L77476 73380
L77420 73352
L77392 73295
L77392 73239
L77420 73183
L77476 73155
L77617 73155
L77673 73127
" />
<path d="M77926 73352
L77983 73380
L78095 73380
L78151 73352
L78180 73295
L78180 73267
L78151 73211
L78095 73183
L78011 73183
L77955 73155
L77926 73099
L77926 73070
L77955 73014
L78011 72986
L78095 72986
L78151 73014
" />
<path d="M78348 72986
L78573 72986
" />
<path d="M78433 72789
L78433 73295
L78461 73352
L78517 73380
L78573 73380
" />
<path d="M78770 73380
L78770 72986
" />
<path d="M78770 72789
L78742 72817
L78770 72845
L78798 72817
L78770 72789
L78770 72845
" />
<path d="M79051 72986
L79051 73577
" />
<path d="M79051 73014
L79108 72986
L79220 72986
L79276 73014
L79304 73042
L79332 73099
L79332 73267
L79304 73323
L79276 73352
L79220 73380
L79108 73380
L79051 73352
" />
<path d="M79586 73380
L79586 72986
" />
<path d="M79586 73099
L79614 73042
L79642 73014
L79698 72986
L79754 72986
" />
<path d="M79951 73380
L79951 72986
" />
<path d="M79951 72789
L79923 72817
L79951 72845
L79979 72817
L79951 72789
L79951 72845
" />
<path d="M80232 72986
L80232 73380
" />
<path d="M80232 73042
L80260 73014
L80317 72986
L80401 72986
L80457 73014
L80485 73070
L80485 73380
" />
<path d="M81020 73380
L81020 73070
L80992 73014
L80935 72986
L80823 72986
L80767 73014
" />
<path d="M81020 73352
L80964 73380
L80823 73380
L80767 73352
L80739 73295
L80739 73239
L80767 73183
L80823 73155
L80964 73155
L81020 73127
" />
<path d="M81217 72986
L81442 72986
" />
<path d="M81301 72789
L81301 73295
L81329 73352
L81385 73380
L81442 73380
" />
<path d="M81892 73380
L81892 73070
L81863 73014
L81807 72986
L81695 72986
L81638 73014
" />
<path d="M81892 73352
L81835 73380
L81695 73380
L81638 73352
L81610 73295
L81610 73239
L81638 73183
L81695 73155
L81835 73155
L81892 73127
" />
<path d="M82173 72986
L82173 73492
L82145 73548
L82088 73577
L82060 73577
" />
<path d="M82173 72789
L82145 72817
L82173 72845
L82201 72817
L82173 72789
L82173 72845
" />
<path d="M82426 73352
L82482 73380
L82595 73380
L82651 73352
L82679 73295
L82679 73267
L82651 73211
L82595 73183
L82510 73183
L82454 73155
L82426 73099
L82426 73070
L82454 73014
L82510 72986
L82595 72986
L82651 73014
" />
<path d="M82932 73323
L82960 73352
L82932 73380
L82904 73352
L82932 73323
L82932 73380
" />
<path d="M83213 73380
L83213 72789
" />
<path d="M83269 73155
L83438 73380
" />
<path d="M83438 72986
L83213 73211
" />
<path d="M83691 73380
L83691 72986
" />
<path d="M83691 72789
L83663 72817
L83691 72845
L83719 72817
L83691 72789
L83691 72845
" />
<path d="M84226 73352
L84169 73380
L84057 73380
L84001 73352
L83973 73323
L83944 73267
L83944 73099
L83973 73042
L84001 73014
L84057 72986
L84169 72986
L84226 73014
" />
<path d="M84732 73380
L84732 73070
L84704 73014
L84647 72986
L84535 72986
L84479 73014
" />
<path d="M84732 73352
L84676 73380
L84535 73380
L84479 73352
L84451 73295
L84451 73239
L84479 73183
L84535 73155
L84676 73155
L84732 73127
" />
<path d="M85266 73380
L85266 72789
" />
<path d="M85266 73352
L85210 73380
L85097 73380
L85041 73352
L85013 73323
L84985 73267
L84985 73099
L85013 73042
L85041 73014
L85097 72986
L85210 72986
L85266 73014
" />
<path d="M85407 73436
L85857 73436
" />
<path d="M85997 72986
L85997 73577
" />
<path d="M85997 73014
L86054 72986
L86166 72986
L86222 73014
L86250 73042
L86278 73099
L86278 73267
L86250 73323
L86222 73352
L86166 73380
L86054 73380
L85997 73352
" />
<path d="M86785 73352
L86728 73380
L86616 73380
L86560 73352
L86532 73323
L86503 73267
L86503 73099
L86532 73042
L86560 73014
L86616 72986
L86728 72986
L86785 73014
" />
<path d="M87038 73380
L87038 72789
" />
<path d="M87038 73014
L87094 72986
L87206 72986
L87263 73014
L87291 73042
L87319 73099
L87319 73267
L87291 73323
L87263 73352
L87206 73380
L87094 73380
L87038 73352
" />
</g>
<g style="fill:#000000; fill-opacity:0.0; 
stroke:#000000; stroke-width:39.3701; stroke-opacity:1; 
stroke-linecap:round; stroke-linejoin:round;">
</g>
<g style="fill:#000000; fill-opacity:0.0; 
stroke:#000000; stroke-width:59.0551; stroke-opacity:1; 
stroke-linecap:round; stroke-linejoin:round;">
<path d="M69685 71459
L112205 71459
" />
</g>
<g style="fill:#000000; fill-opacity:0.0; 
stroke:#000000; stroke-width:39.3701; stroke-opacity:1; 
stroke-linecap:round; stroke-linejoin:round;">
</g>
<g style="fill:#000000; fill-opacity:0.0; 
stroke:#000000; stroke-width:59.0551; stroke-opacity:1; 
stroke-linecap:round; stroke-linejoin:round;">
<path d="M70221 72289
L70305 72317
L70446 72317
L70502 72289
L70530 72260
L70559 72204
L70559 72148
L70530 72092
L70502 72064
L70446 72036
L70334 72007
L70277 71979
L70249 71951
L70221 71895
L70221 71839
L70249 71782
L70277 71754
L70334 71726
L70474 71726
L70559 71754
" />
<path d="M70812 72317
L70812 71726
" />
<path d="M71065 72317
L71065 72007
L71037 71951
L70980 71923
L70896 71923
L70840 71951
L70812 71979
" />
<path d="M71571 72289
L71515 72317
L71402 72317
L71346 72289
L71318 72232
L71318 72007
L71346 71951
L71402 71923
L71515 71923
L71571 71951
L71599 72007
L71599 72064
L71318 72120
" />
<path d="M72077 72289
L72021 72317
L71908 72317
L71852 72289
L71824 72232
L71824 72007
L71852 71951
L71908 71923
L72021 71923
L72077 71951
L72105 72007
L72105 72064
L71824 72120
" />
<path d="M72274 71923
L72499 71923
" />
<path d="M72358 71726
L72358 72232
L72386 72289
L72443 72317
L72499 72317
" />
<path d="M72696 72260
L72724 72289
L72696 72317
L72668 72289
L72696 72260
L72696 72317
" />
<path d="M72696 71951
L72724 71979
L72696 72007
L72668 71979
L72696 71951
L72696 72007
" />
</g>
<g style="fill:#000000; fill-opacity:0.0; 
stroke:#000000; stroke-width:39.3701; stroke-opacity:1; 
stroke-linecap:round; stroke-linejoin:round;">
</g>
<g style="fill:#000000; fill-opacity:0.0; 
stroke:#000000; stroke-width:118.11; stroke-opacity:1; 
stroke-linecap:round; stroke-linejoin:round;">
<path d="M70212 70545
L70409 71136
L70606 70545
" />
<path d="M71028 71108
L70971 71136
L70859 71136
L70803 71108
L70775 71051
L70775 70826
L70803 70770
L70859 70742
L70971 70742
L71028 70770
L71056 70826
L71056 70883
L70775 70939
" />
<path d="M71281 70967
L71562 70967
" />
<path d="M71224 71136
L71421 70545
L71618 71136
" />
</g>
<g style="fill:#000000; fill-opacity:0.0; 
stroke:#000000; stroke-width:39.3701; stroke-opacity:1; 
stroke-linecap:round; stroke-linejoin:round;">
</g>
<g style="fill:#000000; fill-opacity:0.0; 
stroke:#000000; stroke-width:59.0551; stroke-opacity:1; 
stroke-linecap:round; stroke-linejoin:round;">
<path d="M77559 75396
L77559 76577
" />
</g>
<g style="fill:#000000; fill-opacity:0.0; 
stroke:#000000; stroke-width:39.3701; stroke-opacity:1; 
stroke-linecap:round; stroke-linejoin:round;">
</g>
<g style="fill:#000000; fill-opacity:0.0; 
stroke:#000000; stroke-width:59.0551; stroke-opacity:1; 
stroke-linecap:round; stroke-linejoin:round;">
<path d="M102756 75396
L102756 77955
" />
</g>
<g style="fill:#008484; fill-opacity:0.0; 
stroke:#008484; stroke-width:59.0551; stroke-opacity:1; 
stroke-linecap:round; stroke-linejoin:round;">
</g>
<g style="fill:#008484; fill-opacity:0.0; 
stroke:#008484; stroke-width:47.2441; stroke-opacity:1; 
stroke-linecap:round; stroke-linejoin:round;">
<path d="M36978 18055
L36663 18055
" />
<path d="M36820 17897
L36820 18212
" />
<path d="M36119 21240
L35699 21240
" />
<path d="M36211 21224
L35607 21224
" />
<path d="M36282 21209
L35536 21209
" />
<path d="M36341 21193
L35477 21193
" />
<path d="M36393 21177
L35425 21177
" />
<path d="M36439 21161
L35379 21161
" />
<path d="M36481 21146
L35337 21146
" />
<path d="M36520 21130
L35298 21130
" />
<path d="M36557 21114
L35261 21114
" />
<path d="M36590 21098
L35227 21098
" />
<path d="M36623 21083
L35195 21083
" />
<path d="M36653 21067
L35165 21067
" />
<path d="M36682 21051
L35136 21051
" />
<path d="M36710 21035
L35108 21035
" />
<path d="M36737 21020
L35081 21020
" />
<path d="M36762 21004
L35056 21004
" />
<path d="M36786 20988
L35032 20988
" />
<path d="M36809 20972
L35009 20972
" />
<path d="M36832 20957
L34986 20957
" />
<path d="M36854 20941
L34964 20941
" />
<path d="M36875 20925
L34943 20925
" />
<path d="M36895 20909
L34923 20909
" />
<path d="M36915 20894
L34903 20894
" />
<path d="M36934 20878
L34884 20878
" />
<path d="M36953 20862
L34865 20862
" />
<path d="M36971 20846
L34847 20846
" />
<path d="M36988 20831
L34830 20831
" />
<path d="M37005 20815
L34813 20815
" />
<path d="M37022 20799
L34796 20799
" />
<path d="M37038 20783
L34780 20783
" />
<path d="M37053 20768
L34764 20768
" />
<path d="M37068 20752
L34750 20752
" />
<path d="M37083 20736
L34735 20736
" />
<path d="M35500 20720
L34720 20720
" />
<path d="M37098 20720
L36318 20720
" />
<path d="M35500 20705
L34706 20705
" />
<path d="M37112 20705
L36318 20705
" />
<path d="M35500 20689
L34692 20689
" />
<path d="M37125 20689
L36318 20689
" />
<path d="M35500 20673
L34679 20673
" />
<path d="M37139 20673
L36318 20673
" />
<path d="M35500 20657
L34666 20657
" />
<path d="M37151 20657
L36318 20657
" />
<path d="M35500 20642
L34653 20642
" />
<path d="M37164 20642
L36318 20642
" />
<path d="M35500 20626
L34641 20626
" />
<path d="M37177 20626
L36318 20626
" />
<path d="M35500 20610
L34629 20610
" />
<path d="M37188 20610
L36318 20610
" />
<path d="M35500 20594
L34618 20594
" />
<path d="M37200 20594
L36318 20594
" />
<path d="M35500 20579
L34606 20579
" />
<path d="M37212 20579
L36318 20579
" />
<path d="M35500 20563
L34595 20563
" />
<path d="M37223 20563
L36318 20563
" />
<path d="M35500 20547
L34584 20547
" />
<path d="M37234 20547
L36318 20547
" />
<path d="M35500 20531
L34574 20531
" />
<path d="M37244 20531
L36318 20531
" />
<path d="M35500 20516
L34563 20516
" />
<path d="M37255 20516
L36318 20516
" />
<path d="M35500 20500
L34553 20500
" />
<path d="M37265 20500
L36318 20500
" />
<path d="M35500 20484
L34543 20484
" />
<path d="M37275 20484
L36318 20484
" />
<path d="M35500 20468
L34534 20468
" />
<path d="M37284 20468
L36318 20468
" />
<path d="M35500 20453
L34524 20453
" />
<path d="M37294 20453
L36318 20453
" />
<path d="M35500 20437
L34515 20437
" />
<path d="M37303 20437
L36318 20437
" />
<path d="M35500 20421
L34507 20421
" />
<path d="M37311 20421
L36318 20421
" />
<path d="M35500 20405
L34498 20405
" />
<path d="M37320 20405
L36318 20405
" />
<path d="M35500 20390
L34489 20390
" />
<path d="M37329 20390
L36318 20390
" />
<path d="M35500 20374
L34481 20374
" />
<path d="M37337 20374
L36318 20374
" />
<path d="M35500 20358
L34473 20358
" />
<path d="M37345 20358
L36318 20358
" />
<path d="M35500 20342
L34466 20342
" />
<path d="M37352 20342
L36318 20342
" />
<path d="M35500 20327
L34458 20327
" />
<path d="M37360 20327
L36318 20327
" />
<path d="M35500 20311
L34451 20311
" />
<path d="M37367 20311
L36318 20311
" />
<path d="M35500 20295
L34444 20295
" />
<path d="M37374 20295
L36318 20295
" />
<path d="M35500 20279
L34437 20279
" />
<path d="M37381 20279
L36318 20279
" />
<path d="M35500 20264
L34430 20264
" />
<path d="M37388 20264
L36318 20264
" />
<path d="M35500 20248
L34423 20248
" />
<path d="M37395 20248
L36318 20248
" />
<path d="M35500 20232
L34417 20232
" />
<path d="M37401 20232
L36318 20232
" />
<path d="M35500 20216
L34411 20216
" />
<path d="M37407 20216
L36318 20216
" />
<path d="M35500 20201
L34405 20201
" />
<path d="M37413 20201
L36318 20201
" />
<path d="M35500 20185
L34399 20185
" />
<path d="M37419 20185
L36318 20185
" />
<path d="M35500 20169
L34393 20169
" />
<path d="M37425 20169
L36318 20169
" />
<path d="M35500 20153
L34388 20153
" />
<path d="M37430 20153
L36318 20153
" />
<path d="M35500 20138
L34383 20138
" />
<path d="M37435 20138
L36318 20138
" />
<path d="M35500 20122
L34378 20122
" />
<path d="M37440 20122
L36318 20122
" />
<path d="M35500 20106
L34373 20106
" />
<path d="M37445 20106
L36318 20106
" />
<path d="M35500 20090
L34368 20090
" />
<path d="M37450 20090
L36318 20090
" />
<path d="M35500 20075
L34364 20075
" />
<path d="M37454 20075
L36318 20075
" />
<path d="M35500 20059
L34359 20059
" />
<path d="M37459 20059
L36318 20059
" />
<path d="M35500 20043
L34355 20043
" />
<path d="M37463 20043
L36318 20043
" />
<path d="M35500 20027
L34351 20027
" />
<path d="M37467 20027
L36318 20027
" />
<path d="M35500 20012
L34347 20012
" />
<path d="M37471 20012
L36318 20012
" />
<path d="M35500 19996
L34344 19996
" />
<path d="M37474 19996
L36318 19996
" />
<path d="M35500 19980
L34340 19980
" />
<path d="M37478 19980
L36318 19980
" />
<path d="M35500 19964
L34337 19964
" />
<path d="M37481 19964
L36318 19964
" />
<path d="M35500 19949
L34333 19949
" />
<path d="M37485 19949
L36318 19949
" />
<path d="M35500 19933
L34330 19933
" />
<path d="M37488 19933
L36318 19933
" />
<path d="M35500 19917
L34327 19917
" />
<path d="M37490 19917
L36318 19917
" />
<path d="M37493 19901
L34325 19901
" />
<path d="M37496 19885
L34322 19885
" />
<path d="M37498 19870
L34320 19870
" />
<path d="M37500 19854
L34318 19854
" />
<path d="M37503 19838
L34315 19838
" />
<path d="M37504 19822
L34314 19822
" />
<path d="M37506 19807
L34312 19807
" />
<path d="M37508 19791
L34310 19791
" />
<path d="M37509 19775
L34309 19775
" />
<path d="M37511 19759
L34307 19759
" />
<path d="M37512 19744
L34306 19744
" />
<path d="M37513 19728
L34305 19728
" />
<path d="M37514 19712
L34304 19712
" />
<path d="M37514 19696
L34304 19696
" />
<path d="M37515 19681
L34303 19681
" />
<path d="M37515 19665
L34303 19665
" />
<path d="M37515 19649
L34303 19649
" />
<path d="M37515 19633
L34303 19633
" />
<circle cx="35909.4" cy="19633.9" r="1622.05" /> 
<circle cx="39291.3" cy="19629.9" r="1622.05" /> 
<path d="M37685 19629
L40897 19629
" />
<path d="M37685 19614
L40897 19614
" />
<path d="M37685 19598
L40897 19598
" />
<path d="M37685 19582
L40897 19582
" />
<path d="M37686 19566
L40896 19566
" />
<path d="M37686 19551
L40896 19551
" />
<path d="M37687 19535
L40895 19535
" />
<path d="M37688 19519
L40894 19519
" />
<path d="M37689 19503
L40892 19503
" />
<path d="M37690 19488
L40891 19488
" />
<path d="M37692 19472
L40890 19472
" />
<path d="M37694 19456
L40888 19456
" />
<path d="M37696 19440
L40886 19440
" />
<path d="M37697 19425
L40885 19425
" />
<path d="M37700 19409
L40882 19409
" />
<path d="M37701 19393
L40880 19393
" />
<path d="M37704 19377
L40877 19377
" />
<path d="M37707 19362
L40875 19362
" />
<path d="M37709 19346
L38881 19346
" />
<path d="M39700 19346
L40872 19346
" />
<path d="M37712 19330
L38881 19330
" />
<path d="M39700 19330
L40870 19330
" />
<path d="M37715 19314
L38881 19314
" />
<path d="M39700 19314
L40866 19314
" />
<path d="M37718 19298
L38881 19298
" />
<path d="M39700 19298
L40863 19298
" />
<path d="M37722 19283
L38881 19283
" />
<path d="M39700 19283
L40860 19283
" />
<path d="M37725 19267
L38881 19267
" />
<path d="M39700 19267
L40856 19267
" />
<path d="M37729 19251
L38881 19251
" />
<path d="M39700 19251
L40853 19251
" />
<path d="M37733 19235
L38881 19235
" />
<path d="M39700 19235
L40849 19235
" />
<path d="M37737 19220
L38881 19220
" />
<path d="M39700 19220
L40845 19220
" />
<path d="M37741 19204
L38881 19204
" />
<path d="M39700 19204
L40840 19204
" />
<path d="M37746 19188
L38881 19188
" />
<path d="M39700 19188
L40836 19188
" />
<path d="M37750 19172
L38881 19172
" />
<path d="M39700 19172
L40832 19172
" />
<path d="M37755 19157
L38881 19157
" />
<path d="M39700 19157
L40827 19157
" />
<path d="M37760 19141
L38881 19141
" />
<path d="M39700 19141
L40822 19141
" />
<path d="M37764 19125
L38881 19125
" />
<path d="M39700 19125
L40817 19125
" />
<path d="M37770 19109
L38881 19109
" />
<path d="M39700 19109
L40812 19109
" />
<path d="M37775 19094
L38881 19094
" />
<path d="M39700 19094
L40807 19094
" />
<path d="M37781 19078
L38881 19078
" />
<path d="M39700 19078
L40801 19078
" />
<path d="M37787 19062
L38881 19062
" />
<path d="M39700 19062
L40795 19062
" />
<path d="M37793 19046
L38881 19046
" />
<path d="M39700 19046
L40789 19046
" />
<path d="M37799 19031
L38881 19031
" />
<path d="M39700 19031
L40783 19031
" />
<path d="M37805 19015
L38881 19015
" />
<path d="M39700 19015
L40777 19015
" />
<path d="M37812 18999
L38881 18999
" />
<path d="M39700 18999
L40770 18999
" />
<path d="M37818 18983
L38881 18983
" />
<path d="M39700 18983
L40763 18983
" />
<path d="M37825 18968
L38881 18968
" />
<path d="M39700 18968
L40756 18968
" />
<path d="M37833 18952
L38881 18952
" />
<path d="M39700 18952
L40749 18952
" />
<path d="M37840 18936
L38881 18936
" />
<path d="M39700 18936
L40742 18936
" />
<path d="M37848 18920
L38881 18920
" />
<path d="M39700 18920
L40734 18920
" />
<path d="M37855 18905
L38881 18905
" />
<path d="M39700 18905
L40727 18905
" />
<path d="M37863 18889
L38881 18889
" />
<path d="M39700 18889
L40719 18889
" />
<path d="M37871 18873
L38881 18873
" />
<path d="M39700 18873
L40711 18873
" />
<path d="M37880 18857
L38881 18857
" />
<path d="M39700 18857
L40702 18857
" />
<path d="M37888 18842
L38881 18842
" />
<path d="M39700 18842
L40693 18842
" />
<path d="M37897 18826
L38881 18826
" />
<path d="M39700 18826
L40685 18826
" />
<path d="M37906 18810
L38881 18810
" />
<path d="M39700 18810
L40675 18810
" />
<path d="M37916 18794
L38881 18794
" />
<path d="M39700 18794
L40666 18794
" />
<path d="M37925 18779
L38881 18779
" />
<path d="M39700 18779
L40657 18779
" />
<path d="M37935 18763
L38881 18763
" />
<path d="M39700 18763
L40647 18763
" />
<path d="M37945 18747
L38881 18747
" />
<path d="M39700 18747
L40637 18747
" />
<path d="M37955 18731
L38881 18731
" />
<path d="M39700 18731
L40626 18731
" />
<path d="M37966 18716
L38881 18716
" />
<path d="M39700 18716
L40616 18716
" />
<path d="M37977 18700
L38881 18700
" />
<path d="M39700 18700
L40605 18700
" />
<path d="M37988 18684
L38881 18684
" />
<path d="M39700 18684
L40594 18684
" />
<path d="M38000 18668
L38881 18668
" />
<path d="M39700 18668
L40582 18668
" />
<path d="M38011 18653
L38881 18653
" />
<path d="M39700 18653
L40570 18653
" />
<path d="M38023 18637
L38881 18637
" />
<path d="M39700 18637
L40559 18637
" />
<path d="M38035 18621
L38881 18621
" />
<path d="M39700 18621
L40546 18621
" />
<path d="M38048 18605
L38881 18605
" />
<path d="M39700 18605
L40533 18605
" />
<path d="M38061 18590
L38881 18590
" />
<path d="M39700 18590
L40521 18590
" />
<path d="M38074 18574
L38881 18574
" />
<path d="M39700 18574
L40507 18574
" />
<path d="M38088 18558
L38881 18558
" />
<path d="M39700 18558
L40494 18558
" />
<path d="M38102 18542
L38881 18542
" />
<path d="M39700 18542
L40479 18542
" />
<path d="M38116 18527
L40465 18527
" />
<path d="M38131 18511
L40450 18511
" />
<path d="M38146 18495
L40435 18495
" />
<path d="M38162 18479
L40420 18479
" />
<path d="M38178 18464
L40403 18464
" />
<path d="M38195 18448
L40387 18448
" />
<path d="M38212 18432
L40370 18432
" />
<path d="M38229 18416
L40353 18416
" />
<path d="M38247 18401
L40335 18401
" />
<path d="M38266 18385
L40316 18385
" />
<path d="M38285 18369
L40297 18369
" />
<path d="M38305 18353
L40277 18353
" />
<path d="M38325 18338
L40257 18338
" />
<path d="M38346 18322
L40236 18322
" />
<path d="M38368 18306
L40214 18306
" />
<path d="M38390 18290
L40191 18290
" />
<path d="M38414 18275
L40168 18275
" />
<path d="M38438 18259
L40144 18259
" />
<path d="M38463 18243
L40118 18243
" />
<path d="M38490 18227
L40092 18227
" />
<path d="M38518 18212
L40064 18212
" />
<path d="M38547 18196
L40035 18196
" />
<path d="M38577 18180
L40005 18180
" />
<path d="M38609 18164
L39972 18164
" />
<path d="M38643 18149
L39938 18149
" />
<path d="M38680 18133
L39902 18133
" />
<path d="M38719 18117
L39863 18117
" />
<path d="M38761 18101
L39821 18101
" />
<path d="M38807 18086
L39775 18086
" />
<path d="M38859 18070
L39723 18070
" />
<path d="M38918 18054
L39664 18054
" />
<path d="M38988 18038
L39593 18038
" />
<path d="M39081 18023
L39501 18023
" />
<path d="M38379 21366
L38379 21051
" />
<path d="M38222 21208
L38537 21208
" />
<circle cx="34598.4" cy="17740.2" r="492.52" /> 
<circle cx="34598.4" cy="21535.4" r="492.52" /> 
</g>
<g style="fill:#008484; fill-opacity:0.0; 
stroke:#008484; stroke-width:59.0551; stroke-opacity:1; 
stroke-linecap:round; stroke-linejoin:round;">
<path d="M41271 19717
L41234 19698
L41215 19679
L41196 19642
L41196 19529
L41215 19492
L41234 19473
L41271 19455
L41328 19455
L41365 19473
L41384 19492
L41403 19529
L41403 19642
L41384 19679
L41365 19698
L41328 19717
L41271 19717
" />
<path d="M41740 19455
L41740 19717
" />
<path d="M41571 19455
L41571 19661
L41590 19698
L41628 19717
L41684 19717
L41721 19698
L41740 19679
" />
<path d="M41871 19455
L42021 19455
" />
<path d="M41928 19323
L41928 19661
L41946 19698
L41984 19717
L42021 19717
" />
<path d="M35871 17660
L35852 17679
L35796 17697
L35758 17697
L35702 17679
L35665 17641
L35646 17604
L35627 17529
L35627 17472
L35646 17397
L35665 17360
L35702 17322
L35758 17304
L35796 17304
L35852 17322
L35871 17341
" />
<path d="M36246 17697
L36021 17697
" />
<path d="M36133 17697
L36133 17304
L36096 17360
L36058 17397
L36021 17416
" />
<path d="M39229 17652
L39210 17671
L39154 17689
L39117 17689
L39060 17671
L39023 17633
L39004 17596
L38985 17521
L38985 17464
L39004 17389
L39023 17352
L39060 17314
L39117 17296
L39154 17296
L39210 17314
L39229 17333
" />
<path d="M39379 17333
L39398 17314
L39435 17296
L39529 17296
L39567 17314
L39585 17333
L39604 17371
L39604 17408
L39585 17464
L39360 17689
L39604 17689
" />
<path d="M33440 19733
L33440 19470
" />
<path d="M33440 19339
L33421 19358
L33440 19377
L33458 19358
L33440 19339
L33440 19377
" />
<path d="M33627 19470
L33627 19733
" />
<path d="M33627 19508
L33646 19489
L33683 19470
L33739 19470
L33777 19489
L33796 19526
L33796 19733
" />
<path d="M32919 17760
L33218 17760
" />
<path d="M33068 17910
L33068 17610
" />
<path d="M33593 17516
L33406 17516
L33387 17704
L33406 17685
L33443 17666
L33537 17666
L33575 17685
L33593 17704
L33612 17741
L33612 17835
L33593 17872
L33575 17891
L33537 17910
L33443 17910
L33406 17891
L33387 17872
" />
<path d="M33725 17516
L33856 17910
L33987 17516
" />
<path d="M33152 21334
L33115 21315
L33059 21315
L33002 21334
L32965 21372
L32946 21409
L32927 21484
L32927 21540
L32946 21615
L32965 21653
L33002 21690
L33059 21709
L33096 21709
L33152 21690
L33171 21672
L33171 21540
L33096 21540
" />
<path d="M33340 21709
L33340 21315
L33565 21709
L33565 21315
" />
<path d="M33752 21709
L33752 21315
L33846 21315
L33902 21334
L33940 21372
L33958 21409
L33977 21484
L33977 21540
L33958 21615
L33940 21653
L33902 21690
L33846 21709
L33752 21709
" />
</g>
<g style="fill:#000000; fill-opacity:0.0; 
stroke:#000000; stroke-width:59.0551; stroke-opacity:1; 
stroke-linecap:round; stroke-linejoin:round;">
</g>
<g style="fill:#C2C200; fill-opacity:0.0; 
stroke:#C2C200; stroke-width:59.0551; stroke-opacity:1; 
stroke-linecap:round; stroke-linejoin:round;">
</g>
<g style="fill:#C2C200; fill-opacity:0.0; 
stroke:#C2C200; stroke-width:78.7402; stroke-opacity:1; 
stroke-linecap:round; stroke-linejoin:round;">
<path d="M42283 17007
L42283 22244
" />
<path d="M32834 17007
L42283 17007
" />
<path d="M32834 22244
L42283 22244
" />
<path d="M32834 17007
L32834 22244
" />
</g> 
</svg>
