G04 #@! TF.GenerationSoftware,KiCad,Pcbnew,(5.0.1)-3*
G04 #@! TF.CreationDate,2020-05-06T09:10:13+03:00*
G04 #@! TF.ProjectId,VienaTranPastiprinatajs,5669656E615472616E50617374697072,rev?*
G04 #@! TF.SameCoordinates,Original*
G04 #@! TF.FileFunction,Paste,Bot*
G04 #@! TF.FilePolarity,Positive*
%FSLAX46Y46*%
G04 Gerber Fmt 4.6, Leading zero omitted, Abs format (unit mm)*
G04 Created by KiCad (PCBNEW (5.0.1)-3) date 06-May-20 9:10:13 AM*
%MOMM*%
%LPD*%
G01*
G04 APERTURE LIST*
%ADD10R,0.900000X0.800000*%
%ADD11C,0.100000*%
%ADD12C,1.425000*%
G04 APERTURE END LIST*
D10*
G04 #@! TO.C,Q1*
X101220000Y-49500000D03*
X103220000Y-50450000D03*
X103220000Y-48550000D03*
G04 #@! TD*
D11*
G04 #@! TO.C,R1*
G36*
X95449504Y-50596204D02*
X95473773Y-50599804D01*
X95497571Y-50605765D01*
X95520671Y-50614030D01*
X95542849Y-50624520D01*
X95563893Y-50637133D01*
X95583598Y-50651747D01*
X95601777Y-50668223D01*
X95618253Y-50686402D01*
X95632867Y-50706107D01*
X95645480Y-50727151D01*
X95655970Y-50749329D01*
X95664235Y-50772429D01*
X95670196Y-50796227D01*
X95673796Y-50820496D01*
X95675000Y-50845000D01*
X95675000Y-51770000D01*
X95673796Y-51794504D01*
X95670196Y-51818773D01*
X95664235Y-51842571D01*
X95655970Y-51865671D01*
X95645480Y-51887849D01*
X95632867Y-51908893D01*
X95618253Y-51928598D01*
X95601777Y-51946777D01*
X95583598Y-51963253D01*
X95563893Y-51977867D01*
X95542849Y-51990480D01*
X95520671Y-52000970D01*
X95497571Y-52009235D01*
X95473773Y-52015196D01*
X95449504Y-52018796D01*
X95425000Y-52020000D01*
X94175000Y-52020000D01*
X94150496Y-52018796D01*
X94126227Y-52015196D01*
X94102429Y-52009235D01*
X94079329Y-52000970D01*
X94057151Y-51990480D01*
X94036107Y-51977867D01*
X94016402Y-51963253D01*
X93998223Y-51946777D01*
X93981747Y-51928598D01*
X93967133Y-51908893D01*
X93954520Y-51887849D01*
X93944030Y-51865671D01*
X93935765Y-51842571D01*
X93929804Y-51818773D01*
X93926204Y-51794504D01*
X93925000Y-51770000D01*
X93925000Y-50845000D01*
X93926204Y-50820496D01*
X93929804Y-50796227D01*
X93935765Y-50772429D01*
X93944030Y-50749329D01*
X93954520Y-50727151D01*
X93967133Y-50706107D01*
X93981747Y-50686402D01*
X93998223Y-50668223D01*
X94016402Y-50651747D01*
X94036107Y-50637133D01*
X94057151Y-50624520D01*
X94079329Y-50614030D01*
X94102429Y-50605765D01*
X94126227Y-50599804D01*
X94150496Y-50596204D01*
X94175000Y-50595000D01*
X95425000Y-50595000D01*
X95449504Y-50596204D01*
X95449504Y-50596204D01*
G37*
D12*
X94800000Y-51307500D03*
D11*
G36*
X95449504Y-47621204D02*
X95473773Y-47624804D01*
X95497571Y-47630765D01*
X95520671Y-47639030D01*
X95542849Y-47649520D01*
X95563893Y-47662133D01*
X95583598Y-47676747D01*
X95601777Y-47693223D01*
X95618253Y-47711402D01*
X95632867Y-47731107D01*
X95645480Y-47752151D01*
X95655970Y-47774329D01*
X95664235Y-47797429D01*
X95670196Y-47821227D01*
X95673796Y-47845496D01*
X95675000Y-47870000D01*
X95675000Y-48795000D01*
X95673796Y-48819504D01*
X95670196Y-48843773D01*
X95664235Y-48867571D01*
X95655970Y-48890671D01*
X95645480Y-48912849D01*
X95632867Y-48933893D01*
X95618253Y-48953598D01*
X95601777Y-48971777D01*
X95583598Y-48988253D01*
X95563893Y-49002867D01*
X95542849Y-49015480D01*
X95520671Y-49025970D01*
X95497571Y-49034235D01*
X95473773Y-49040196D01*
X95449504Y-49043796D01*
X95425000Y-49045000D01*
X94175000Y-49045000D01*
X94150496Y-49043796D01*
X94126227Y-49040196D01*
X94102429Y-49034235D01*
X94079329Y-49025970D01*
X94057151Y-49015480D01*
X94036107Y-49002867D01*
X94016402Y-48988253D01*
X93998223Y-48971777D01*
X93981747Y-48953598D01*
X93967133Y-48933893D01*
X93954520Y-48912849D01*
X93944030Y-48890671D01*
X93935765Y-48867571D01*
X93929804Y-48843773D01*
X93926204Y-48819504D01*
X93925000Y-48795000D01*
X93925000Y-47870000D01*
X93926204Y-47845496D01*
X93929804Y-47821227D01*
X93935765Y-47797429D01*
X93944030Y-47774329D01*
X93954520Y-47752151D01*
X93967133Y-47731107D01*
X93981747Y-47711402D01*
X93998223Y-47693223D01*
X94016402Y-47676747D01*
X94036107Y-47662133D01*
X94057151Y-47649520D01*
X94079329Y-47639030D01*
X94102429Y-47630765D01*
X94126227Y-47624804D01*
X94150496Y-47621204D01*
X94175000Y-47620000D01*
X95425000Y-47620000D01*
X95449504Y-47621204D01*
X95449504Y-47621204D01*
G37*
D12*
X94800000Y-48332500D03*
G04 #@! TD*
D11*
G04 #@! TO.C,R2*
G36*
X98174504Y-43776204D02*
X98198773Y-43779804D01*
X98222571Y-43785765D01*
X98245671Y-43794030D01*
X98267849Y-43804520D01*
X98288893Y-43817133D01*
X98308598Y-43831747D01*
X98326777Y-43848223D01*
X98343253Y-43866402D01*
X98357867Y-43886107D01*
X98370480Y-43907151D01*
X98380970Y-43929329D01*
X98389235Y-43952429D01*
X98395196Y-43976227D01*
X98398796Y-44000496D01*
X98400000Y-44025000D01*
X98400000Y-45275000D01*
X98398796Y-45299504D01*
X98395196Y-45323773D01*
X98389235Y-45347571D01*
X98380970Y-45370671D01*
X98370480Y-45392849D01*
X98357867Y-45413893D01*
X98343253Y-45433598D01*
X98326777Y-45451777D01*
X98308598Y-45468253D01*
X98288893Y-45482867D01*
X98267849Y-45495480D01*
X98245671Y-45505970D01*
X98222571Y-45514235D01*
X98198773Y-45520196D01*
X98174504Y-45523796D01*
X98150000Y-45525000D01*
X97225000Y-45525000D01*
X97200496Y-45523796D01*
X97176227Y-45520196D01*
X97152429Y-45514235D01*
X97129329Y-45505970D01*
X97107151Y-45495480D01*
X97086107Y-45482867D01*
X97066402Y-45468253D01*
X97048223Y-45451777D01*
X97031747Y-45433598D01*
X97017133Y-45413893D01*
X97004520Y-45392849D01*
X96994030Y-45370671D01*
X96985765Y-45347571D01*
X96979804Y-45323773D01*
X96976204Y-45299504D01*
X96975000Y-45275000D01*
X96975000Y-44025000D01*
X96976204Y-44000496D01*
X96979804Y-43976227D01*
X96985765Y-43952429D01*
X96994030Y-43929329D01*
X97004520Y-43907151D01*
X97017133Y-43886107D01*
X97031747Y-43866402D01*
X97048223Y-43848223D01*
X97066402Y-43831747D01*
X97086107Y-43817133D01*
X97107151Y-43804520D01*
X97129329Y-43794030D01*
X97152429Y-43785765D01*
X97176227Y-43779804D01*
X97200496Y-43776204D01*
X97225000Y-43775000D01*
X98150000Y-43775000D01*
X98174504Y-43776204D01*
X98174504Y-43776204D01*
G37*
D12*
X97687500Y-44650000D03*
D11*
G36*
X95199504Y-43776204D02*
X95223773Y-43779804D01*
X95247571Y-43785765D01*
X95270671Y-43794030D01*
X95292849Y-43804520D01*
X95313893Y-43817133D01*
X95333598Y-43831747D01*
X95351777Y-43848223D01*
X95368253Y-43866402D01*
X95382867Y-43886107D01*
X95395480Y-43907151D01*
X95405970Y-43929329D01*
X95414235Y-43952429D01*
X95420196Y-43976227D01*
X95423796Y-44000496D01*
X95425000Y-44025000D01*
X95425000Y-45275000D01*
X95423796Y-45299504D01*
X95420196Y-45323773D01*
X95414235Y-45347571D01*
X95405970Y-45370671D01*
X95395480Y-45392849D01*
X95382867Y-45413893D01*
X95368253Y-45433598D01*
X95351777Y-45451777D01*
X95333598Y-45468253D01*
X95313893Y-45482867D01*
X95292849Y-45495480D01*
X95270671Y-45505970D01*
X95247571Y-45514235D01*
X95223773Y-45520196D01*
X95199504Y-45523796D01*
X95175000Y-45525000D01*
X94250000Y-45525000D01*
X94225496Y-45523796D01*
X94201227Y-45520196D01*
X94177429Y-45514235D01*
X94154329Y-45505970D01*
X94132151Y-45495480D01*
X94111107Y-45482867D01*
X94091402Y-45468253D01*
X94073223Y-45451777D01*
X94056747Y-45433598D01*
X94042133Y-45413893D01*
X94029520Y-45392849D01*
X94019030Y-45370671D01*
X94010765Y-45347571D01*
X94004804Y-45323773D01*
X94001204Y-45299504D01*
X94000000Y-45275000D01*
X94000000Y-44025000D01*
X94001204Y-44000496D01*
X94004804Y-43976227D01*
X94010765Y-43952429D01*
X94019030Y-43929329D01*
X94029520Y-43907151D01*
X94042133Y-43886107D01*
X94056747Y-43866402D01*
X94073223Y-43848223D01*
X94091402Y-43831747D01*
X94111107Y-43817133D01*
X94132151Y-43804520D01*
X94154329Y-43794030D01*
X94177429Y-43785765D01*
X94201227Y-43779804D01*
X94225496Y-43776204D01*
X94250000Y-43775000D01*
X95175000Y-43775000D01*
X95199504Y-43776204D01*
X95199504Y-43776204D01*
G37*
D12*
X94712500Y-44650000D03*
G04 #@! TD*
D11*
G04 #@! TO.C,R3*
G36*
X98079504Y-50596204D02*
X98103773Y-50599804D01*
X98127571Y-50605765D01*
X98150671Y-50614030D01*
X98172849Y-50624520D01*
X98193893Y-50637133D01*
X98213598Y-50651747D01*
X98231777Y-50668223D01*
X98248253Y-50686402D01*
X98262867Y-50706107D01*
X98275480Y-50727151D01*
X98285970Y-50749329D01*
X98294235Y-50772429D01*
X98300196Y-50796227D01*
X98303796Y-50820496D01*
X98305000Y-50845000D01*
X98305000Y-51770000D01*
X98303796Y-51794504D01*
X98300196Y-51818773D01*
X98294235Y-51842571D01*
X98285970Y-51865671D01*
X98275480Y-51887849D01*
X98262867Y-51908893D01*
X98248253Y-51928598D01*
X98231777Y-51946777D01*
X98213598Y-51963253D01*
X98193893Y-51977867D01*
X98172849Y-51990480D01*
X98150671Y-52000970D01*
X98127571Y-52009235D01*
X98103773Y-52015196D01*
X98079504Y-52018796D01*
X98055000Y-52020000D01*
X96805000Y-52020000D01*
X96780496Y-52018796D01*
X96756227Y-52015196D01*
X96732429Y-52009235D01*
X96709329Y-52000970D01*
X96687151Y-51990480D01*
X96666107Y-51977867D01*
X96646402Y-51963253D01*
X96628223Y-51946777D01*
X96611747Y-51928598D01*
X96597133Y-51908893D01*
X96584520Y-51887849D01*
X96574030Y-51865671D01*
X96565765Y-51842571D01*
X96559804Y-51818773D01*
X96556204Y-51794504D01*
X96555000Y-51770000D01*
X96555000Y-50845000D01*
X96556204Y-50820496D01*
X96559804Y-50796227D01*
X96565765Y-50772429D01*
X96574030Y-50749329D01*
X96584520Y-50727151D01*
X96597133Y-50706107D01*
X96611747Y-50686402D01*
X96628223Y-50668223D01*
X96646402Y-50651747D01*
X96666107Y-50637133D01*
X96687151Y-50624520D01*
X96709329Y-50614030D01*
X96732429Y-50605765D01*
X96756227Y-50599804D01*
X96780496Y-50596204D01*
X96805000Y-50595000D01*
X98055000Y-50595000D01*
X98079504Y-50596204D01*
X98079504Y-50596204D01*
G37*
D12*
X97430000Y-51307500D03*
D11*
G36*
X98079504Y-47621204D02*
X98103773Y-47624804D01*
X98127571Y-47630765D01*
X98150671Y-47639030D01*
X98172849Y-47649520D01*
X98193893Y-47662133D01*
X98213598Y-47676747D01*
X98231777Y-47693223D01*
X98248253Y-47711402D01*
X98262867Y-47731107D01*
X98275480Y-47752151D01*
X98285970Y-47774329D01*
X98294235Y-47797429D01*
X98300196Y-47821227D01*
X98303796Y-47845496D01*
X98305000Y-47870000D01*
X98305000Y-48795000D01*
X98303796Y-48819504D01*
X98300196Y-48843773D01*
X98294235Y-48867571D01*
X98285970Y-48890671D01*
X98275480Y-48912849D01*
X98262867Y-48933893D01*
X98248253Y-48953598D01*
X98231777Y-48971777D01*
X98213598Y-48988253D01*
X98193893Y-49002867D01*
X98172849Y-49015480D01*
X98150671Y-49025970D01*
X98127571Y-49034235D01*
X98103773Y-49040196D01*
X98079504Y-49043796D01*
X98055000Y-49045000D01*
X96805000Y-49045000D01*
X96780496Y-49043796D01*
X96756227Y-49040196D01*
X96732429Y-49034235D01*
X96709329Y-49025970D01*
X96687151Y-49015480D01*
X96666107Y-49002867D01*
X96646402Y-48988253D01*
X96628223Y-48971777D01*
X96611747Y-48953598D01*
X96597133Y-48933893D01*
X96584520Y-48912849D01*
X96574030Y-48890671D01*
X96565765Y-48867571D01*
X96559804Y-48843773D01*
X96556204Y-48819504D01*
X96555000Y-48795000D01*
X96555000Y-47870000D01*
X96556204Y-47845496D01*
X96559804Y-47821227D01*
X96565765Y-47797429D01*
X96574030Y-47774329D01*
X96584520Y-47752151D01*
X96597133Y-47731107D01*
X96611747Y-47711402D01*
X96628223Y-47693223D01*
X96646402Y-47676747D01*
X96666107Y-47662133D01*
X96687151Y-47649520D01*
X96709329Y-47639030D01*
X96732429Y-47630765D01*
X96756227Y-47624804D01*
X96780496Y-47621204D01*
X96805000Y-47620000D01*
X98055000Y-47620000D01*
X98079504Y-47621204D01*
X98079504Y-47621204D01*
G37*
D12*
X97430000Y-48332500D03*
G04 #@! TD*
D11*
G04 #@! TO.C,R4*
G36*
X97194504Y-53246204D02*
X97218773Y-53249804D01*
X97242571Y-53255765D01*
X97265671Y-53264030D01*
X97287849Y-53274520D01*
X97308893Y-53287133D01*
X97328598Y-53301747D01*
X97346777Y-53318223D01*
X97363253Y-53336402D01*
X97377867Y-53356107D01*
X97390480Y-53377151D01*
X97400970Y-53399329D01*
X97409235Y-53422429D01*
X97415196Y-53446227D01*
X97418796Y-53470496D01*
X97420000Y-53495000D01*
X97420000Y-54745000D01*
X97418796Y-54769504D01*
X97415196Y-54793773D01*
X97409235Y-54817571D01*
X97400970Y-54840671D01*
X97390480Y-54862849D01*
X97377867Y-54883893D01*
X97363253Y-54903598D01*
X97346777Y-54921777D01*
X97328598Y-54938253D01*
X97308893Y-54952867D01*
X97287849Y-54965480D01*
X97265671Y-54975970D01*
X97242571Y-54984235D01*
X97218773Y-54990196D01*
X97194504Y-54993796D01*
X97170000Y-54995000D01*
X96245000Y-54995000D01*
X96220496Y-54993796D01*
X96196227Y-54990196D01*
X96172429Y-54984235D01*
X96149329Y-54975970D01*
X96127151Y-54965480D01*
X96106107Y-54952867D01*
X96086402Y-54938253D01*
X96068223Y-54921777D01*
X96051747Y-54903598D01*
X96037133Y-54883893D01*
X96024520Y-54862849D01*
X96014030Y-54840671D01*
X96005765Y-54817571D01*
X95999804Y-54793773D01*
X95996204Y-54769504D01*
X95995000Y-54745000D01*
X95995000Y-53495000D01*
X95996204Y-53470496D01*
X95999804Y-53446227D01*
X96005765Y-53422429D01*
X96014030Y-53399329D01*
X96024520Y-53377151D01*
X96037133Y-53356107D01*
X96051747Y-53336402D01*
X96068223Y-53318223D01*
X96086402Y-53301747D01*
X96106107Y-53287133D01*
X96127151Y-53274520D01*
X96149329Y-53264030D01*
X96172429Y-53255765D01*
X96196227Y-53249804D01*
X96220496Y-53246204D01*
X96245000Y-53245000D01*
X97170000Y-53245000D01*
X97194504Y-53246204D01*
X97194504Y-53246204D01*
G37*
D12*
X96707500Y-54120000D03*
D11*
G36*
X94219504Y-53246204D02*
X94243773Y-53249804D01*
X94267571Y-53255765D01*
X94290671Y-53264030D01*
X94312849Y-53274520D01*
X94333893Y-53287133D01*
X94353598Y-53301747D01*
X94371777Y-53318223D01*
X94388253Y-53336402D01*
X94402867Y-53356107D01*
X94415480Y-53377151D01*
X94425970Y-53399329D01*
X94434235Y-53422429D01*
X94440196Y-53446227D01*
X94443796Y-53470496D01*
X94445000Y-53495000D01*
X94445000Y-54745000D01*
X94443796Y-54769504D01*
X94440196Y-54793773D01*
X94434235Y-54817571D01*
X94425970Y-54840671D01*
X94415480Y-54862849D01*
X94402867Y-54883893D01*
X94388253Y-54903598D01*
X94371777Y-54921777D01*
X94353598Y-54938253D01*
X94333893Y-54952867D01*
X94312849Y-54965480D01*
X94290671Y-54975970D01*
X94267571Y-54984235D01*
X94243773Y-54990196D01*
X94219504Y-54993796D01*
X94195000Y-54995000D01*
X93270000Y-54995000D01*
X93245496Y-54993796D01*
X93221227Y-54990196D01*
X93197429Y-54984235D01*
X93174329Y-54975970D01*
X93152151Y-54965480D01*
X93131107Y-54952867D01*
X93111402Y-54938253D01*
X93093223Y-54921777D01*
X93076747Y-54903598D01*
X93062133Y-54883893D01*
X93049520Y-54862849D01*
X93039030Y-54840671D01*
X93030765Y-54817571D01*
X93024804Y-54793773D01*
X93021204Y-54769504D01*
X93020000Y-54745000D01*
X93020000Y-53495000D01*
X93021204Y-53470496D01*
X93024804Y-53446227D01*
X93030765Y-53422429D01*
X93039030Y-53399329D01*
X93049520Y-53377151D01*
X93062133Y-53356107D01*
X93076747Y-53336402D01*
X93093223Y-53318223D01*
X93111402Y-53301747D01*
X93131107Y-53287133D01*
X93152151Y-53274520D01*
X93174329Y-53264030D01*
X93197429Y-53255765D01*
X93221227Y-53249804D01*
X93245496Y-53246204D01*
X93270000Y-53245000D01*
X94195000Y-53245000D01*
X94219504Y-53246204D01*
X94219504Y-53246204D01*
G37*
D12*
X93732500Y-54120000D03*
G04 #@! TD*
M02*
