G04 #@! TF.GenerationSoftware,KiCad,Pcbnew,(5.0.1)-3*
G04 #@! TF.CreationDate,2020-05-05T20:51:12+03:00*
G04 #@! TF.ProjectId,VienaTranPastiprinatajs,5669656E615472616E50617374697072,rev?*
G04 #@! TF.SameCoordinates,Original*
G04 #@! TF.FileFunction,Legend,Top*
G04 #@! TF.FilePolarity,Positive*
%FSLAX46Y46*%
G04 Gerber Fmt 4.6, Leading zero omitted, Abs format (unit mm)*
G04 Created by KiCad (PCBNEW (5.0.1)-3) date 05-May-20 8:51:12 PM*
%MOMM*%
%LPD*%
G01*
G04 APERTURE LIST*
%ADD10C,0.120000*%
%ADD11C,0.150000*%
G04 APERTURE END LIST*
D10*
G04 #@! TO.C,C1*
X93925000Y-45860302D02*
X93125000Y-45860302D01*
X93525000Y-45460302D02*
X93525000Y-46260302D01*
X91743000Y-53951000D02*
X90677000Y-53951000D01*
X91978000Y-53911000D02*
X90442000Y-53911000D01*
X92158000Y-53871000D02*
X90262000Y-53871000D01*
X92308000Y-53831000D02*
X90112000Y-53831000D01*
X92439000Y-53791000D02*
X89981000Y-53791000D01*
X92556000Y-53751000D02*
X89864000Y-53751000D01*
X92663000Y-53711000D02*
X89757000Y-53711000D01*
X92762000Y-53671000D02*
X89658000Y-53671000D01*
X92855000Y-53631000D02*
X89565000Y-53631000D01*
X92941000Y-53591000D02*
X89479000Y-53591000D01*
X93023000Y-53551000D02*
X89397000Y-53551000D01*
X93100000Y-53511000D02*
X89320000Y-53511000D01*
X93174000Y-53471000D02*
X89246000Y-53471000D01*
X93244000Y-53431000D02*
X89176000Y-53431000D01*
X93312000Y-53391000D02*
X89108000Y-53391000D01*
X93376000Y-53351000D02*
X89044000Y-53351000D01*
X93438000Y-53311000D02*
X88982000Y-53311000D01*
X93497000Y-53271000D02*
X88923000Y-53271000D01*
X93555000Y-53231000D02*
X88865000Y-53231000D01*
X93610000Y-53191000D02*
X88810000Y-53191000D01*
X93664000Y-53151000D02*
X88756000Y-53151000D01*
X93715000Y-53111000D02*
X88705000Y-53111000D01*
X93766000Y-53071000D02*
X88654000Y-53071000D01*
X93814000Y-53031000D02*
X88606000Y-53031000D01*
X93861000Y-52991000D02*
X88559000Y-52991000D01*
X93907000Y-52951000D02*
X88513000Y-52951000D01*
X93951000Y-52911000D02*
X88469000Y-52911000D01*
X93994000Y-52871000D02*
X88426000Y-52871000D01*
X94036000Y-52831000D02*
X88384000Y-52831000D01*
X94077000Y-52791000D02*
X88343000Y-52791000D01*
X94117000Y-52751000D02*
X88303000Y-52751000D01*
X94155000Y-52711000D02*
X88265000Y-52711000D01*
X94193000Y-52671000D02*
X88227000Y-52671000D01*
X90170000Y-52631000D02*
X88191000Y-52631000D01*
X94229000Y-52631000D02*
X92250000Y-52631000D01*
X90170000Y-52591000D02*
X88155000Y-52591000D01*
X94265000Y-52591000D02*
X92250000Y-52591000D01*
X90170000Y-52551000D02*
X88120000Y-52551000D01*
X94300000Y-52551000D02*
X92250000Y-52551000D01*
X90170000Y-52511000D02*
X88086000Y-52511000D01*
X94334000Y-52511000D02*
X92250000Y-52511000D01*
X90170000Y-52471000D02*
X88054000Y-52471000D01*
X94366000Y-52471000D02*
X92250000Y-52471000D01*
X90170000Y-52431000D02*
X88021000Y-52431000D01*
X94399000Y-52431000D02*
X92250000Y-52431000D01*
X90170000Y-52391000D02*
X87990000Y-52391000D01*
X94430000Y-52391000D02*
X92250000Y-52391000D01*
X90170000Y-52351000D02*
X87960000Y-52351000D01*
X94460000Y-52351000D02*
X92250000Y-52351000D01*
X90170000Y-52311000D02*
X87930000Y-52311000D01*
X94490000Y-52311000D02*
X92250000Y-52311000D01*
X90170000Y-52271000D02*
X87901000Y-52271000D01*
X94519000Y-52271000D02*
X92250000Y-52271000D01*
X90170000Y-52231000D02*
X87872000Y-52231000D01*
X94548000Y-52231000D02*
X92250000Y-52231000D01*
X90170000Y-52191000D02*
X87845000Y-52191000D01*
X94575000Y-52191000D02*
X92250000Y-52191000D01*
X90170000Y-52151000D02*
X87818000Y-52151000D01*
X94602000Y-52151000D02*
X92250000Y-52151000D01*
X90170000Y-52111000D02*
X87792000Y-52111000D01*
X94628000Y-52111000D02*
X92250000Y-52111000D01*
X90170000Y-52071000D02*
X87766000Y-52071000D01*
X94654000Y-52071000D02*
X92250000Y-52071000D01*
X90170000Y-52031000D02*
X87741000Y-52031000D01*
X94679000Y-52031000D02*
X92250000Y-52031000D01*
X90170000Y-51991000D02*
X87717000Y-51991000D01*
X94703000Y-51991000D02*
X92250000Y-51991000D01*
X90170000Y-51951000D02*
X87693000Y-51951000D01*
X94727000Y-51951000D02*
X92250000Y-51951000D01*
X90170000Y-51911000D02*
X87670000Y-51911000D01*
X94750000Y-51911000D02*
X92250000Y-51911000D01*
X90170000Y-51871000D02*
X87648000Y-51871000D01*
X94772000Y-51871000D02*
X92250000Y-51871000D01*
X90170000Y-51831000D02*
X87626000Y-51831000D01*
X94794000Y-51831000D02*
X92250000Y-51831000D01*
X90170000Y-51791000D02*
X87604000Y-51791000D01*
X94816000Y-51791000D02*
X92250000Y-51791000D01*
X90170000Y-51751000D02*
X87583000Y-51751000D01*
X94837000Y-51751000D02*
X92250000Y-51751000D01*
X90170000Y-51711000D02*
X87563000Y-51711000D01*
X94857000Y-51711000D02*
X92250000Y-51711000D01*
X90170000Y-51671000D02*
X87544000Y-51671000D01*
X94876000Y-51671000D02*
X92250000Y-51671000D01*
X90170000Y-51631000D02*
X87524000Y-51631000D01*
X94896000Y-51631000D02*
X92250000Y-51631000D01*
X90170000Y-51591000D02*
X87506000Y-51591000D01*
X94914000Y-51591000D02*
X92250000Y-51591000D01*
X90170000Y-51551000D02*
X87488000Y-51551000D01*
X94932000Y-51551000D02*
X92250000Y-51551000D01*
X90170000Y-51511000D02*
X87470000Y-51511000D01*
X94950000Y-51511000D02*
X92250000Y-51511000D01*
X90170000Y-51471000D02*
X87453000Y-51471000D01*
X94967000Y-51471000D02*
X92250000Y-51471000D01*
X90170000Y-51431000D02*
X87436000Y-51431000D01*
X94984000Y-51431000D02*
X92250000Y-51431000D01*
X90170000Y-51391000D02*
X87420000Y-51391000D01*
X95000000Y-51391000D02*
X92250000Y-51391000D01*
X90170000Y-51351000D02*
X87405000Y-51351000D01*
X95015000Y-51351000D02*
X92250000Y-51351000D01*
X90170000Y-51311000D02*
X87389000Y-51311000D01*
X95031000Y-51311000D02*
X92250000Y-51311000D01*
X90170000Y-51271000D02*
X87375000Y-51271000D01*
X95045000Y-51271000D02*
X92250000Y-51271000D01*
X90170000Y-51231000D02*
X87360000Y-51231000D01*
X95060000Y-51231000D02*
X92250000Y-51231000D01*
X90170000Y-51191000D02*
X87347000Y-51191000D01*
X95073000Y-51191000D02*
X92250000Y-51191000D01*
X90170000Y-51151000D02*
X87333000Y-51151000D01*
X95087000Y-51151000D02*
X92250000Y-51151000D01*
X90170000Y-51111000D02*
X87321000Y-51111000D01*
X95099000Y-51111000D02*
X92250000Y-51111000D01*
X90170000Y-51071000D02*
X87308000Y-51071000D01*
X95112000Y-51071000D02*
X92250000Y-51071000D01*
X90170000Y-51031000D02*
X87296000Y-51031000D01*
X95124000Y-51031000D02*
X92250000Y-51031000D01*
X90170000Y-50991000D02*
X87285000Y-50991000D01*
X95135000Y-50991000D02*
X92250000Y-50991000D01*
X90170000Y-50951000D02*
X87274000Y-50951000D01*
X95146000Y-50951000D02*
X92250000Y-50951000D01*
X90170000Y-50911000D02*
X87263000Y-50911000D01*
X95157000Y-50911000D02*
X92250000Y-50911000D01*
X90170000Y-50871000D02*
X87253000Y-50871000D01*
X95167000Y-50871000D02*
X92250000Y-50871000D01*
X90170000Y-50831000D02*
X87243000Y-50831000D01*
X95177000Y-50831000D02*
X92250000Y-50831000D01*
X90170000Y-50791000D02*
X87234000Y-50791000D01*
X95186000Y-50791000D02*
X92250000Y-50791000D01*
X90170000Y-50751000D02*
X87225000Y-50751000D01*
X95195000Y-50751000D02*
X92250000Y-50751000D01*
X90170000Y-50711000D02*
X87216000Y-50711000D01*
X95204000Y-50711000D02*
X92250000Y-50711000D01*
X90170000Y-50671000D02*
X87208000Y-50671000D01*
X95212000Y-50671000D02*
X92250000Y-50671000D01*
X90170000Y-50631000D02*
X87200000Y-50631000D01*
X95220000Y-50631000D02*
X92250000Y-50631000D01*
X90170000Y-50591000D02*
X87193000Y-50591000D01*
X95227000Y-50591000D02*
X92250000Y-50591000D01*
X95234000Y-50550000D02*
X87186000Y-50550000D01*
X95240000Y-50510000D02*
X87180000Y-50510000D01*
X95247000Y-50470000D02*
X87173000Y-50470000D01*
X95252000Y-50430000D02*
X87168000Y-50430000D01*
X95258000Y-50390000D02*
X87162000Y-50390000D01*
X95262000Y-50350000D02*
X87158000Y-50350000D01*
X95267000Y-50310000D02*
X87153000Y-50310000D01*
X95271000Y-50270000D02*
X87149000Y-50270000D01*
X95275000Y-50230000D02*
X87145000Y-50230000D01*
X95278000Y-50190000D02*
X87142000Y-50190000D01*
X95281000Y-50150000D02*
X87139000Y-50150000D01*
X95284000Y-50110000D02*
X87136000Y-50110000D01*
X95286000Y-50070000D02*
X87134000Y-50070000D01*
X95287000Y-50030000D02*
X87133000Y-50030000D01*
X95289000Y-49990000D02*
X87131000Y-49990000D01*
X95290000Y-49950000D02*
X87130000Y-49950000D01*
X95290000Y-49910000D02*
X87130000Y-49910000D01*
X95290000Y-49870000D02*
X87130000Y-49870000D01*
X95330000Y-49870000D02*
G75*
G03X95330000Y-49870000I-4120000J0D01*
G01*
G04 #@! TO.C,C2*
X103920000Y-49860000D02*
G75*
G03X103920000Y-49860000I-4120000J0D01*
G01*
X95720000Y-49860000D02*
X103880000Y-49860000D01*
X95720000Y-49820000D02*
X103880000Y-49820000D01*
X95720000Y-49780000D02*
X103880000Y-49780000D01*
X95721000Y-49740000D02*
X103879000Y-49740000D01*
X95723000Y-49700000D02*
X103877000Y-49700000D01*
X95724000Y-49660000D02*
X103876000Y-49660000D01*
X95726000Y-49620000D02*
X103874000Y-49620000D01*
X95729000Y-49580000D02*
X103871000Y-49580000D01*
X95732000Y-49540000D02*
X103868000Y-49540000D01*
X95735000Y-49500000D02*
X103865000Y-49500000D01*
X95739000Y-49460000D02*
X103861000Y-49460000D01*
X95743000Y-49420000D02*
X103857000Y-49420000D01*
X95748000Y-49380000D02*
X103852000Y-49380000D01*
X95752000Y-49340000D02*
X103848000Y-49340000D01*
X95758000Y-49300000D02*
X103842000Y-49300000D01*
X95763000Y-49260000D02*
X103837000Y-49260000D01*
X95770000Y-49220000D02*
X103830000Y-49220000D01*
X95776000Y-49180000D02*
X103824000Y-49180000D01*
X95783000Y-49139000D02*
X98760000Y-49139000D01*
X100840000Y-49139000D02*
X103817000Y-49139000D01*
X95790000Y-49099000D02*
X98760000Y-49099000D01*
X100840000Y-49099000D02*
X103810000Y-49099000D01*
X95798000Y-49059000D02*
X98760000Y-49059000D01*
X100840000Y-49059000D02*
X103802000Y-49059000D01*
X95806000Y-49019000D02*
X98760000Y-49019000D01*
X100840000Y-49019000D02*
X103794000Y-49019000D01*
X95815000Y-48979000D02*
X98760000Y-48979000D01*
X100840000Y-48979000D02*
X103785000Y-48979000D01*
X95824000Y-48939000D02*
X98760000Y-48939000D01*
X100840000Y-48939000D02*
X103776000Y-48939000D01*
X95833000Y-48899000D02*
X98760000Y-48899000D01*
X100840000Y-48899000D02*
X103767000Y-48899000D01*
X95843000Y-48859000D02*
X98760000Y-48859000D01*
X100840000Y-48859000D02*
X103757000Y-48859000D01*
X95853000Y-48819000D02*
X98760000Y-48819000D01*
X100840000Y-48819000D02*
X103747000Y-48819000D01*
X95864000Y-48779000D02*
X98760000Y-48779000D01*
X100840000Y-48779000D02*
X103736000Y-48779000D01*
X95875000Y-48739000D02*
X98760000Y-48739000D01*
X100840000Y-48739000D02*
X103725000Y-48739000D01*
X95886000Y-48699000D02*
X98760000Y-48699000D01*
X100840000Y-48699000D02*
X103714000Y-48699000D01*
X95898000Y-48659000D02*
X98760000Y-48659000D01*
X100840000Y-48659000D02*
X103702000Y-48659000D01*
X95911000Y-48619000D02*
X98760000Y-48619000D01*
X100840000Y-48619000D02*
X103689000Y-48619000D01*
X95923000Y-48579000D02*
X98760000Y-48579000D01*
X100840000Y-48579000D02*
X103677000Y-48579000D01*
X95937000Y-48539000D02*
X98760000Y-48539000D01*
X100840000Y-48539000D02*
X103663000Y-48539000D01*
X95950000Y-48499000D02*
X98760000Y-48499000D01*
X100840000Y-48499000D02*
X103650000Y-48499000D01*
X95965000Y-48459000D02*
X98760000Y-48459000D01*
X100840000Y-48459000D02*
X103635000Y-48459000D01*
X95979000Y-48419000D02*
X98760000Y-48419000D01*
X100840000Y-48419000D02*
X103621000Y-48419000D01*
X95995000Y-48379000D02*
X98760000Y-48379000D01*
X100840000Y-48379000D02*
X103605000Y-48379000D01*
X96010000Y-48339000D02*
X98760000Y-48339000D01*
X100840000Y-48339000D02*
X103590000Y-48339000D01*
X96026000Y-48299000D02*
X98760000Y-48299000D01*
X100840000Y-48299000D02*
X103574000Y-48299000D01*
X96043000Y-48259000D02*
X98760000Y-48259000D01*
X100840000Y-48259000D02*
X103557000Y-48259000D01*
X96060000Y-48219000D02*
X98760000Y-48219000D01*
X100840000Y-48219000D02*
X103540000Y-48219000D01*
X96078000Y-48179000D02*
X98760000Y-48179000D01*
X100840000Y-48179000D02*
X103522000Y-48179000D01*
X96096000Y-48139000D02*
X98760000Y-48139000D01*
X100840000Y-48139000D02*
X103504000Y-48139000D01*
X96114000Y-48099000D02*
X98760000Y-48099000D01*
X100840000Y-48099000D02*
X103486000Y-48099000D01*
X96134000Y-48059000D02*
X98760000Y-48059000D01*
X100840000Y-48059000D02*
X103466000Y-48059000D01*
X96153000Y-48019000D02*
X98760000Y-48019000D01*
X100840000Y-48019000D02*
X103447000Y-48019000D01*
X96173000Y-47979000D02*
X98760000Y-47979000D01*
X100840000Y-47979000D02*
X103427000Y-47979000D01*
X96194000Y-47939000D02*
X98760000Y-47939000D01*
X100840000Y-47939000D02*
X103406000Y-47939000D01*
X96216000Y-47899000D02*
X98760000Y-47899000D01*
X100840000Y-47899000D02*
X103384000Y-47899000D01*
X96238000Y-47859000D02*
X98760000Y-47859000D01*
X100840000Y-47859000D02*
X103362000Y-47859000D01*
X96260000Y-47819000D02*
X98760000Y-47819000D01*
X100840000Y-47819000D02*
X103340000Y-47819000D01*
X96283000Y-47779000D02*
X98760000Y-47779000D01*
X100840000Y-47779000D02*
X103317000Y-47779000D01*
X96307000Y-47739000D02*
X98760000Y-47739000D01*
X100840000Y-47739000D02*
X103293000Y-47739000D01*
X96331000Y-47699000D02*
X98760000Y-47699000D01*
X100840000Y-47699000D02*
X103269000Y-47699000D01*
X96356000Y-47659000D02*
X98760000Y-47659000D01*
X100840000Y-47659000D02*
X103244000Y-47659000D01*
X96382000Y-47619000D02*
X98760000Y-47619000D01*
X100840000Y-47619000D02*
X103218000Y-47619000D01*
X96408000Y-47579000D02*
X98760000Y-47579000D01*
X100840000Y-47579000D02*
X103192000Y-47579000D01*
X96435000Y-47539000D02*
X98760000Y-47539000D01*
X100840000Y-47539000D02*
X103165000Y-47539000D01*
X96462000Y-47499000D02*
X98760000Y-47499000D01*
X100840000Y-47499000D02*
X103138000Y-47499000D01*
X96491000Y-47459000D02*
X98760000Y-47459000D01*
X100840000Y-47459000D02*
X103109000Y-47459000D01*
X96520000Y-47419000D02*
X98760000Y-47419000D01*
X100840000Y-47419000D02*
X103080000Y-47419000D01*
X96550000Y-47379000D02*
X98760000Y-47379000D01*
X100840000Y-47379000D02*
X103050000Y-47379000D01*
X96580000Y-47339000D02*
X98760000Y-47339000D01*
X100840000Y-47339000D02*
X103020000Y-47339000D01*
X96611000Y-47299000D02*
X98760000Y-47299000D01*
X100840000Y-47299000D02*
X102989000Y-47299000D01*
X96644000Y-47259000D02*
X98760000Y-47259000D01*
X100840000Y-47259000D02*
X102956000Y-47259000D01*
X96676000Y-47219000D02*
X98760000Y-47219000D01*
X100840000Y-47219000D02*
X102924000Y-47219000D01*
X96710000Y-47179000D02*
X98760000Y-47179000D01*
X100840000Y-47179000D02*
X102890000Y-47179000D01*
X96745000Y-47139000D02*
X98760000Y-47139000D01*
X100840000Y-47139000D02*
X102855000Y-47139000D01*
X96781000Y-47099000D02*
X98760000Y-47099000D01*
X100840000Y-47099000D02*
X102819000Y-47099000D01*
X96817000Y-47059000D02*
X102783000Y-47059000D01*
X96855000Y-47019000D02*
X102745000Y-47019000D01*
X96893000Y-46979000D02*
X102707000Y-46979000D01*
X96933000Y-46939000D02*
X102667000Y-46939000D01*
X96974000Y-46899000D02*
X102626000Y-46899000D01*
X97016000Y-46859000D02*
X102584000Y-46859000D01*
X97059000Y-46819000D02*
X102541000Y-46819000D01*
X97103000Y-46779000D02*
X102497000Y-46779000D01*
X97149000Y-46739000D02*
X102451000Y-46739000D01*
X97196000Y-46699000D02*
X102404000Y-46699000D01*
X97244000Y-46659000D02*
X102356000Y-46659000D01*
X97295000Y-46619000D02*
X102305000Y-46619000D01*
X97346000Y-46579000D02*
X102254000Y-46579000D01*
X97400000Y-46539000D02*
X102200000Y-46539000D01*
X97455000Y-46499000D02*
X102145000Y-46499000D01*
X97513000Y-46459000D02*
X102087000Y-46459000D01*
X97572000Y-46419000D02*
X102028000Y-46419000D01*
X97634000Y-46379000D02*
X101966000Y-46379000D01*
X97698000Y-46339000D02*
X101902000Y-46339000D01*
X97766000Y-46299000D02*
X101834000Y-46299000D01*
X97836000Y-46259000D02*
X101764000Y-46259000D01*
X97910000Y-46219000D02*
X101690000Y-46219000D01*
X97987000Y-46179000D02*
X101613000Y-46179000D01*
X98069000Y-46139000D02*
X101531000Y-46139000D01*
X98155000Y-46099000D02*
X101445000Y-46099000D01*
X98248000Y-46059000D02*
X101352000Y-46059000D01*
X98347000Y-46019000D02*
X101253000Y-46019000D01*
X98454000Y-45979000D02*
X101146000Y-45979000D01*
X98571000Y-45939000D02*
X101029000Y-45939000D01*
X98702000Y-45899000D02*
X100898000Y-45899000D01*
X98852000Y-45859000D02*
X100748000Y-45859000D01*
X99032000Y-45819000D02*
X100568000Y-45819000D01*
X99267000Y-45779000D02*
X100333000Y-45779000D01*
X97485000Y-54269698D02*
X97485000Y-53469698D01*
X97085000Y-53869698D02*
X97885000Y-53869698D01*
G04 #@! TO.C,+5V*
X89131000Y-45060000D02*
G75*
G03X89131000Y-45060000I-1251000J0D01*
G01*
G04 #@! TO.C,GND*
X89131000Y-54700000D02*
G75*
G03X89131000Y-54700000I-1251000J0D01*
G01*
G04 #@! TO.C,out*
D11*
X104830476Y-50082380D02*
X104735238Y-50034761D01*
X104687619Y-49987142D01*
X104640000Y-49891904D01*
X104640000Y-49606190D01*
X104687619Y-49510952D01*
X104735238Y-49463333D01*
X104830476Y-49415714D01*
X104973333Y-49415714D01*
X105068571Y-49463333D01*
X105116190Y-49510952D01*
X105163809Y-49606190D01*
X105163809Y-49891904D01*
X105116190Y-49987142D01*
X105068571Y-50034761D01*
X104973333Y-50082380D01*
X104830476Y-50082380D01*
X106020952Y-49415714D02*
X106020952Y-50082380D01*
X105592380Y-49415714D02*
X105592380Y-49939523D01*
X105640000Y-50034761D01*
X105735238Y-50082380D01*
X105878095Y-50082380D01*
X105973333Y-50034761D01*
X106020952Y-49987142D01*
X106354285Y-49415714D02*
X106735238Y-49415714D01*
X106497142Y-49082380D02*
X106497142Y-49939523D01*
X106544761Y-50034761D01*
X106640000Y-50082380D01*
X106735238Y-50082380D01*
G04 #@! TO.C,C1*
X91113333Y-44857142D02*
X91065714Y-44904761D01*
X90922857Y-44952380D01*
X90827619Y-44952380D01*
X90684761Y-44904761D01*
X90589523Y-44809523D01*
X90541904Y-44714285D01*
X90494285Y-44523809D01*
X90494285Y-44380952D01*
X90541904Y-44190476D01*
X90589523Y-44095238D01*
X90684761Y-44000000D01*
X90827619Y-43952380D01*
X90922857Y-43952380D01*
X91065714Y-44000000D01*
X91113333Y-44047619D01*
X92065714Y-44952380D02*
X91494285Y-44952380D01*
X91780000Y-44952380D02*
X91780000Y-43952380D01*
X91684761Y-44095238D01*
X91589523Y-44190476D01*
X91494285Y-44238095D01*
G04 #@! TO.C,C2*
X99643333Y-44837142D02*
X99595714Y-44884761D01*
X99452857Y-44932380D01*
X99357619Y-44932380D01*
X99214761Y-44884761D01*
X99119523Y-44789523D01*
X99071904Y-44694285D01*
X99024285Y-44503809D01*
X99024285Y-44360952D01*
X99071904Y-44170476D01*
X99119523Y-44075238D01*
X99214761Y-43980000D01*
X99357619Y-43932380D01*
X99452857Y-43932380D01*
X99595714Y-43980000D01*
X99643333Y-44027619D01*
X100024285Y-44027619D02*
X100071904Y-43980000D01*
X100167142Y-43932380D01*
X100405238Y-43932380D01*
X100500476Y-43980000D01*
X100548095Y-44027619D01*
X100595714Y-44122857D01*
X100595714Y-44218095D01*
X100548095Y-44360952D01*
X99976666Y-44932380D01*
X100595714Y-44932380D01*
G04 #@! TO.C,in*
X84937619Y-50122380D02*
X84937619Y-49455714D01*
X84937619Y-49122380D02*
X84890000Y-49170000D01*
X84937619Y-49217619D01*
X84985238Y-49170000D01*
X84937619Y-49122380D01*
X84937619Y-49217619D01*
X85413809Y-49455714D02*
X85413809Y-50122380D01*
X85413809Y-49550952D02*
X85461428Y-49503333D01*
X85556666Y-49455714D01*
X85699523Y-49455714D01*
X85794761Y-49503333D01*
X85842380Y-49598571D01*
X85842380Y-50122380D01*
G04 #@! TO.C,+5V*
X83614285Y-45111428D02*
X84376190Y-45111428D01*
X83995238Y-45492380D02*
X83995238Y-44730476D01*
X85328571Y-44492380D02*
X84852380Y-44492380D01*
X84804761Y-44968571D01*
X84852380Y-44920952D01*
X84947619Y-44873333D01*
X85185714Y-44873333D01*
X85280952Y-44920952D01*
X85328571Y-44968571D01*
X85376190Y-45063809D01*
X85376190Y-45301904D01*
X85328571Y-45397142D01*
X85280952Y-45444761D01*
X85185714Y-45492380D01*
X84947619Y-45492380D01*
X84852380Y-45444761D01*
X84804761Y-45397142D01*
X85661904Y-44492380D02*
X85995238Y-45492380D01*
X86328571Y-44492380D01*
G04 #@! TO.C,GND*
X84208095Y-54190000D02*
X84112857Y-54142380D01*
X83970000Y-54142380D01*
X83827142Y-54190000D01*
X83731904Y-54285238D01*
X83684285Y-54380476D01*
X83636666Y-54570952D01*
X83636666Y-54713809D01*
X83684285Y-54904285D01*
X83731904Y-54999523D01*
X83827142Y-55094761D01*
X83970000Y-55142380D01*
X84065238Y-55142380D01*
X84208095Y-55094761D01*
X84255714Y-55047142D01*
X84255714Y-54713809D01*
X84065238Y-54713809D01*
X84684285Y-55142380D02*
X84684285Y-54142380D01*
X85255714Y-55142380D01*
X85255714Y-54142380D01*
X85731904Y-55142380D02*
X85731904Y-54142380D01*
X85970000Y-54142380D01*
X86112857Y-54190000D01*
X86208095Y-54285238D01*
X86255714Y-54380476D01*
X86303333Y-54570952D01*
X86303333Y-54713809D01*
X86255714Y-54904285D01*
X86208095Y-54999523D01*
X86112857Y-55094761D01*
X85970000Y-55142380D01*
X85731904Y-55142380D01*
G04 #@! TD*
M02*
